<?xml version="1.0" encoding="UTF-8"?>
<svg id="Layer_2" data-name="Layer 2" xmlns="http://www.w3.org/2000/svg" viewBox="0 0 35.2 43.24">
  <defs>
    <style>
      .cls-1 {
        fill: #010101;
        stroke-width: 0px;
      }
    </style>
  </defs>
  <g id="Layer_1-2" data-name="Layer 1">
    <path class="cls-1" d="M34.08,14.74c-.25.19-4.68,2.69-4.68,8.24,0,6.42,5.63,8.69,5.8,8.74-.03.14-.9,3.11-2.97,6.14-1.85,2.66-3.78,5.32-6.72,5.32s-3.7-1.71-7.09-1.71-4.48,1.76-7.17,1.76-4.57-2.46-6.72-5.49c-2.5-3.55-4.52-9.08-4.52-14.32,0-8.41,5.47-12.86,10.84-12.86,2.86,0,5.24,1.88,7.04,1.88s4.37-1.99,7.62-1.99c1.23,0,5.66.11,8.57,4.29h0ZM23.96,6.89c1.34-1.6,2.3-3.81,2.3-6.02,0-.31-.03-.62-.08-.87-2.19.08-4.79,1.46-6.36,3.28-1.23,1.4-2.38,3.61-2.38,5.86,0,.34.06.67.08.78.14.03.36.06.59.06,1.96,0,4.43-1.31,5.86-3.08h0Z"/>
  </g>
</svg>