<?xml version="1.0" encoding="UTF-8"?>
<svg id="Layer_2" data-name="Layer 2" xmlns="http://www.w3.org/2000/svg" xmlns:xlink="http://www.w3.org/1999/xlink" viewBox="0 0 54.31 31.64">
  <defs>
    <style>
      .cls-1 {
        fill: none;
      }

      .cls-1, .cls-2, .cls-3 {
        stroke-width: 0px;
      }

      .cls-2 {
        fill: #202224;
      }

      .cls-4 {
        clip-path: url(#clippath);
      }

      .cls-3 {
        fill: #36a852;
      }
    </style>
    <clipPath id="clippath">
      <rect class="cls-1" width="54.31" height="31.64"/>
    </clipPath>
  </defs>
  <g id="Layer_1-2" data-name="Layer 1">
    <g id="Layer_2-2" data-name="Layer 2">
      <g id="g5">
        <g class="cls-4">
          <g id="g4">
            <path id="path2" class="cls-3" d="M54.17,30.44c-.02-.12-.03-.21-.05-.33-.12-.67-.25-1.35-.41-2.02-.28-1.17-.64-2.3-1.07-3.39-.36-.94-.77-1.84-1.23-2.71-.59-1.12-1.25-2.2-1.99-3.24-.9-1.27-1.91-2.43-2.99-3.53-.46-.46-.94-.9-1.43-1.31-1.07-.92-2.2-1.76-3.4-2.5.02-.02.02-.03.03-.05.54-.95,1.1-1.89,1.64-2.84.54-.92,1.07-1.84,1.61-2.78.38-.66.77-1.33,1.15-1.99.1-.16.16-.31.21-.49.15-.46.16-.95.03-1.41-.03-.12-.07-.23-.12-.33-.05-.12-.1-.21-.16-.31-.2-.35-.49-.64-.87-.85-.33-.2-.69-.31-1.07-.35-.16-.02-.31-.02-.48,0-.13.02-.26.03-.38.07-.46.12-.87.36-1.2.72-.12.13-.23.28-.31.43-.38.66-.77,1.33-1.15,1.99l-1.61,2.78c-.54.95-1.1,1.89-1.64,2.84-.07.1-.12.21-.18.31-.08-.03-.16-.07-.25-.1-3.02-1.15-6.29-1.77-9.73-1.77h-.28c-3.04.03-5.97.56-8.71,1.51-.31.12-.62.23-.94.35-.05-.1-.12-.2-.16-.3-.54-.95-1.1-1.89-1.64-2.84-.54-.92-1.07-1.84-1.61-2.78-.38-.66-.77-1.33-1.15-1.99-.1-.16-.2-.3-.31-.43-.33-.36-.76-.61-1.2-.72-.13-.03-.26-.05-.38-.07C10.58-.02,10.44-.02,10.27,0c-.38.03-.74.15-1.07.35-.36.21-.66.51-.87.85-.07.1-.12.2-.16.31-.05.12-.08.21-.12.33-.12.46-.12.94.03,1.41.05.16.13.33.21.49.38.66.77,1.33,1.15,1.99.54.92,1.07,1.84,1.61,2.78.54.95,1.1,1.89,1.64,2.84l.02.02c-1.1.69-2.15,1.45-3.16,2.28-.59.49-1.17,1.02-1.71,1.56-1.1,1.08-2.09,2.27-2.99,3.53-.74,1.04-1.4,2.1-1.99,3.24-.46.87-.87,1.77-1.23,2.71-.43,1.1-.79,2.24-1.07,3.39-.16.66-.3,1.33-.41,2.02-.02.12-.03.21-.05.33-.07.39-.12.79-.16,1.2h54.31c0-.41-.05-.81-.1-1.2Z"/>
            <path id="path3" class="cls-2" d="M41.28,24.11c1.08-.72,1.25-2.4.35-3.73-.89-1.35-2.5-1.84-3.58-1.12-1.08.72-1.25,2.4-.35,3.73.89,1.35,2.5,1.84,3.58,1.12Z"/>
            <path id="path4" class="cls-2" d="M16.66,23.01c.89-1.35.74-3.01-.35-3.73-1.08-.72-2.7-.23-3.58,1.12-.89,1.35-.74,3.01.35,3.73s2.68.21,3.58-1.12Z"/>
          </g>
        </g>
      </g>
    </g>
  </g>
</svg>