<?xml version="1.0" encoding="UTF-8"?>
<svg id="Layer_2" data-name="Layer 2" xmlns="http://www.w3.org/2000/svg" viewBox="0 0 46.67 46.5">
  <defs>
    <style>
      .cls-1 {
        fill: #33afe0;
        fill-rule: evenodd;
        stroke-width: 0px;
      }
    </style>
  </defs>
  <g id="Layer_1-2" data-name="Layer 1">
    <g id="g20">
      <path id="path12" class="cls-1" d="M46.67,23.63c-.15.49-.48.85-.83,1.2-2.37,2.36-4.73,4.73-7.09,7.09-.85.85-1.76.85-2.62,0-2.44-2.44-4.88-4.88-7.31-7.32-.83-.83-.83-1.74,0-2.57,2.45-2.45,4.9-4.91,7.36-7.36.8-.8,1.74-.8,2.53,0,2.38,2.38,4.75,4.76,7.13,7.13.35.35.68.71.83,1.2v.64Z"/>
      <path id="path14" class="cls-1" d="M23.17,46.5c-.49-.15-.84-.49-1.19-.84-2.36-2.37-4.72-4.73-7.08-7.1-.85-.85-.85-1.75,0-2.59,2.44-2.45,4.89-4.89,7.34-7.34.81-.81,1.74-.82,2.55,0,2.45,2.45,4.89,4.89,7.33,7.34.84.84.84,1.76,0,2.6-2.38,2.39-4.77,4.77-7.15,7.16-.34.34-.69.65-1.16.78h-.64,0Z"/>
      <path id="path16" class="cls-1" d="M14.59,17.45c0-2.72.02-5.44-.02-8.16-.01-.79.18-1.4.78-1.92.48-.42.91-.9,1.37-1.35,1.79-1.79,3.58-3.59,5.38-5.38.84-.84,1.75-.84,2.59,0,2.44,2.44,4.88,4.88,7.31,7.32.84.84.84,1.76,0,2.6-2.88,2.89-5.77,5.77-8.65,8.66-2.55,2.55-5.09,5.1-7.64,7.65-.47.47-.89.36-1.06-.29-.05-.2-.06-.42-.06-.63,0-2.83,0-5.65,0-8.48"/>
      <path id="path18" class="cls-1" d="M8.76,23.35c0,2.5,0,4.99,0,7.49,0,.24-.04.49-.12.71-.17.43-.48.49-.81.16-1.15-1.15-2.29-2.3-3.44-3.44-1.32-1.33-2.65-2.65-3.97-3.98-.55-.55-.55-1.31,0-1.86,2.44-2.47,4.88-4.93,7.32-7.4.16-.16.31-.38.59-.28.26.1.37.34.4.6.02.16.04.33.04.49,0,2.51,0,5.01,0,7.52h0Z"/>
    </g>
  </g>
</svg>