<?xml version="1.0" encoding="UTF-8"?>
<svg id="Layer_2" data-name="Layer 2" xmlns="http://www.w3.org/2000/svg" viewBox="0 0 349.21 103.47">
  <defs>
    <style>
      .cls-1 {
        fill: #010101;
      }

      .cls-1, .cls-2, .cls-3 {
        stroke-width: 0px;
      }

      .cls-2 {
        fill: #fff;
      }

      .cls-3 {
        fill: #a7a6a6;
      }
    </style>
  </defs>
  <g id="Layer_1-2" data-name="Layer 1">
    <g>
      <path class="cls-3" d="M336.79,103.47H12.23c-6.74,0-12.23-5.5-12.23-12.24V12.23C0,5.48,5.49,0,12.23,0h324.56c6.74,0,12.42,5.48,12.42,12.23v79c0,6.74-5.68,12.24-12.42,12.24h0Z"/>
      <path class="cls-1" d="M346.71,91.23c0,5.47-4.43,9.91-9.92,9.91H12.23c-5.48,0-9.93-4.43-9.93-9.91V12.22C2.3,6.75,6.75,2.3,12.23,2.3h324.56c5.49,0,9.92,4.45,9.92,9.92v79.01h0Z"/>
      <g>
        <path class="cls-2" d="M77.93,51.18c-.08-8.34,6.83-12.39,7.14-12.58-3.91-5.7-9.97-6.48-12.1-6.54-5.09-.54-10.02,3.04-12.62,3.04s-6.64-2.99-10.94-2.9c-5.54.09-10.71,3.29-13.55,8.27-5.86,10.15-1.49,25.06,4.13,33.26,2.81,4.02,6.09,8.5,10.39,8.34,4.2-.17,5.77-2.68,10.85-2.68s6.5,2.68,10.88,2.58c4.51-.07,7.35-4.04,10.06-8.09,3.25-4.6,4.55-9.14,4.6-9.37-.11-.04-8.76-3.34-8.85-13.33Z"/>
        <path class="cls-2" d="M69.66,26.66c2.26-2.83,3.81-6.67,3.38-10.58-3.27.14-7.36,2.26-9.72,5.03-2.08,2.44-3.95,6.43-3.47,10.19,3.68.27,7.45-1.85,9.81-4.64Z"/>
      </g>
      <g>
        <path class="cls-2" d="M138.77,81.49h-5.87l-3.22-10.11h-11.19l-3.07,10.11h-5.72l11.08-34.42h6.84l11.14,34.42ZM128.7,67.14l-2.91-8.99c-.31-.92-.88-3.08-1.74-6.49h-.1c-.34,1.46-.88,3.63-1.63,6.49l-2.86,8.99h9.24Z"/>
        <path class="cls-2" d="M167.27,68.78c0,4.22-1.14,7.56-3.42,10.01-2.04,2.18-4.58,3.27-7.61,3.27-3.27,0-5.62-1.17-7.05-3.52h-.1v13.08h-5.51v-26.77c0-2.65-.07-5.38-.2-8.17h4.85l.31,3.93h.1c1.84-2.96,4.63-4.44,8.38-4.44,2.93,0,5.37,1.16,7.33,3.47,1.96,2.32,2.94,5.36,2.94,9.14ZM161.65,68.98c0-2.42-.54-4.41-1.63-5.98-1.19-1.63-2.79-2.45-4.8-2.45-1.36,0-2.6.46-3.7,1.35-1.11.91-1.83,2.09-2.17,3.55-.17.68-.26,1.24-.26,1.68v4.14c0,1.81.55,3.33,1.66,4.57s2.55,1.87,4.31,1.87c2.08,0,3.69-.8,4.85-2.4,1.16-1.6,1.74-3.71,1.74-6.34Z"/>
        <path class="cls-2" d="M195.82,68.78c0,4.22-1.14,7.56-3.42,10.01-2.04,2.18-4.58,3.27-7.61,3.27-3.27,0-5.62-1.17-7.05-3.52h-.1v13.08h-5.52v-26.77c0-2.65-.07-5.38-.2-8.17h4.85l.31,3.93h.1c1.84-2.96,4.63-4.44,8.38-4.44,2.93,0,5.37,1.16,7.33,3.47,1.95,2.32,2.93,5.36,2.93,9.14ZM190.2,68.98c0-2.42-.55-4.41-1.64-5.98-1.19-1.63-2.79-2.45-4.8-2.45-1.36,0-2.6.46-3.7,1.35-1.11.91-1.83,2.09-2.17,3.55-.17.68-.26,1.24-.26,1.68v4.14c0,1.81.55,3.33,1.66,4.57,1.11,1.24,2.55,1.87,4.32,1.87,2.08,0,3.69-.8,4.85-2.4,1.16-1.6,1.74-3.71,1.74-6.34Z"/>
        <path class="cls-2" d="M227.74,71.84c0,2.93-1.02,5.31-3.06,7.15-2.24,2.01-5.36,3.01-9.38,3.01-3.7,0-6.67-.71-8.92-2.14l1.28-4.6c2.42,1.46,5.08,2.2,7.97,2.2,2.08,0,3.69-.47,4.86-1.41,1.16-.94,1.73-2.19,1.73-3.76,0-1.4-.48-2.57-1.43-3.53-.95-.95-2.54-1.84-4.75-2.66-6.03-2.25-9.04-5.54-9.04-9.87,0-2.83,1.06-5.15,3.17-6.96,2.11-1.81,4.91-2.71,8.43-2.71,3.13,0,5.73.55,7.81,1.63l-1.38,4.5c-1.94-1.06-4.13-1.58-6.59-1.58-1.94,0-3.46.48-4.54,1.43-.92.85-1.38,1.89-1.38,3.12,0,1.36.53,2.49,1.58,3.37.92.82,2.59,1.7,5.01,2.66,2.96,1.19,5.14,2.59,6.54,4.19,1.39,1.59,2.09,3.59,2.09,5.97Z"/>
        <path class="cls-2" d="M245.97,60.81h-6.08v12.05c0,3.07,1.07,4.6,3.22,4.6.99,0,1.8-.09,2.45-.26l.15,4.19c-1.09.41-2.52.61-4.29.61-2.18,0-3.88-.66-5.11-1.99-1.22-1.33-1.84-3.56-1.84-6.69v-12.51h-3.62v-4.14h3.62v-4.54l5.42-1.63v6.18h6.08s0,4.14,0,4.14Z"/>
        <path class="cls-2" d="M273.4,68.88c0,3.82-1.09,6.95-3.27,9.4-2.28,2.52-5.32,3.78-9.1,3.78s-6.54-1.21-8.7-3.62-3.24-5.47-3.24-9.14,1.11-7,3.34-9.45c2.23-2.45,5.23-3.68,9.01-3.68s6.57,1.21,8.78,3.63c2.12,2.35,3.17,5.38,3.17,9.09ZM267.68,69.06c0-2.29-.49-4.25-1.48-5.89-1.16-1.98-2.81-2.97-4.95-2.97s-3.9.99-5.06,2.97c-.99,1.64-1.48,3.63-1.48,5.99s.49,4.25,1.48,5.89c1.19,1.98,2.86,2.97,5.01,2.97s3.76-1.01,4.95-3.02c1.02-1.67,1.53-3.65,1.53-5.94Z"/>
        <path class="cls-2" d="M291.32,61.52c-.55-.1-1.13-.15-1.74-.15-1.94,0-3.44.73-4.5,2.2-.92,1.29-1.38,2.93-1.38,4.9v13.02h-5.51l.05-17.01c0-2.86-.07-5.47-.21-7.81h4.8l.2,4.75h.15c.58-1.63,1.5-2.95,2.76-3.93,1.23-.89,2.56-1.33,3.99-1.33.51,0,.97.04,1.38.1,0,0,0,5.26,0,5.26Z"/>
        <path class="cls-2" d="M315.99,67.91c0,.99-.06,1.82-.2,2.5h-16.55c.06,2.45.86,4.33,2.4,5.62,1.39,1.16,3.2,1.74,5.41,1.74,2.45,0,4.68-.39,6.69-1.17l.86,3.83c-2.35,1.02-5.12,1.53-8.32,1.53-3.85,0-6.87-1.13-9.07-3.4-2.19-2.26-3.29-5.3-3.29-9.12s1.02-6.86,3.07-9.35c2.14-2.65,5.04-3.98,8.68-3.98s6.29,1.33,8.13,3.98c1.46,2.11,2.19,4.72,2.19,7.81ZM310.73,66.48c.04-1.63-.32-3.05-1.07-4.24-.95-1.53-2.42-2.3-4.39-2.3-1.8,0-3.27.75-4.39,2.25-.92,1.19-1.46,2.62-1.63,4.29h11.49Z"/>
      </g>
      <g>
        <path class="cls-2" d="M126.88,25.89c0,3.04-.91,5.34-2.74,6.88-1.69,1.42-4.09,2.13-7.2,2.13-1.54,0-2.86-.07-3.97-.2v-16.64c1.44-.23,2.99-.35,4.67-.35,2.96,0,5.19.64,6.7,1.93,1.69,1.46,2.53,3.54,2.53,6.25ZM124.02,25.97c0-1.97-.52-3.49-1.57-4.54-1.05-1.05-2.57-1.58-4.58-1.58-.85,0-1.58.06-2.18.18v12.65c.33.05.94.08,1.83.08,2.07,0,3.68-.58,4.8-1.73s1.7-2.84,1.7-5.04Z"/>
        <path class="cls-2" d="M142.04,28.55c0,1.88-.54,3.41-1.61,4.62-1.12,1.24-2.61,1.86-4.47,1.86s-3.22-.59-4.28-1.78c-1.06-1.19-1.59-2.69-1.59-4.49s.55-3.44,1.64-4.64,2.57-1.81,4.43-1.81,3.23.59,4.32,1.78c1.03,1.15,1.55,2.64,1.55,4.46ZM139.23,28.64c0-1.13-.24-2.09-.73-2.89-.57-.97-1.38-1.46-2.43-1.46s-1.92.49-2.49,1.46c-.49.8-.73,1.78-.73,2.94s.24,2.09.73,2.89c.59.97,1.4,1.46,2.46,1.46s1.85-.49,2.43-1.48c.5-.82.75-1.79.75-2.92Z"/>
        <path class="cls-2" d="M162.36,22.55l-3.82,12.19h-2.48l-1.58-5.3c-.4-1.32-.73-2.64-.98-3.94h-.05c-.24,1.34-.56,2.65-.98,3.94l-1.68,5.3h-2.51l-3.59-12.19h2.79l1.38,5.8c.33,1.37.61,2.68.83,3.91h.05c.2-1.02.54-2.32,1.01-3.89l1.73-5.82h2.21l1.66,5.7c.4,1.39.73,2.73.98,4.01h.08c.18-1.25.46-2.59.83-4.01l1.48-5.7h2.66Z"/>
        <path class="cls-2" d="M176.41,34.75h-2.71v-6.98c0-2.15-.82-3.23-2.46-3.23-.8,0-1.45.29-1.96.89-.5.59-.75,1.29-.75,2.09v7.23h-2.71v-8.71c0-1.07-.03-2.23-.1-3.49h2.38l.13,1.91h.08c.32-.59.79-1.08,1.4-1.47.73-.46,1.56-.69,2.46-.69,1.14,0,2.08.37,2.84,1.1.94.9,1.4,2.25,1.4,4.04v7.31Z"/>
        <path class="cls-2" d="M183.89,34.75h-2.71v-17.79h2.71v17.79Z"/>
        <path class="cls-2" d="M199.85,28.55c0,1.88-.54,3.41-1.61,4.62-1.12,1.24-2.61,1.86-4.47,1.86s-3.22-.59-4.28-1.78c-1.06-1.19-1.59-2.69-1.59-4.49s.55-3.44,1.64-4.64,2.57-1.81,4.43-1.81,3.23.59,4.32,1.78c1.03,1.15,1.55,2.64,1.55,4.46ZM197.03,28.64c0-1.13-.24-2.09-.73-2.89-.57-.97-1.38-1.46-2.43-1.46s-1.92.49-2.49,1.46c-.49.8-.73,1.78-.73,2.94s.24,2.09.73,2.89c.59.97,1.4,1.46,2.46,1.46s1.84-.49,2.43-1.48c.5-.82.75-1.79.75-2.92Z"/>
        <path class="cls-2" d="M212.97,34.75h-2.43l-.2-1.4h-.08c-.83,1.12-2.02,1.68-3.56,1.68-1.15,0-2.08-.37-2.78-1.1-.64-.67-.95-1.5-.95-2.48,0-1.49.62-2.63,1.87-3.41,1.25-.79,3-1.17,5.26-1.15v-.23c0-1.61-.84-2.41-2.53-2.41-1.2,0-2.26.3-3.18.9l-.55-1.78c1.13-.7,2.53-1.05,4.18-1.05,3.19,0,4.79,1.68,4.79,5.04v4.49c0,1.22.06,2.19.18,2.91ZM210.15,30.56v-1.88c-2.99-.05-4.49.77-4.49,2.46,0,.64.17,1.11.52,1.43.35.32.79.48,1.32.48.59,0,1.15-.19,1.66-.56.51-.38.82-.86.94-1.44.03-.13.04-.29.04-.48Z"/>
        <path class="cls-2" d="M228.37,34.75h-2.41l-.13-1.96h-.08c-.77,1.49-2.08,2.23-3.92,2.23-1.47,0-2.69-.58-3.66-1.73s-1.45-2.65-1.45-4.49c0-1.97.53-3.57,1.58-4.79,1.02-1.14,2.27-1.71,3.76-1.71,1.64,0,2.78.55,3.44,1.66h.05v-7h2.71v14.5c0,1.19.03,2.28.1,3.29ZM225.56,29.61v-2.03c0-.35-.03-.64-.08-.85-.15-.65-.48-1.2-.98-1.64-.5-.44-1.11-.66-1.81-.66-1.01,0-1.8.4-2.38,1.21-.58.8-.87,1.83-.87,3.09s.28,2.18.83,2.94c.59.8,1.38,1.2,2.37,1.2.89,0,1.6-.33,2.14-1,.52-.62.78-1.36.78-2.23Z"/>
        <path class="cls-2" d="M251.56,28.55c0,1.88-.54,3.41-1.61,4.62-1.12,1.24-2.61,1.86-4.47,1.86s-3.21-.59-4.28-1.78c-1.06-1.19-1.59-2.69-1.59-4.49s.55-3.44,1.64-4.64,2.57-1.81,4.43-1.81,3.23.59,4.31,1.78c1.03,1.15,1.55,2.64,1.55,4.46ZM248.75,28.64c0-1.13-.24-2.09-.73-2.89-.57-.97-1.38-1.46-2.43-1.46s-1.91.49-2.49,1.46c-.49.8-.73,1.78-.73,2.94s.24,2.09.73,2.89c.59.97,1.4,1.46,2.46,1.46s1.85-.49,2.43-1.48c.5-.82.75-1.79.75-2.92Z"/>
        <path class="cls-2" d="M266.13,34.75h-2.71v-6.98c0-2.15-.82-3.23-2.46-3.23-.8,0-1.45.29-1.96.89s-.75,1.29-.75,2.09v7.23h-2.71v-8.71c0-1.07-.03-2.23-.1-3.49h2.38l.13,1.91h.08c.32-.59.79-1.08,1.4-1.47.74-.46,1.56-.69,2.46-.69,1.14,0,2.08.37,2.84,1.1.94.9,1.4,2.25,1.4,4.04v7.31Z"/>
        <path class="cls-2" d="M284.38,24.58h-2.99v5.92c0,1.51.53,2.26,1.58,2.26.49,0,.89-.04,1.21-.13l.07,2.06c-.54.2-1.24.3-2.11.3-1.07,0-1.9-.33-2.51-.98-.61-.65-.91-1.75-.91-3.29v-6.15h-1.78v-2.03h1.78v-2.23l2.66-.8v3.03h2.99v2.03h0Z"/>
        <path class="cls-2" d="M298.73,34.75h-2.71v-6.93c0-2.19-.82-3.28-2.45-3.28-1.26,0-2.12.63-2.59,1.9-.08.27-.13.59-.13.98v7.33h-2.71v-17.79h2.71v7.35h.05c.85-1.34,2.08-2,3.66-2,1.12,0,2.05.37,2.79,1.1.92.92,1.38,2.28,1.38,4.09,0,0,0,7.25,0,7.25Z"/>
        <path class="cls-2" d="M313.53,28.07c0,.49-.04.9-.1,1.23h-8.13c.04,1.21.42,2.12,1.18,2.76.69.57,1.58.85,2.66.85,1.2,0,2.3-.19,3.29-.58l.42,1.88c-1.16.5-2.52.75-4.09.75-1.89,0-3.38-.56-4.45-1.67-1.08-1.11-1.62-2.6-1.62-4.48s.5-3.37,1.51-4.59c1.05-1.3,2.47-1.96,4.26-1.96s3.09.65,3.99,1.96c.73,1.03,1.09,2.32,1.09,3.84ZM310.95,27.37c.02-.8-.16-1.5-.53-2.08-.47-.75-1.19-1.13-2.16-1.13-.88,0-1.61.37-2.16,1.1-.45.59-.72,1.29-.8,2.11,0,0,5.64,0,5.64,0Z"/>
      </g>
    </g>
  </g>
</svg>