<?xml version="1.0" encoding="UTF-8"?>
<svg id="Layer_1" data-name="Layer 1" xmlns="http://www.w3.org/2000/svg" viewBox="0 0 80 25.66">
  <defs>
    <style>
      .cls-1 {
        stroke-width: 0px;
      }
    </style>
  </defs>
  <path class="cls-1" d="M79.44,17.54c-.14,0-.26.09-.32.27-.82,2.34-1.93,3.73-2.84,3.73-.52,0-.74-.58-.74-1.5,0-2.29,1.37-7.15,2.06-9.37.08-.27.13-.51.13-.71,0-.64-.35-.96-1.22-.96-.94,0-1.95.37-2.94,2.09-.34-1.52-1.37-2.18-2.8-2.18-1.66,0-3.26,1.07-4.58,2.8s-2.87,2.3-4.04,2.02c.84-2.06,1.15-3.59,1.15-4.73,0-1.79-.88-2.87-2.31-2.87-2.17,0-3.42,2.07-3.42,4.25,0,1.68.76,3.42,2.44,4.26-1.41,3.18-3.46,6.06-4.24,6.06-1.01,0-1.3-4.93-1.25-8.46.04-2.02.2-2.13.2-2.74,0-.35-.23-.59-1.14-.59-2.14,0-2.8,1.81-2.9,3.88-.03.79-.16,1.57-.37,2.33-.89,3.18-2.73,5.6-3.93,5.6-.56,0-.71-.56-.71-1.28,0-2.29,1.28-5.16,1.28-7.6,0-1.8-.79-2.93-2.27-2.93-1.75,0-4.06,2.08-6.25,5.98.72-2.98,1.02-5.87-1.12-5.87-.46,0-.92.12-1.32.34-.28.13-.45.42-.43.73.2,3.18-2.56,11.31-5.18,11.31-.48,0-.71-.52-.71-1.35,0-2.3,1.37-7.14,2.06-9.36.09-.29.14-.54.14-.75,0-.61-.38-.92-1.23-.92-.94,0-1.95.36-2.93,2.08-.34-1.52-1.37-2.18-2.81-2.18-2.36,0-4.99,2.49-6.14,5.74-1.55,4.34-4.67,8.52-8.87,8.52-3.81,0-5.82-3.17-5.82-8.18,0-7.24,5.31-13.15,9.25-13.15,1.88,0,2.78,1.2,2.78,3.04,0,2.23-1.24,3.26-1.24,4.11,0,.26.22.52.64.52,1.71,0,3.73-2.01,3.73-4.76S17,0,13.06,0C6.55,0,0,6.55,0,14.95c0,6.68,3.3,10.71,9,10.71,3.89,0,7.28-3.02,9.12-6.55.21,2.92,1.54,4.45,3.56,4.45,1.8,0,3.26-1.07,4.37-2.96.43,1.97,1.56,2.94,3.04,2.94,1.69,0,3.11-1.07,4.46-3.06-.02,1.56.34,3.04,1.69,3.04.64,0,1.4-.15,1.54-.71,1.43-5.9,4.96-10.72,6.04-10.72.32,0,.41.31.41.67,0,1.6-1.13,4.89-1.13,6.99,0,2.27.96,3.77,2.96,3.77,2.21,0,4.45-2.7,5.95-6.66.47,3.69,1.48,6.67,3.06,6.67,1.94,0,5.4-4.09,7.49-8.42.82.1,2.05.08,3.24-.76-.5,1.28-.8,2.67-.8,4.07,0,4.02,1.92,5.15,3.57,5.15,1.8,0,3.25-1.07,4.37-2.96.37,1.7,1.31,2.93,3.04,2.93,2.7,0,5.05-2.76,5.05-5.03,0-.6-.26-.96-.56-.96ZM23.32,21.33c-1.09,0-1.52-1.1-1.52-2.74,0-2.85,1.95-7.6,4.01-7.6.9,0,1.24,1.06,1.24,2.36,0,2.89-1.85,7.99-3.73,7.99ZM60.72,12.83c-.65-.78-.89-1.83-.89-2.77,0-1.16.42-2.14.93-2.14s.66.5.66,1.2c0,1.16-.42,2.86-.71,3.72ZM69.19,21.33c-1.09,0-1.52-1.26-1.52-2.74,0-2.75,1.95-7.6,4.02-7.6.9,0,1.22,1.05,1.22,2.36,0,2.89-1.82,7.99-3.72,7.99Z"/>
</svg>