<?xml version="1.0" encoding="UTF-8"?>
<svg id="Layer_2" data-name="Layer 2" xmlns="http://www.w3.org/2000/svg" viewBox="0 0 348.14 103.15">
  <defs>
    <style>
      .cls-1 {
        fill: #121210;
      }

      .cls-1, .cls-2, .cls-3, .cls-4, .cls-5, .cls-6, .cls-7 {
        stroke-width: 0px;
      }

      .cls-2 {
        fill: #ea3432;
      }

      .cls-8 {
        stroke: #fff;
        stroke-miterlimit: 10;
        stroke-width: .27px;
      }

      .cls-8, .cls-4 {
        fill: #fff;
      }

      .cls-3 {
        fill: #5b78bb;
      }

      .cls-5 {
        fill: #a2a2a1;
      }

      .cls-6 {
        fill: #3cad49;
      }

      .cls-7 {
        fill: #f4b61a;
      }
    </style>
  </defs>
  <g id="Layer_1-2" data-name="Layer 1">
    <g>
      <path id="path11" class="cls-1" d="M335.25,103.15H12.89c-7.09,0-12.89-5.8-12.89-12.89V12.89C0,5.8,5.8,0,12.89,0h322.35c7.09,0,12.89,5.8,12.89,12.89v77.37c0,7.09-5.8,12.89-12.89,12.89"/>
      <path id="path13" class="cls-5" d="M335.25,0H12.89C5.8,0,0,5.8,0,12.89v77.37c0,7.09,5.8,12.89,12.89,12.89h322.35c7.09,0,12.89-5.8,12.89-12.89V12.89C348.14,5.8,342.34,0,335.25,0ZM335.25,2.06c5.97,0,10.83,4.86,10.83,10.83v77.37c0,5.97-4.86,10.83-10.83,10.83H12.89c-5.97,0-10.83-4.86-10.83-10.83V12.89C2.06,6.92,6.92,2.06,12.89,2.06h322.35"/>
      <path id="path35" class="cls-4" d="M275.77,77.37h4.81v-32.24h-4.81v32.24ZM319.11,56.74l-5.52,13.98h-.16l-5.72-13.98h-5.18l8.59,19.54-4.9,10.87h5.02l13.23-30.4h-5.35ZM291.82,73.7c-1.57,0-3.77-.79-3.77-2.74,0-2.49,2.74-3.44,5.1-3.44,2.11,0,3.11.46,4.4,1.08-.37,2.99-2.94,5.1-5.72,5.1h0ZM292.4,56.03c-3.48,0-7.09,1.54-8.59,4.94l4.27,1.78c.91-1.78,2.61-2.36,4.4-2.36,2.49,0,5.02,1.49,5.06,4.15v.33c-.87-.5-2.74-1.24-5.02-1.24-4.61,0-9.29,2.53-9.29,7.26,0,4.31,3.78,7.09,8,7.09,3.23,0,5.02-1.45,6.14-3.15h.17v2.49h4.65v-12.36c0-5.72-4.28-8.92-9.79-8.92h0ZM262.66,60.66h-6.84v-11.05h6.84c3.6,0,5.64,2.98,5.64,5.53s-2.04,5.53-5.64,5.53ZM262.54,45.13h-11.53v32.24h4.81v-12.21h6.72c5.33,0,10.58-3.86,10.58-10.01s-5.24-10.01-10.58-10.01h0ZM199.67,73.71c-3.32,0-6.11-2.78-6.11-6.61s2.78-6.69,6.11-6.69,5.86,2.82,5.86,6.69-2.58,6.61-5.86,6.61ZM205.19,58.54h-.17c-1.08-1.29-3.16-2.45-5.77-2.45-5.49,0-10.51,4.82-10.51,11.01s5.03,10.93,10.51,10.93c2.62,0,4.69-1.16,5.77-2.49h.17v1.58c0,4.2-2.24,6.44-5.86,6.44-2.95,0-4.78-2.12-5.53-3.9l-4.2,1.74c1.2,2.91,4.4,6.48,9.72,6.48,5.65,0,10.43-3.32,10.43-11.43v-19.69h-4.57v1.79ZM213.09,77.36h4.82v-32.24h-4.82v32.24ZM225.01,66.73c-.12-4.24,3.28-6.4,5.73-6.4,1.91,0,3.53.96,4.07,2.33l-9.81,4.07ZM239.96,63.07c-.91-2.45-3.7-6.98-9.39-6.98s-10.35,4.45-10.35,10.97c0,6.15,4.65,10.97,10.88,10.97,5.03,0,7.94-3.07,9.14-4.86l-3.74-2.49c-1.25,1.83-2.95,3.03-5.4,3.03s-4.2-1.12-5.32-3.32l14.66-6.07-.5-1.25ZM123.12,59.46v4.65h11.13c-.33,2.62-1.2,4.53-2.53,5.86-1.62,1.62-4.16,3.41-8.6,3.41-6.86,0-12.21-5.53-12.21-12.38s5.36-12.38,12.21-12.38c3.7,0,6.4,1.45,8.39,3.32l3.28-3.28c-2.78-2.66-6.48-4.69-11.68-4.69-9.39,0-17.28,7.64-17.28,17.03s7.89,17.03,17.28,17.03c5.07,0,8.89-1.66,11.88-4.78,3.07-3.07,4.03-7.4,4.03-10.89,0-1.08-.08-2.08-.25-2.91h-15.66ZM151.69,73.71c-3.32,0-6.19-2.74-6.19-6.65s2.87-6.65,6.19-6.65,6.19,2.7,6.19,6.65-2.87,6.65-6.19,6.65ZM151.69,56.09c-6.07,0-11.01,4.61-11.01,10.97s4.94,10.97,11.01,10.97,11.01-4.65,11.01-10.97-4.94-10.97-11.01-10.97ZM175.71,73.71c-3.32,0-6.19-2.74-6.19-6.65s2.87-6.65,6.19-6.65,6.19,2.7,6.19,6.65-2.87,6.65-6.19,6.65ZM175.71,56.09c-6.07,0-11.01,4.61-11.01,10.97s4.94,10.97,11.01,10.97,11.01-4.65,11.01-10.97-4.94-10.97-11.01-10.97"/>
      <path id="path37" class="cls-2" d="M53.42,50.09l-27.45,29.14s0,.01,0,.02c.84,3.16,3.73,5.49,7.16,5.49,1.37,0,2.66-.37,3.76-1.02l.09-.05,30.9-17.83-14.47-15.75"/>
      <path id="path39" class="cls-7" d="M81.2,45.13l-.03-.02-13.34-7.73-15.03,13.38,15.08,15.08,13.27-7.66c2.33-1.26,3.91-3.71,3.91-6.54s-1.56-5.25-3.86-6.51"/>
      <path id="path41" class="cls-3" d="M25.96,23.92c-.17.61-.25,1.25-.25,1.91v51.49c0,.66.09,1.3.25,1.91l28.4-28.4-28.4-26.91"/>
      <path id="path43" class="cls-6" d="M53.62,51.58l14.21-14.21-30.87-17.9c-1.12-.67-2.43-1.06-3.83-1.06-3.43,0-6.32,2.33-7.17,5.5,0,0,0,0,0,0l27.66,27.65"/>
      <path id="path33" class="cls-8" d="M122.22,25.22h-7.52v1.86h5.64c-.15,1.52-.76,2.71-1.78,3.58-1.02.87-2.32,1.3-3.86,1.3-1.69,0-3.12-.59-4.29-1.76-1.15-1.19-1.73-2.67-1.73-4.44s.58-3.25,1.73-4.44c1.17-1.17,2.6-1.75,4.29-1.75.87,0,1.69.15,2.45.48.76.33,1.37.78,1.84,1.37l1.43-1.43c-.65-.74-1.47-1.3-2.49-1.71-1.02-.41-2.08-.61-3.23-.61-2.25,0-4.16.78-5.72,2.34-1.56,1.56-2.34,3.49-2.34,5.77s.78,4.21,2.34,5.77c1.56,1.56,3.47,2.34,5.72,2.34,2.37,0,4.25-.76,5.7-2.3,1.28-1.28,1.93-3.01,1.93-5.18,0-.37-.04-.76-.11-1.17h0ZM125.13,18v15.52h9.06v-1.91h-7.07v-4.92h6.37v-1.86h-6.37v-4.92h7.07v-1.91h-9.06ZM146.9,19.91v-1.91h-10.67v1.91h4.34v13.61h1.99v-13.61h4.34ZM156.56,18h-1.99v15.52h1.99v-15.52ZM169.73,19.91v-1.91h-10.67v1.91h4.34v13.61h1.99v-13.61h4.34ZM189.85,20.02c-1.54-1.58-3.43-2.37-5.68-2.37s-4.14.78-5.68,2.34c-1.54,1.54-2.3,3.47-2.3,5.77s.76,4.23,2.3,5.77c1.54,1.56,3.43,2.34,5.68,2.34s4.14-.78,5.68-2.34c1.54-1.54,2.3-3.47,2.3-5.77s-.76-4.2-2.3-5.74ZM179.92,21.32c1.15-1.17,2.56-1.75,4.25-1.75s3.1.58,4.23,1.75c1.15,1.15,1.71,2.65,1.71,4.44s-.56,3.3-1.71,4.44c-1.13,1.17-2.54,1.76-4.23,1.76s-3.1-.59-4.25-1.76c-1.12-1.17-1.69-2.64-1.69-4.44s.56-3.27,1.69-4.44ZM196.89,23.86l-.08-2.99h.08l7.89,12.66h2.08v-15.52h-1.99v9.08l.08,2.99h-.08l-7.54-12.08h-2.43v15.52h1.99v-9.67Z"/>
    </g>
  </g>
</svg>