<?xml version="1.0" encoding="UTF-8"?>
<svg id="Layer_2" data-name="Layer 2" xmlns="http://www.w3.org/2000/svg" viewBox="0 0 29.72 33.96">
  <defs>
    <style>
      .cls-1 {
        fill: #231f20;
        stroke-width: 0px;
      }
    </style>
  </defs>
  <g id="Layer_1-2" data-name="Layer 1">
    <path class="cls-1" d="M14.86,0c-1.17,0-2.12.95-2.12,2.12v1.27c-4.84.98-8.49,5.27-8.49,10.4v1.25c0,3.12-1.15,6.13-3.22,8.46l-.49.55c-.56.62-.69,1.52-.35,2.28s1.1,1.25,1.94,1.25h25.47c.84,0,1.59-.49,1.94-1.25s.21-1.66-.35-2.28l-.49-.55c-2.07-2.33-3.22-5.34-3.22-8.46v-1.25c0-5.13-3.65-9.42-8.49-10.4v-1.27c0-1.17-.95-2.12-2.12-2.12ZM17.86,32.72c.8-.8,1.24-1.88,1.24-3h-8.49c0,1.13.44,2.21,1.24,3s1.88,1.24,3,1.24,2.21-.44,3-1.24Z"/>
  </g>
</svg>