<?xml version="1.0" encoding="UTF-8"?>
<svg id="Layer_2" data-name="Layer 2" xmlns="http://www.w3.org/2000/svg" viewBox="0 0 39.01 39.01">
  <defs>
    <style>
      .cls-1 {
        fill: #231f20;
        stroke-width: 0px;
      }
    </style>
  </defs>
  <g id="Layer_1-2" data-name="Layer 1">
    <g>
      <path class="cls-1" d="M37.66,27.62l-4.1-2.05-9.84,4.92c-1.16.58-2.66.9-4.22.9s-3.06-.32-4.22-.9l-9.84-4.92-4.1,2.05c-1.8.9-1.8,2.37,0,3.27l14.89,7.45c.9.45,2.08.67,3.27.67s2.37-.22,3.27-.67l14.89-7.45c1.8-.9,1.8-2.37,0-3.27Z"/>
      <path class="cls-1" d="M37.66,17.87l-4.1-2.05-9.75,4.88-.08.04c-1.16.58-2.66.9-4.22.9s-3.06-.32-4.22-.9l-.08-.04-9.75-4.88-4.1,2.05c-1.8.9-1.8,2.37,0,3.27l14.89,7.45c.9.45,2.08.67,3.27.67s2.37-.22,3.27-.67l14.89-7.45c1.8-.9,1.8-2.37,0-3.27Z"/>
      <path class="cls-1" d="M1.35,11.39l14.89,7.45c.07.04.15.07.22.1.87.38,1.95.57,3.04.57h0c1.09,0,2.18-.19,3.04-.57.07-.03.15-.06.22-.1l8.41-4.2,1.19-.6,1.19-.6,4.1-2.05c1.8-.9,1.8-2.37,0-3.27L22.77.67c-.9-.45-2.08-.67-3.27-.67s-2.37.22-3.27.67L1.35,8.12c-1.8.9-1.8,2.37,0,3.27Z"/>
    </g>
  </g>
</svg>