<?xml version="1.0" encoding="UTF-8"?>
<svg id="Layer_2" data-name="Layer 2" xmlns="http://www.w3.org/2000/svg" viewBox="0 0 32.5 30.59">
  <defs>
    <style>
      .cls-1 {
        fill: #231f20;
        stroke-width: 0px;
      }
    </style>
  </defs>
  <g id="Layer_1-2" data-name="Layer 1">
    <path class="cls-1" d="M31.76,6.2l-3.42-5.42c-.3-.48-.85-.78-1.43-.78H5.59c-.58,0-1.12.3-1.43.78L.74,6.2c-1.77,2.8-.2,6.68,3.1,7.13.24.03.48.05.72.05,1.56,0,2.95-.68,3.89-1.73.95,1.05,2.34,1.73,3.89,1.73s2.95-.68,3.89-1.73c.95,1.05,2.34,1.73,3.89,1.73s2.95-.68,3.89-1.73c.96,1.05,2.34,1.73,3.89,1.73.24,0,.48-.02.72-.05,3.32-.44,4.89-4.33,3.11-7.13h0ZM28.9,15.23h0c-.32.04-.64.07-.97.07-.74,0-1.45-.11-2.11-.32v7.96H6.69v-7.97c-.67.21-1.39.32-2.13.32-.33,0-.66-.02-.97-.07h0c-.24-.04-.48-.08-.72-.14v11.67c0,2.11,1.71,3.82,3.82,3.82h19.12c2.11,0,3.82-1.71,3.82-3.82v-11.67c-.24.06-.48.11-.73.14Z"/>
  </g>
</svg>