<?xml version="1.0" encoding="UTF-8"?>
<svg id="Layer_2" data-name="Layer 2" xmlns="http://www.w3.org/2000/svg" viewBox="0 0 39.21 39.21">
  <defs>
    <style>
      .cls-1 {
        fill: #231f20;
        stroke-width: 0px;
      }
    </style>
  </defs>
  <g id="Layer_1-2" data-name="Layer 1">
    <path class="cls-1" d="M22.06,2.45c0-1.36-1.1-2.45-2.45-2.45s-2.45,1.1-2.45,2.45v18.59l-5.62-5.62c-.96-.96-2.51-.96-3.47,0s-.96,2.51,0,3.47l9.8,9.8c.96.96,2.51.96,3.47,0l9.8-9.8c.96-.96.96-2.51,0-3.47s-2.51-.96-3.47,0l-5.61,5.62V2.45ZM4.9,26.96c-2.7,0-4.9,2.2-4.9,4.9v2.45c0,2.7,2.2,4.9,4.9,4.9h29.41c2.7,0,4.9-2.2,4.9-4.9v-2.45c0-2.7-2.2-4.9-4.9-4.9h-7.77l-3.47,3.47c-1.91,1.91-5.02,1.91-6.93,0l-3.46-3.47h-7.77ZM33.09,31.25c1.02,0,1.84.82,1.84,1.84s-.82,1.84-1.84,1.84-1.84-.82-1.84-1.84.82-1.84,1.84-1.84Z"/>
  </g>
</svg>