<?xml version="1.0" encoding="UTF-8"?>
<svg id="Layer_2" data-name="Layer 2" xmlns="http://www.w3.org/2000/svg" viewBox="0 0 36.49 36.49">
  <defs>
    <style>
      .cls-1 {
        fill: #231f20;
        stroke-width: 0px;
      }
    </style>
  </defs>
  <g id="Layer_1-2" data-name="Layer 1">
    <path class="cls-1" d="M31.14,5.34C27.7,1.9,23.12,0,18.24,0S8.79,1.9,5.34,5.34C1.9,8.79,0,13.37,0,18.24s1.9,9.45,5.34,12.9c3.45,3.45,8.03,5.34,12.9,5.34s9.45-1.9,12.9-5.34c3.45-3.45,5.34-8.03,5.34-12.9s-1.9-9.45-5.34-12.9ZM22.19,25.95c-.67,1.45-1.74,2.62-2.99,3.3-.76.41-1.56.63-2.3.63-.4,0-.79-.06-1.15-.19-.74-.26-1.28-.78-1.58-1.49-.31-.74-.33-1.64-.06-2.68l2.24-8.61c.12-.45-.25-.87-.71-.82l-1.03.12s-.04,0-.07,0c-.3,0-.55-.23-.56-.54-.01-.3.22-.55.52-.58l6.03-.69s.04,0,.06,0c0,0,.01,0,.02,0,.02,0,.03,0,.05,0,0,0,.01,0,.02,0,.02,0,.03,0,.05,0,0,0,0,0,.01,0,.02,0,.04.01.05.02,0,0,0,0,0,0,.02,0,.04.02.06.03,0,0,0,0,0,0,.02,0,.03.02.05.03,0,0,0,0,.01,0,.01,0,.03.02.04.03,0,0,0,0,.01.01.01.01.03.03.04.04,0,0,0,0,0,0,0,0,0,0,0,0,.01.02.03.03.04.05,0,0,0,0,0,0,0,.01.02.03.03.05,0,0,0,0,0,.01,0,.01.01.03.02.04,0,0,0,.01,0,.02,0,.02.01.03.01.05,0,0,0,0,0,.01,0,.02,0,.04.01.06,0,0,0,0,0,0,0,0,0,0,0,0,0,.02,0,.04,0,.06,0,0,0,.01,0,.02,0,.02,0,.03,0,.05,0,0,0,.01,0,.02,0,.02,0,.03,0,.05,0,0,0,0,0,0l-2.69,10.31c-.11.4-.13.93.34,1.14.61.27,1.69-.08,2.4-1.12.14-.2.38-.31.62-.24.35.1.51.47.37.78ZM19.84,12.05c-1.5,0-2.72-1.22-2.72-2.72s1.22-2.72,2.72-2.72,2.72,1.22,2.72,2.72-1.22,2.72-2.72,2.72Z"/>
  </g>
</svg>