<?xml version="1.0" encoding="UTF-8"?>
<svg id="Layer_2" data-name="Layer 2" xmlns="http://www.w3.org/2000/svg" viewBox="0 0 24.4 38.12">
  <defs>
    <style>
      .cls-1 {
        fill: #231f20;
        stroke-width: 0px;
      }
    </style>
  </defs>
  <g id="Layer_1-2" data-name="Layer 1">
    <g>
      <path class="cls-1" d="M22.34,17.57c-1.55,2.11-3.13,3.22-4.28,4.03-1.31.91-1.86,1.31-2.02,3.44-.07.95-.88,1.67-1.82,1.67h-2.86c-1.07,0-1.92-.93-1.84-1.99.39-4.99,2.33-6.76,4.78-8.48.99-.7,1.85-1.3,2.77-2.55.93-1.26,1.04-2.97.28-4.46-.51-1.01-1.84-2.7-5.02-2.7-4.16,0-5.43,2.62-5.79,4.66-.16.88-.91,1.53-1.8,1.53H1.85c-1.11,0-1.99-.99-1.83-2.09C.81,5.19,4.73,0,12.33,0c4.81,0,8.87,2.35,10.86,6.28,1.87,3.7,1.55,8.02-.85,11.28Z"/>
      <path class="cls-1" d="M16.71,34.14c0,2.19-1.78,3.97-3.98,3.97s-3.97-1.78-3.97-3.97,1.78-3.97,3.97-3.97,3.98,1.78,3.98,3.97Z"/>
    </g>
  </g>
</svg>