<?xml version="1.0" encoding="UTF-8"?>
<svg id="Layer_2" data-name="Layer 2" xmlns="http://www.w3.org/2000/svg" viewBox="0 0 16.64 41.61">
  <defs>
    <style>
      .cls-1 {
        fill: #231f20;
        stroke-width: 0px;
      }
    </style>
  </defs>
  <g id="Layer_1-2" data-name="Layer 1">
    <path class="cls-1" d="M4.16,4.16C4.16,1.86,6.02,0,8.32,0s4.16,1.86,4.16,4.16-1.86,4.16-4.16,4.16-4.16-1.86-4.16-4.16ZM0,16.64c0-1.53,1.24-2.77,2.77-2.77h5.55c1.53,0,2.77,1.24,2.77,2.77v19.42h2.77c1.53,0,2.77,1.24,2.77,2.77s-1.24,2.77-2.77,2.77H2.77c-1.53,0-2.77-1.24-2.77-2.77s1.24-2.77,2.77-2.77h2.77v-16.64h-2.77c-1.53,0-2.77-1.24-2.77-2.77Z"/>
  </g>
</svg>