<?xml version="1.0" encoding="UTF-8"?>
<svg id="Layer_2" data-name="Layer 2" xmlns="http://www.w3.org/2000/svg" viewBox="0 0 252.9 252.86">
  <defs>
    <style>
      .cls-1 {
        fill: #231f20;
        stroke-width: 0px;
      }
    </style>
  </defs>
  <g id="Layer_1-2" data-name="Layer 1">
    <path class="cls-1" d="m229.15,23.71c-31.61-31.61-83.04-31.61-114.66,0-23.74,23.74-30.31,59.37-16.94,89.85L4.22,206.9c-.96.96-1.54,2.23-1.63,3.57L.01,246.84c-.12,1.62.48,3.22,1.63,4.37,1.06,1.06,2.49,1.65,3.97,1.65.13,0,.26,0,.4-.01l36.37-2.57c1.35-.1,2.62-.67,3.58-1.63l11.04-11.04c.85-.85,1.41-1.96,1.58-3.15l3.28-22.21,22.16-3.28c2.45-.36,4.37-2.28,4.73-4.74l3.28-22.16,22.21-3.28c1.19-.18,2.3-.73,3.15-1.58l21.89-21.89c30.49,13.37,66.11,6.8,89.85-16.94,15.32-15.31,23.75-35.67,23.75-57.33s-8.43-42.02-23.75-57.33Zm-21.58,49.05c-7.59,7.59-19.89,7.59-27.47,0s-7.59-19.89,0-27.47c7.59-7.59,19.89-7.59,27.47,0,7.59,7.59,7.59,19.89,0,27.47Z"/>
  </g>
</svg>