<?xml version="1.0" encoding="UTF-8"?>
<svg id="Layer_2" data-name="Layer 2" xmlns="http://www.w3.org/2000/svg" viewBox="0 0 98.23 110.93">
  <defs>
    <style>
      .cls-1 {
        fill: #ef4f2c;
        stroke-width: 0px;
      }
    </style>
  </defs>
  <g id="Layer_1-2" data-name="Layer 1">
    <path id="path2" class="cls-1" d="M67.1,83.01c-.62,5.31-3.84,9.61-8.82,11.74-2.79,1.18-6.53,1.82-9.52,1.63-4.6-.19-8.92-1.33-12.95-3.36-1.39-.77-3.54-2.21-5.18-3.55-.4-.38-.47-.58-.18-.97.13-.23.42-.66,1.01-1.52.9-1.27,1-1.44,1.09-1.6.29-.41.73-.45,1.18-.12q.06.06.1.09t.23.19c.17.13.29.19.32.27,4.32,3.38,9.34,5.3,14.42,5.49,7.04-.09,12.1-3.26,13.04-8.15.96-5.33-3.24-9.97-11.44-12.57-2.59-.77-9.09-3.37-10.29-4.09-5.63-3.29-8.27-7.62-7.88-12.98.58-7.41,7.46-12.93,16.16-12.98,3.86,0,7.76.81,11.45,2.36,1.33.57,3.71,1.85,4.5,2.47.47.35.58.74.28,1.16-.1.26-.38.65-.88,1.49h0c-.72,1.1-.75,1.15-.88,1.39-.26.4-.62.44-1.11.15-3.95-2.69-8.4-4.03-13.27-4.12-6.04.1-10.59,3.7-10.88,8.63-.06,4.43,3.25,7.66,10.42,10.1,14.59,4.7,20.15,10.19,19.09,18.86M49.12,6.5c9.48,0,17.22,8.99,17.6,20.26H31.54c.34-11.27,8.1-20.26,17.58-20.26M98.23,28.89c0-1.18-.91-2.14-2.07-2.14h-22.82c-.58-14.87-11.21-26.76-24.23-26.76s-23.63,11.89-24.2,26.76H2.08c-1.15.03-2.05.96-2.05,2.14v.17h-.03l3.24,71.73c0,.19.04.39.04.62,0,.05,0,.06,0,.14v.11l.02.04c.49,5,4.1,8.99,9.04,9.18v.04h72.78v-.04c5.01-.12,9.11-4.18,9.5-9.24h0l.02-.09v-.14c0-.15.04-.24.04-.39l3.54-72.03h0v-.1"/>
  </g>
</svg>