<?xml version="1.0" encoding="UTF-8"?>
<svg id="Layer_2" data-name="Layer 2" xmlns="http://www.w3.org/2000/svg" xmlns:xlink="http://www.w3.org/1999/xlink" viewBox="0 0 38.76 43.97">
  <defs>
    <style>
      .cls-1 {
        fill: url(#linear-gradient-8);
      }

      .cls-1, .cls-2, .cls-3, .cls-4, .cls-5, .cls-6, .cls-7, .cls-8, .cls-9, .cls-10, .cls-11, .cls-12, .cls-13 {
        stroke-width: 0px;
      }

      .cls-1, .cls-3, .cls-6, .cls-7, .cls-8, .cls-9, .cls-10, .cls-11, .cls-12, .cls-13 {
        fill-rule: evenodd;
      }

      .cls-2 {
        fill: url(#linear-gradient-5);
        opacity: .59;
      }

      .cls-2, .cls-5, .cls-7, .cls-11 {
        isolation: isolate;
      }

      .cls-3 {
        fill: url(#linear-gradient-3);
      }

      .cls-4 {
        fill: #ca5f28;
      }

      .cls-5 {
        fill: url(#linear-gradient-7);
        opacity: .5;
      }

      .cls-6 {
        fill: url(#linear-gradient);
      }

      .cls-7 {
        fill: url(#linear-gradient-9);
        opacity: .71;
      }

      .cls-8 {
        fill: url(#linear-gradient-2);
      }

      .cls-9 {
        fill: #ca5827;
      }

      .cls-10 {
        fill: #ed6b23;
      }

      .cls-11 {
        fill: #fff;
        opacity: .11;
      }

      .cls-12 {
        fill: url(#linear-gradient-6);
      }

      .cls-13 {
        fill: url(#linear-gradient-4);
      }
    </style>
    <linearGradient id="linear-gradient" x1="-765.44" y1="2675.42" x2="-765.24" y2="2673.98" gradientTransform="translate(3368.42 11981.09) scale(4.38 -4.47)" gradientUnits="userSpaceOnUse">
      <stop offset="0" stop-color="#e16625"/>
      <stop offset="1" stop-color="#fdb813"/>
    </linearGradient>
    <linearGradient id="linear-gradient-2" x1="-273.28" y1="3670.65" x2="-271.63" y2="3670.26" gradientTransform="translate(348.79 4551.99) scale(1.24 -1.24)" gradientUnits="userSpaceOnUse">
      <stop offset="0" stop-color="#9b4722"/>
      <stop offset="1" stop-color="#e56525"/>
    </linearGradient>
    <linearGradient id="linear-gradient-3" x1="-269.76" y1="3669.03" x2="-261.35" y2="3669.88" gradientTransform="translate(348.79 4551.99) scale(1.24 -1.24)" gradientUnits="userSpaceOnUse">
      <stop offset="0" stop-color="#f38320" stop-opacity="0"/>
      <stop offset=".59" stop-color="#f38320" stop-opacity=".73"/>
      <stop offset=".82" stop-color="#cb6228"/>
      <stop offset="1" stop-color="#a44023"/>
    </linearGradient>
    <linearGradient id="linear-gradient-4" x1="-273.94" y1="3665.48" x2="-260.48" y2="3661.91" gradientTransform="translate(348.79 4551.99) scale(1.24 -1.24)" gradientUnits="userSpaceOnUse">
      <stop offset="0" stop-color="#a2abb3"/>
      <stop offset=".08" stop-color="#eaeced"/>
      <stop offset="1" stop-color="#c6ccd0"/>
    </linearGradient>
    <linearGradient id="linear-gradient-5" x1="-275.7" y1="3663.41" x2="-257.59" y2="3662.5" gradientTransform="translate(348.79 4551.99) scale(1.24 -1.24)" gradientUnits="userSpaceOnUse">
      <stop offset="0" stop-color="#7a8288"/>
      <stop offset=".53" stop-color="#9fa2a7"/>
      <stop offset="1" stop-color="#7e858c"/>
    </linearGradient>
    <linearGradient id="linear-gradient-6" x1="-270.51" y1="3677.75" x2="-267.07" y2="3676.9" gradientTransform="translate(348.79 4551.99) scale(1.24 -1.24)" gradientUnits="userSpaceOnUse">
      <stop offset="0" stop-color="#a2abb3"/>
      <stop offset=".15" stop-color="#eaeced"/>
      <stop offset="1" stop-color="#c6ccd0"/>
    </linearGradient>
    <linearGradient id="linear-gradient-7" x1="-270.01" y1="3677.92" x2="-267.48" y2="3677.15" gradientTransform="translate(348.17 4551.94) scale(1.24 -1.24)" gradientUnits="userSpaceOnUse">
      <stop offset="0" stop-color="#7a8288"/>
      <stop offset=".08" stop-color="#9fa2a7"/>
      <stop offset="1" stop-color="#7e858c"/>
    </linearGradient>
    <linearGradient id="linear-gradient-8" x1="-283.36" y1="3650.93" x2="-253.13" y2="3650.85" gradientTransform="translate(348.79 4551.99) scale(1.24 -1.24)" gradientUnits="userSpaceOnUse">
      <stop offset="0" stop-color="#fdb813"/>
      <stop offset="1" stop-color="#ffd76c"/>
    </linearGradient>
    <linearGradient id="linear-gradient-9" x1="-583.34" y1="2647.42" x2="-583.38" y2="2647.17" gradientTransform="translate(2572.44 11627.16) scale(4.38 -4.38)" gradientUnits="userSpaceOnUse">
      <stop offset="0" stop-color="#f58120"/>
      <stop offset="1" stop-color="#f8991d"/>
    </linearGradient>
  </defs>
  <g id="Layer_1-2" data-name="Layer 1">
    <g>
      <path class="cls-9" d="M.88,40.93s-.62.67-.78,1.21c-.11.38-.16.95.05,1.28.15.25.35.5.64.5,12.66,0,26.65.02,36.5.05.33,0,.97-.06,1.23-.43.26-.38.26-1.22.07-1.64-.2-.44-1.12-.64-1.12-.64l-36.58-.33Z"/>
      <path class="cls-6" d="M5.55,27.57c-.58,0-1.18.45-1.35,1L.16,41.96c-.17.55.16,1,.74,1h37.26c.44,0,.69-.34.57-.76l-4.19-13.86c-.13-.42-.58-.76-1.02-.76H5.55Z"/>
      <path class="cls-8" d="M19.35,0c-.96,0-1.53.06-2.09.49-.26.19-.46.66-.59.99L6.81,34.04s.23,1.47,1.63,2.81c.94.9,2.72,1.57,3.85,1.81,2.88.62,5.18.77,7.79.73,2.68-.04,5.36-.57,7.93-1.3,3.84-1.1,3.96-4.19,3.96-4.19L21.83.87c-.04-.14-.14-.24-.22-.31C21-.01,20.09,0,19.35,0h0Z"/>
      <path class="cls-3" d="M19.35,0c-.96,0-1.53.06-2.09.49-.26.19-.46.66-.59.99L6.81,34.04s.43,2.82,3.92,4.19c2.42.95,4.91,1.08,8.79,1.12,4.32.05,6.08-.38,8.91-1.36,1.33-.46,2.02-1.07,2.65-1.74.91-.97.89-2.34.89-2.34L21.83.87c-.07-.12-.14-.24-.22-.31C21-.01,20.09,0,19.35,0h0Z"/>
      <path class="cls-13" d="M10.41,22.15l-2.26,7.44c2.74,2.31,6.75,3.76,11.22,3.76s8.52-1.47,11.26-3.79l-2.27-7.4c-2.09,1.67-5.33,2.74-8.97,2.74s-6.9-1.08-8.99-2.76Z"/>
      <path class="cls-2" d="M10.45,22.25l-.13.44c0,.1,0,.19,0,.29-.03,0-.06,0-.08,0l-.12.39h.04s.1.09.15.13c0,.12,0,.25,0,.37-.08,0-.17.02-.25.03,0,0,0,0,0,.01l-.08-.08-.02.06.1.09c0,.07,0,.13,0,.2l-.19.03-.02.08.28-.04c.06.05.11.11.17.16,0,.13,0,.25,0,.37-.08.01-.15.02-.22.03l-.3-.28-.02.06.29.27c0,.07,0,.15,0,.22l-.29.04s0,0,0,0c-.04-.04-.08-.07-.12-.11l-.19.63s0,.1,0,.14c-.01,0-.03,0-.04,0l-.12.39s.1.09.15.14c0,.13,0,.25,0,.38-.08,0-.17,0-.26.02,0,.02,0,.04,0,.05l-.04-.04-.02.06.06.06s0,.09,0,.14l-.12.02-.02.08.2-.03c.06.06.13.11.19.17,0,.13,0,.25,0,.38-.09,0-.17.02-.25.02,0,0,0,.01,0,.02l-.24-.23-.02.06.25.24s0,.09,0,.14l-.38.05-.12.38s.08,0,.12-.01l.35.33c0,.07,0,.14,0,.2l-.35.05c-.06-.06-.12-.11-.17-.16,0-.09,0-.17,0-.26l-.2.65s.07.07.11.1c0,.13,0,.25-.01.38-.08,0-.16.02-.25.03v.04c.16.15.34.29.53.43,0-.08,0-.16.01-.24-.02-.02-.04-.04-.06-.05l.35-.05s0,0,0,0c.08.08.16.15.24.23,0,.12,0,.25,0,.37-.05,0-.11.01-.16.02.15.1.3.21.45.31,0-.02,0-.03,0-.05l.32-.06c.07.06.15.13.22.19,0,.08,0,.17,0,.25.02.01.05.03.07.04,0-.09,0-.19,0-.28.07,0,.14-.02.21-.04l.31.27c0,.08,0,.15,0,.23l-.14.03s.07.04.1.06l.1-.02c.06.05.12.1.18.15,0,0,0,.02,0,.02.02.01.05.02.07.04,0-.02,0-.04,0-.05.06-.01.12-.02.18-.03l.34.28s0,.04,0,.05c.18.08.36.16.55.24,0-.04,0-.09,0-.13l.36-.1c.06.05.13.09.19.14,0,.1,0,.2,0,.31.02,0,.05.02.07.03,0-.11,0-.22,0-.33.05-.01.11-.02.16-.04l.36.27c0,.06,0,.12,0,.18l-.16.05s.08.03.12.04h.05s0-.01,0,0c.02.02.04.03.06.05.11.04.23.07.34.11.04-.01.08-.02.11-.03l.16.12c.06.02.12.03.18.05l-.31-.22c0-.08,0-.15,0-.23,0,0-.01-.01-.02-.02l.35-.12c.07.05.14.1.22.15,0,.12,0,.25,0,.37-.07.02-.14.04-.21.06.21.06.42.11.63.16l.27-.1c.05.03.11.07.16.1,0,.03,0,.06,0,.09.02,0,.05.01.07.02,0-.03,0-.07,0-.1.07-.02.14-.05.21-.07l.33.21s0,.04,0,.06c.18.03.36.07.55.09,0-.03,0-.05,0-.08l.35-.15c.06.04.13.07.19.11,0,.06,0,.13,0,.19.03,0,.05,0,.08,0,0-.07,0-.13,0-.2.06-.02.12-.05.18-.07l.35.2s0,.09,0,.13c.18.02.37.03.55.04,0-.06,0-.11,0-.17l.34-.17c.06.04.13.07.2.11,0,.09,0,.17,0,.26.02,0,.05,0,.07,0,0-.09,0-.18,0-.26.08-.04.16-.08.24-.12,0-.01,0-.03,0-.04l.33.16s-.02,0-.02.01c0,.08,0,.16,0,.24l-.04.02c.07,0,.14,0,.22,0,.13,0,.25,0,.38,0,0,0,0-.01,0-.02l.03.02s.09,0,.14,0l-.17-.08c0-.05,0-.11,0-.16l.31-.17c.08.04.15.07.23.11v.29s.05,0,.08,0v-.29c.08-.04.15-.09.23-.14,0,0,0-.02,0-.02l.31.14c0,.09,0,.18,0,.27,0,0,.01,0,.02.01.17-.01.34-.03.51-.05,0,0,0,0,0,0h0s.1,0,.14-.01l-.15-.06s0-.08,0-.12l.37-.24c.06.02.11.05.16.07,0,.1,0,.2,0,.3.02,0,.05,0,.07-.01,0-.1,0-.2,0-.3.08-.05.16-.09.24-.14,0,0,0-.02,0-.02l.3.12c0,.05,0,.1,0,.16l-.23.15s.1-.02.15-.02l.08-.05s0,.03,0,.04c0,0,0,0,0,0,.21-.03.43-.07.64-.12l-.09-.03v-.21s-.04-.01-.06-.02l.35-.24s0,.04,0,.06c.08.03.16.06.24.08,0,.09,0,.17,0,.26.02,0,.05-.01.07-.02,0-.09,0-.17,0-.26.08-.05.16-.11.25-.16l.3.09c0,.07,0,.13,0,.2.19-.05.37-.1.55-.15v-.13l.32-.25c.07.02.15.04.22.06v.16s.05-.01.07-.02v-.16c.08-.06.15-.12.23-.18,0-.04,0-.07,0-.11l.39.1s-.06.04-.09.07c0,.03,0,.06,0,.09.19-.07.37-.14.55-.21,0,0,0-.02,0-.03,0,0-.02,0-.03,0l.32-.27v.04c.07.02.15.04.22.05.05-.02.11-.05.16-.07.06-.05.11-.09.17-.14,0-.03,0-.06,0-.1l.23.05s.07-.04.11-.05l-.34-.07s0-.07,0-.11c-.02,0-.03,0-.05-.01l.34-.31c.08.02.16.03.24.04,0,.12,0,.24,0,.35.03-.01.05-.03.08-.04,0-.11,0-.22,0-.34.08-.07.16-.14.24-.21,0-.02,0-.04,0-.05l.4.07s-.06.06-.1.08v.15c.21-.12.42-.25.62-.38l.31-.3s.07.01.11.02c.11-.08.22-.15.32-.23,0,0,.01-.01.02-.02,0-.01,0-.03,0-.04h.05s.06-.04.08-.06l-.14-.02s0-.06,0-.1l.35-.36c.06,0,.11.01.17.02,0,.05,0,.1,0,.15.03-.02.05-.04.08-.06,0-.04,0-.08,0-.11.02-.02.04-.04.07-.06l-.15-.5s0,.04,0,.05c-.03.03-.06.06-.09.09l-.44-.05c0-.06,0-.12,0-.19,0,0-.02,0-.03,0l.32-.33s0,.03,0,.04c.04,0,.08,0,.12,0l-.1-.33s-.02.02-.03.03c0,.06,0,.11,0,.17l-.39.39s-.1-.01-.14-.02c0-.13,0-.26,0-.39.07-.07.15-.14.22-.22l.34.04-.02-.08-.31-.03c0-.06,0-.12,0-.18l.19-.2-.02-.06-.2.21c-.07,0-.14-.01-.21-.02,0-.13,0-.26,0-.39.07-.07.15-.14.22-.21h.07s-.02-.07-.02-.07h-.03s0-.08,0-.11l-.04-.13s-.02,0-.03,0l.02-.02-.02-.06-.08.08s-.07,0-.1-.01c0-.13,0-.26-.01-.39.02-.02.05-.04.07-.07l-.16-.51s0,.05,0,.08c-.07.06-.13.13-.2.2l-.32-.03c0-.08,0-.16,0-.24,0,0,0,0-.01,0l.34-.34s.07,0,.1,0l-.12-.4-.32-.03v-.16l.2-.21-.02-.06-.24.25c-.06,0-.12,0-.19-.01,0-.13,0-.26,0-.39.08-.08.16-.16.24-.23h0s.07,0,.07,0l-.03-.08h-.05c0-.06,0-.12,0-.18l-.02-.07-.03.03c-.06,0-.13,0-.19-.01,0-.13,0-.26,0-.39.03-.03.06-.06.09-.09l-.17-.56c0,.05,0,.1,0,.16-.05.05-.1.1-.15.14l-.37-.04c0-.08,0-.17,0-.25,0,0,0,0,0,0l.3-.3s0,.02,0,.02c.05,0,.1.01.15.02l-.11-.35s0,0,0,0l-.34-.04s0,0,0,0c0-.03,0-.06,0-.1-.16.12-.32.23-.48.34.06,0,.11.01.17.02,0,.13,0,.27,0,.4-.06.06-.13.12-.19.18l-.33-.04c0-.07,0-.15,0-.22,0,0,0,0,0,0l.31-.3c-.08.05-.15.1-.23.15l-.15.14s-.05,0-.07-.01c-.13.08-.27.15-.41.23h.03c0,.08,0,.15,0,.22l-.34.31c-.06,0-.13-.02-.19-.03,0-.08,0-.16,0-.25-.02.01-.05.02-.07.03,0,.08,0,.16,0,.24-.06.06-.13.11-.19.16l-.33-.08s0-.07,0-.1c-.18.07-.35.14-.54.21,0,.02,0,.04,0,.07l-.33.28c-.07-.02-.13-.04-.2-.05,0-.04,0-.08,0-.11-.02,0-.04.01-.07.02v.12c-.06.04-.12.09-.18.13l-.33-.1c-.19.05-.38.1-.57.15l-.33.24c-.06-.02-.12-.04-.18-.06v-.07s-.05,0-.07.01v.07c-.08.06-.16.11-.24.17,0,0,0,0,0,0l-.29-.1s0-.03,0-.05c-.18.03-.36.06-.54.08,0,.02,0,.03,0,.05.07.04.15.07.23.1v.38c-.06.04-.13.08-.2.12l-.34-.13s0,0,0,0c0-.09,0-.18,0-.27-.01,0-.02-.01-.04-.02l.33-.22s-.09.01-.14.02l-.26.18s-.08-.03-.12-.05c0-.03,0-.06,0-.08-.02,0-.05,0-.07,0v.09c-.08.05-.16.09-.24.14,0,0,0,0,0,0l-.29-.13s0-.04,0-.05c-.18.01-.36.02-.54.03,0,.01,0,.02,0,.04l-.33.19c-.07-.03-.13-.06-.19-.09,0-.04,0-.08,0-.12-.03,0-.05,0-.08,0,0,.04,0,.08,0,.12-.08.04-.16.08-.23.12l-.29-.15s0-.07,0-.1c-.18,0-.36-.01-.54-.02,0,.02,0,.04,0,.07l-.36.18c-.05-.03-.11-.06-.16-.09,0-.06,0-.13,0-.19-.02,0-.05,0-.07,0,0,.06,0,.13,0,.19-.07.03-.15.07-.22.1l-.32-.18c0-.05,0-.11,0-.16-.18-.02-.36-.04-.54-.07,0,.06,0,.11,0,.17l-.33.14c-.06-.04-.13-.08-.19-.12,0-.09,0-.19,0-.28-.02,0-.05,0-.07-.01,0,.1,0,.19,0,.28-.08.03-.15.06-.22.08l-.32-.22c0-.07,0-.15,0-.22l.06-.02s-.08-.02-.12-.03c0,0,0,0,0,0-.12-.03-.24-.05-.36-.08-.02,0-.04.01-.07.02l-.09-.06c-.05-.01-.11-.03-.16-.04l.2.14c0,.07,0,.14,0,.2l-.33.12c-.06-.04-.13-.09-.19-.14,0-.13,0-.26,0-.39.02,0,.03,0,.05-.01-.08-.02-.16-.05-.23-.07.04.03.07.05.11.08,0,.12,0,.24,0,.36-.07.02-.13.04-.2.06l-.34-.25c0-.05,0-.11,0-.17l.35-.11s-.08-.02-.12-.04l-.26.08c-.06-.05-.13-.1-.19-.15,0-.03,0-.06,0-.09-.02,0-.05-.02-.07-.03,0,.03,0,.07,0,.1-.06.02-.11.03-.16.04l-.37-.29s0-.04,0-.07c-.18-.08-.36-.15-.54-.24,0,.06,0,.12,0,.18,0,0,.02.02.03.02l-.34.08c-.07-.05-.13-.11-.2-.17,0-.12,0-.25,0-.37-.03-.02-.07-.04-.1-.06.01,0,.02.02.03.03,0,.12,0,.24,0,.37-.06.01-.12.02-.18.03l-.37-.32s0-.09,0-.13l.34-.07s-.06-.04-.1-.05l-.25.05s0-.03,0-.04c-.07-.07-.14-.13-.22-.19,0-.03,0-.07,0-.1-.02-.02-.05-.03-.07-.05,0,.04,0,.08,0,.11-.07,0-.13.02-.2.03l-.33-.3c0-.07,0-.13,0-.2-.06-.03-.11-.06-.17-.08h0ZM28.03,22.54l.37.04c0,.05,0,.1,0,.16l-.37.37c-.05,0-.11-.01-.16-.02,0-.13,0-.26,0-.39.05-.05.1-.1.16-.15h0ZM10.6,22.59l.3.27c0,.08,0,.17,0,.25.02.01.03.02.05.04l-.35.06c-.07-.07-.15-.14-.22-.21,0-.13,0-.26,0-.39.07,0,.14-.01.21-.02ZM11.02,23.22s.08.07.12.1c0,.13,0,.25,0,.37-.06,0-.11.02-.17.03l-.36-.32s0-.07,0-.11l.42-.07h0ZM11.39,23.31l.33.29c0,.09,0,.18,0,.27l-.29.06s0,0,0,0c-.07-.06-.15-.13-.22-.19,0-.13,0-.27,0-.4.06,0,.12-.02.18-.03h0ZM27.27,23.33l.3.04c0,.06,0,.12,0,.19l-.4.38s-.09-.01-.13-.02c0-.13,0-.26,0-.39.07-.07.15-.13.23-.2ZM28.07,23.43l.34.04c0,.1,0,.19,0,.28l-.29.29s0,0,0-.01c-.08,0-.16-.02-.24-.03,0-.13,0-.26,0-.39.06-.06.12-.12.19-.18h0ZM10.6,23.48l.29.27s0,0,0,0c0,.09,0,.18,0,.27,0,0,.01.01.02.02l-.34.06c-.06-.06-.13-.12-.2-.18,0-.13,0-.26,0-.39.08,0,.15-.02.23-.03,0,0,0,0,0-.01h0ZM26.75,23.52c.07.01.14.03.21.04,0,.13,0,.26,0,.4-.05.04-.1.09-.15.13l-.37-.06c0-.07,0-.14,0-.22l.31-.28h0ZM27.58,23.62c.07.01.15.02.22.02,0,.13,0,.27,0,.4-.06.05-.12.11-.18.16l-.34-.05c0-.07,0-.14,0-.21-.01,0-.03,0-.04,0l.34-.33h0ZM12.66,23.73s.1.08.15.12c0,.12,0,.25,0,.37-.07.01-.14.03-.21.04l-.33-.27c0-.05,0-.1,0-.16l.39-.1h0ZM28.47,23.76c.06,0,.11.01.17.02,0,.13,0,.27,0,.4-.05.04-.09.09-.14.14l-.38-.05c0-.05,0-.1,0-.16l.35-.35h0ZM13.06,23.82l.34.27s0,0,0,0c0,.09,0,.17,0,.25l-.29.08c-.07-.06-.15-.12-.22-.18,0-.13,0-.26.01-.39.06-.01.12-.02.18-.04h0ZM25.6,23.93l.31.07c0,.07,0,.15,0,.22l-.37.32c-.06-.01-.11-.02-.16-.04v-.39c.07-.06.14-.12.22-.18ZM11.79,23.94c.06.05.12.1.18.15,0,.12,0,.25,0,.37-.05,0-.09.01-.14.02l-.4-.34s0-.09,0-.13l.36-.08ZM12.25,24.06l.29.24v.25s.02.01.02.02l-.34.09c-.07-.05-.13-.11-.2-.16,0-.13,0-.26,0-.39.07-.01.15-.03.22-.04h0ZM25.09,24.09c.07.02.14.03.22.04,0,.13,0,.26,0,.39-.04.03-.08.07-.13.1l-.4-.1c0-.06,0-.12,0-.18l.31-.26h0ZM26.41,24.09l.34.06s0,0,0,0c0,.07,0,.13,0,.19l-.36.33c-.06,0-.11-.02-.16-.03,0-.13,0-.25,0-.38.06-.06.13-.12.2-.18h0ZM10.97,24.1c.05.04.1.09.15.13,0,.12,0,.24,0,.37-.08.01-.16.03-.25.04,0,0,0,.02,0,.02l-.3-.27s0,0,.01,0c0-.08,0-.15,0-.23l.39-.07h0ZM11.41,24.2l.33.29s-.02,0-.03,0c0,.09,0,.18,0,.26l-.3.06c-.07-.07-.15-.13-.22-.19,0-.13,0-.26,0-.39.07-.01.14-.03.21-.04ZM27.28,24.23l.29.04c0,.09,0,.18,0,.26,0,0,.02,0,.03,0l-.34.32c-.07-.01-.14-.02-.21-.04,0-.13,0-.26,0-.39.08-.07.16-.13.23-.2h0s0,0,0,0ZM25.95,24.25c.06.02.13.03.19.04,0,.13,0,.26,0,.38-.05.05-.11.09-.16.14l-.37-.08c0-.06,0-.12,0-.18,0,0,0,0,0,0l.34-.29h0ZM28.09,24.35l.34.04s0,0-.01,0c0,.08,0,.16,0,.24l-.32.31c-.07,0-.14-.02-.21-.03,0-.13,0-.27,0-.4.06-.06.13-.12.2-.18h0ZM23.95,24.39l.29.08c0,.08,0,.17,0,.25l-.35.27c-.06-.01-.12-.03-.18-.04,0-.13,0-.25,0-.38.08-.06.15-.11.24-.18h0ZM13.44,24.4c.06.05.13.09.19.14,0,.12,0,.25,0,.37-.05.01-.1.03-.15.04l-.38-.3c0-.05,0-.11,0-.16l.35-.1h0ZM10.5,24.41l.37.33c0,.06,0,.12,0,.18,0,0,.01,0,.02.01l-.34.06c-.07-.06-.13-.12-.2-.18,0-.13,0-.26,0-.39.05,0,.1,0,.15-.02h0ZM26.75,24.41s0,.01,0,.02c.08.01.15.03.23.04,0,.13,0,.26,0,.39-.04.04-.08.07-.12.11l-.4-.07c0-.07,0-.15,0-.22l.29-.27ZM13.92,24.49l.3.22c0,.08,0,.16,0,.24l-.35.11c-.06-.04-.12-.08-.17-.12,0-.13,0-.26,0-.38.07-.02.15-.04.22-.06h0ZM23.42,24.51c.07.03.14.05.22.07v.38c-.07.05-.14.11-.22.15l-.34-.11s.02-.01.03-.02c0-.08,0-.16,0-.25l.3-.23h0ZM27.68,24.55s.09.01.14.02c0,.13,0,.26,0,.4-.05.04-.1.09-.14.13l-.38-.06s0-.08,0-.12l.38-.36h0ZM24.76,24.6l.34.09s-.02.01-.02.02c0,.07,0,.14,0,.21l-.34.28c-.06-.02-.12-.03-.19-.05,0-.13,0-.25,0-.38.07-.05.14-.11.22-.17h0ZM12.64,24.62c.05.04.1.08.15.12,0,.12,0,.25,0,.37-.06.01-.11.02-.17.03l-.37-.3s0-.09,0-.14l.38-.1h0ZM28.47,24.69c.06,0,.13.02.19.02,0,.13,0,.27,0,.4-.04.03-.07.07-.11.1l-.41-.05c0-.05,0-.1,0-.15l.33-.32ZM13.05,24.71l.34.27s0,0-.01,0c0,.08,0,.15,0,.22l-.33.09c-.06-.05-.12-.1-.19-.15,0-.13,0-.26,0-.39.06-.01.13-.03.19-.04h0ZM15.08,24.72c.07.05.14.1.21.15,0,.12,0,.25,0,.37-.05.02-.1.03-.16.05l-.38-.27c0-.06,0-.13,0-.19l.32-.11ZM24.29,24.74c.06.02.12.04.18.05,0,.12,0,.25,0,.37-.08.06-.15.12-.24.18,0,0,0,0,0,.01l-.29-.08c0-.09,0-.17,0-.27l.34-.27h0ZM22.21,24.78l.35.13c0,.05,0,.1,0,.16l-.37.26c-.05-.02-.11-.04-.16-.06v-.38c.06-.04.11-.07.17-.1h0ZM25.62,24.8l.3.06c0,.07,0,.15,0,.22l-.39.34s-.09-.02-.14-.03c0-.13,0-.25,0-.38.08-.06.16-.13.24-.19,0,0,0-.01,0-.02h0ZM15.57,24.81l.32.22c0,.07,0,.13,0,.2l-.36.14c-.05-.04-.11-.07-.16-.11,0-.13,0-.25,0-.38.07-.02.13-.04.2-.06h0ZM11.77,24.82c.06.05.12.11.18.16,0,.12,0,.24,0,.37-.08.02-.17.03-.25.04l-.33-.29s.03,0,.04,0c0-.07,0-.13,0-.2l.36-.08h0ZM12.25,24.92l.29.24c0,.09,0,.18,0,.27l-.35.09c-.06-.04-.11-.09-.17-.14,0-.13,0-.26,0-.39.08-.01.15-.03.23-.04,0,0,0-.02,0-.03h0ZM16.74,24.95c.07.04.15.09.22.13,0,.12,0,.25,0,.37-.06.02-.12.05-.18.07l-.35-.22c0-.07,0-.14,0-.22l.32-.14h0ZM20.55,24.97l.35.15s0,.07,0,.11l-.43.26s-.06-.03-.1-.04v-.38c.06-.03.12-.07.18-.1ZM26.45,24.97l.34.06s-.02.02-.03.03c0,.1,0,.19,0,.28l-.29.27s0,0,0,0c-.08-.01-.16-.03-.24-.04,0-.13,0-.26,0-.39.07-.06.15-.13.23-.19h0ZM25.09,24.99c.07.02.15.03.22.05,0,.13,0,.26,0,.39-.07.06-.14.11-.2.17l-.33-.09s0,0,0,0c0-.08,0-.17,0-.25l.31-.25h0ZM20.1,24.99c.07.03.14.06.21.09,0,.13,0,.25,0,.38-.06.04-.13.07-.19.11l-.34-.16c0-.08,0-.15,0-.23l.32-.19h0ZM10.96,24.99c.05.04.1.09.16.14,0,.12,0,.25,0,.37-.08.01-.16.03-.24.04l-.29-.26c0-.07,0-.15,0-.22l.38-.07h0ZM17.25,25l.31.18c0,.06,0,.11,0,.17l-.39.18s-.08-.05-.13-.08c0-.12,0-.25,0-.38.07-.03.14-.06.21-.08h0ZM14.27,25c.06.05.13.09.19.14,0,.12,0,.24,0,.37-.06.02-.13.04-.19.05l-.34-.26c0-.06,0-.13,0-.19l.35-.11h0ZM18.4,25.02s0,0,0,.01c.08.05.16.09.24.13,0,.12,0,.25,0,.37-.06.03-.12.05-.18.08l-.35-.19c0-.09,0-.17,0-.26,0,0,0,0,0,0l.29-.14h0ZM18.89,25.06l.35.17c0,.06,0,.13,0,.19l-.35.19c-.06-.03-.12-.05-.18-.08,0-.13,0-.25,0-.38.06-.03.12-.06.18-.1h0ZM23.01,25.06l.39.13c0,.06,0,.12,0,.18l-.33.24c-.07-.02-.13-.05-.2-.07,0-.13,0-.25,0-.38.05-.03.09-.06.14-.1h0ZM14.73,25.08l.33.24s0,0-.01,0c0,.07,0,.15,0,.22l-.34.12c-.06-.04-.12-.09-.18-.13,0-.13,0-.26,0-.39.07-.02.13-.04.2-.06h0ZM22.61,25.1c.07.02.13.04.2.07,0,.13,0,.25,0,.37-.07.05-.14.1-.22.15l-.31-.11c0-.08,0-.16,0-.24,0,0,0,0-.01,0l.34-.24h0ZM11.3,25.12l.4.35v.16l-.32.07c-.07-.05-.13-.11-.2-.16,0-.13,0-.27,0-.4.04,0,.07-.01.11-.02h0ZM27.3,25.12l.31.05s0,0-.01,0c0,.09,0,.19,0,.28l-.34.32c-.06-.01-.13-.02-.19-.03,0-.13,0-.26,0-.39.08-.07.16-.13.24-.2,0-.01,0-.02,0-.04h0ZM25.93,25.14c.07.02.14.04.22.05,0,.13,0,.26,0,.39-.07.06-.15.13-.23.19l-.29-.07c0-.08,0-.17,0-.26-.01,0-.02,0-.04,0l.34-.29h0ZM10.09,25.15c.06.06.12.11.18.17,0,.12,0,.25,0,.37-.07,0-.15.02-.22.02l-.33-.31s0,0,0,0c0-.06,0-.13,0-.2l.36-.06h0ZM28.15,25.24l.34.04s-.03.03-.04.04c0,.08,0,.16,0,.24l-.32.31c-.07,0-.14-.02-.21-.03,0-.13,0-.26,0-.39.08-.07.16-.14.24-.22,0,0,0,0,0,0h0ZM13.4,25.27c.07.06.15.11.22.16,0,.12,0,.25,0,.37-.04.01-.08.02-.12.03l-.41-.32c0-.05,0-.1,0-.16l.32-.09h0ZM15.93,25.28c.06.04.13.09.2.13,0,.12,0,.25,0,.37-.06.02-.12.04-.18.06l-.36-.24c0-.06,0-.13,0-.19,0,0,0,0,0,0l.34-.13h0ZM20.9,25.3s0,.01,0,.02c.08.04.16.07.24.1,0,.13,0,.25,0,.37-.08.05-.15.09-.23.13l-.3-.14c0-.08,0-.16,0-.25-.02,0-.05-.02-.07-.03l.35-.22ZM10.52,25.31l.34.31c0,.06,0,.13,0,.19l-.35.06c-.06-.05-.11-.1-.16-.15,0-.13,0-.26,0-.39.06,0,.12,0,.18-.02ZM21.36,25.31l.37.15c0,.06,0,.12,0,.18l-.34.23c-.06-.02-.13-.05-.19-.08v-.38c.05-.03.1-.06.16-.1h0ZM23.89,25.33l.35.1c0,.06,0,.11,0,.17l-.36.28c-.06-.01-.11-.03-.17-.05,0-.12,0-.25,0-.37.06-.04.12-.09.18-.13h0ZM16.38,25.34l.34.22c0,.06,0,.12,0,.18l-.36.15c-.05-.03-.1-.07-.16-.1,0-.13,0-.26,0-.39.06-.02.12-.04.18-.07h0ZM28.98,25.34l.32.03s-.01.01-.02.02c0,.08,0,.17,0,.25l-.38.38c-.05,0-.11,0-.16-.01,0-.13,0-.26,0-.39.08-.08.16-.16.24-.24v-.04h0ZM26.83,25.35c.05,0,.1.02.16.03,0,.13,0,.27,0,.4-.06.05-.13.11-.19.16l-.34-.07s0,0,0,0c0-.06,0-.13,0-.19l.36-.33h0ZM13.91,25.37l.29.22c0,.08,0,.16,0,.24l-.36.11c-.05-.04-.11-.08-.16-.12,0-.13,0-.26,0-.39.08-.02.15-.04.23-.06ZM23.43,25.41c.07.02.14.04.21.06,0,.13,0,.25,0,.38-.06.05-.12.09-.18.13l-.35-.12c0-.07,0-.15,0-.23l.32-.24h0ZM9.64,25.41l.37.34c0,.07,0,.13,0,.2l-.33.05c-.07-.06-.13-.12-.19-.18,0-.13,0-.26.01-.4.05,0,.09,0,.14-.02h0ZM17.58,25.42c.07.04.15.08.22.12v.37c-.07.03-.14.06-.21.1l-.33-.2c0-.07,0-.14,0-.21-.01,0-.02-.02-.03-.02l.35-.16h0ZM19.69,25.45l.37.18v.11l-.4.23s-.08-.04-.12-.06c0-.13,0-.25,0-.38.05-.03.1-.05.16-.08h0ZM19.29,25.45c.06.03.12.06.18.09v.37c-.07.04-.14.07-.2.1l-.33-.16c0-.07,0-.14,0-.21l.35-.2ZM18.04,25.46l.35.19c0,.07,0,.15,0,.22l-.32.16c-.07-.03-.14-.07-.2-.11v-.39c.06-.02.11-.05.17-.07ZM27.66,25.47c.06,0,.11.01.17.02,0,.13,0,.26,0,.39-.07.07-.14.13-.21.2l-.31-.05c0-.08,0-.15,0-.24l.35-.33h0ZM12.59,25.49c.06.05.12.1.19.14,0,.13,0,.25,0,.37-.09.02-.17.03-.26.05v.03l-.29-.24s0,0,0,0c0-.09,0-.17,0-.26l.35-.09h0ZM24.71,25.55l.38.1s0,.1,0,.14l-.37.3c-.06-.01-.11-.03-.16-.05,0-.13,0-.25,0-.38.05-.04.1-.08.15-.12h0ZM13.08,25.59l.34.27s-.03,0-.05.01c0,.07,0,.14,0,.22l-.33.1c-.06-.05-.12-.1-.18-.15,0-.13,0-.26,0-.39.07-.02.15-.03.22-.05h0s0,0,0,0ZM15.06,25.6c.07.05.15.1.22.15,0,.12,0,.25,0,.37-.05.02-.1.03-.15.05l-.39-.27c0-.06,0-.13,0-.19l.31-.11h0ZM28.47,25.62c.07,0,.14.02.2.02,0,.14,0,.27,0,.41-.06.06-.12.11-.18.16l-.35-.05c0-.08,0-.16,0-.24l.32-.31h0ZM24.29,25.64c.06.02.12.03.19.05,0,.13,0,.26,0,.38-.07.06-.14.11-.22.16l-.32-.09c0-.08,0-.15,0-.24l.34-.26h0ZM22.24,25.64l.33.12c0,.07,0,.13,0,.2l-.36.25c-.06-.02-.11-.04-.17-.06,0-.13,0-.25,0-.38.06-.04.13-.08.2-.12h0ZM15.59,25.68l.29.2c0,.07,0,.14,0,.21l-.39.15s-.09-.06-.13-.09c0-.13,0-.26,0-.39.08-.02.15-.05.23-.07,0,0,0,0,0,0h0ZM21.75,25.7c.07.03.14.06.22.08,0,.13,0,.26,0,.38-.06.04-.12.08-.19.12l-.35-.14v-.24l.31-.21h0ZM11.73,25.7c.07.06.14.12.21.18,0,.12,0,.25,0,.37-.07.01-.14.02-.22.04l-.33-.29s0,0,0,0c0-.08,0-.15.01-.23l.33-.07h0ZM25.58,25.77l.35.08c0,.07,0,.14,0,.2.01,0,.02,0,.03,0l-.34.29c-.07-.02-.15-.03-.22-.05,0-.13,0-.25,0-.38.06-.05.12-.1.18-.15h0ZM16.72,25.81s0,0,0,.01c.08.05.16.09.24.14,0,.12,0,.25,0,.37-.05.02-.1.04-.15.06l-.38-.24c0-.07,0-.15,0-.22l.29-.13h0ZM20.07,25.81v.05c.07.03.15.07.23.1,0,.13,0,.25,0,.38-.06.03-.11.06-.17.09l-.37-.17c0-.08,0-.16,0-.24-.01,0-.03-.01-.04-.02l.33-.19h0ZM20.56,25.85l.34.15v.18l-.37.23c-.05-.02-.11-.05-.16-.07v-.37c.07-.04.13-.08.19-.11h0ZM12.16,25.86l.36.29v.16l-.36.09c-.05-.04-.11-.08-.16-.13,0-.13,0-.26,0-.39.05,0,.1-.02.15-.03h0ZM25.09,25.87s0,.01,0,.02c.08.02.15.04.23.06,0,.13,0,.26,0,.39-.06.05-.11.09-.17.14l-.36-.09v-.25s0,0-.01,0l.3-.25h0ZM10.91,25.87c.06.05.12.11.18.16,0,.12,0,.24,0,.37-.08.01-.16.03-.24.04l-.3-.27c0-.08,0-.15,0-.23l.35-.07ZM17.25,25.88l.3.18c0,.08,0,.15,0,.23l-.36.17c-.06-.03-.11-.07-.17-.11v-.38c.07-.03.15-.06.22-.08h0ZM14.26,25.88c.06.05.13.09.19.14,0,.13,0,.25,0,.37-.05.02-.1.03-.15.04l-.38-.28c0-.05,0-.11,0-.16l.35-.11h0ZM18.43,25.92c.07.04.13.08.2.11,0,.12,0,.25,0,.37-.06.03-.11.05-.16.08l-.37-.2c0-.07,0-.13,0-.2l.33-.16h0ZM18.91,25.92l.32.16v.14l-.43.24s-.07-.03-.1-.05v-.37c.07-.03.14-.07.21-.11h0ZM23.04,25.92l.37.12c0,.06,0,.13,0,.19l-.33.24c-.07-.02-.13-.04-.2-.06,0-.13,0-.26,0-.39.05-.04.11-.07.16-.11h0ZM26.39,25.95l.38.07c0,.07,0,.14,0,.21l-.31.28c-.08-.02-.15-.03-.22-.04,0-.13,0-.26,0-.39.05-.04.1-.09.15-.13h0ZM14.73,25.96l.33.24s-.02,0-.02,0v.19l-.37.13c-.05-.04-.1-.07-.15-.11,0-.13,0-.26,0-.39.07-.02.14-.04.21-.06h0ZM22.63,25.99c.06.02.12.04.18.06,0,.13,0,.25,0,.38-.07.05-.14.1-.21.14l-.32-.11c0-.08,0-.15,0-.23l.34-.25h0ZM11.31,26.01l.37.32v.19l-.33.07c-.06-.05-.13-.11-.19-.16,0-.13,0-.26,0-.39.05,0,.09-.02.14-.02h0ZM10.04,26.02c.07.06.14.13.21.19,0,.13,0,.25-.01.37-.06,0-.12.02-.18.02l-.35-.33c0-.07,0-.14,0-.21l.33-.06h0ZM26.03,26.08s.09.02.13.03c0,.13,0,.26,0,.39-.07.05-.14.11-.2.16l-.33-.08c0-.06,0-.11,0-.17l.39-.33h0ZM27.28,26.1l.33.05c0,.07,0,.14,0,.21l-.35.33c-.06-.01-.12-.02-.18-.03,0-.13,0-.26,0-.39.07-.06.13-.11.2-.17h0ZM15.9,26.15c.07.05.15.1.23.15,0,.12,0,.25,0,.37-.06.02-.11.04-.17.06l-.37-.24c0-.06,0-.12,0-.18,0,0-.02-.01-.03-.02l.34-.13h0ZM13.38,26.16c.07.06.15.11.23.17,0,.12,0,.25,0,.37-.07.02-.15.04-.22.06l-.34-.27s.02,0,.03,0c0-.08,0-.16,0-.24l.31-.09h0ZM21.37,26.19l.36.14c0,.07,0,.14,0,.2l-.32.22c-.07-.03-.14-.05-.2-.08,0-.13,0-.25,0-.38.05-.03.11-.07.16-.1h0ZM23.93,26.2l.33.09v.17l-.39.3s-.09-.03-.14-.04c0-.12,0-.25,0-.37.07-.05.13-.1.2-.15h0ZM10.51,26.2l.33.3c0,.07,0,.13,0,.2l-.37.07c-.05-.05-.1-.09-.15-.14,0-.13,0-.26.01-.4.06,0,.12-.01.18-.02h0ZM16.4,26.21l.34.21s-.01,0-.02,0v.24l-.32.14c-.07-.04-.14-.08-.2-.12,0-.13,0-.26,0-.39.07-.03.14-.05.21-.08h0ZM20.95,26.23c.06.03.13.05.19.08,0,.13,0,.25,0,.38-.06.04-.13.07-.19.11l-.34-.15c0-.07,0-.14,0-.21l.34-.21h0ZM28.09,26.23l.37.05c0,.06,0,.13,0,.19l-.35.33c-.06,0-.12-.02-.18-.02,0-.13,0-.26,0-.39.05-.05.11-.1.17-.15h0ZM13.91,26.24l.31.23s-.01,0-.02,0c0,.08,0,.15,0,.22l-.39.12s-.09-.07-.13-.1c0-.13,0-.26,0-.39.08-.02.15-.04.23-.06,0-.01,0-.02,0-.03ZM26.81,26.26c.06.01.12.02.19.03,0,.13,0,.27,0,.4-.05.05-.1.09-.16.13l-.37-.07c0-.07,0-.13,0-.2l.33-.3h0ZM19.23,26.29v.02c.08.04.16.08.24.12v.37c-.06.03-.13.07-.19.1l-.34-.17c0-.07,0-.14,0-.21-.02-.01-.04-.02-.06-.03l.36-.2h0ZM23.44,26.3c.07.02.14.05.21.07,0,.13,0,.26,0,.38-.06.04-.12.08-.17.12l-.36-.12v-.22l.31-.23h0ZM9.65,26.31l.34.32c0,.07,0,.15,0,.22l-.33.06c-.06-.05-.12-.11-.18-.16,0-.14,0-.27,0-.41.06,0,.12-.01.18-.02h0ZM19.73,26.31l.34.16v.21l-.34.2c-.06-.03-.12-.06-.18-.09v-.39c.06-.03.12-.06.18-.1ZM17.61,26.32c.06.03.12.07.19.1,0,.12,0,.25,0,.37-.06.03-.11.05-.17.08l-.36-.21c0-.06,0-.11,0-.18l.35-.17h0ZM18.05,26.33l.34.19c0,.05,0,.1,0,.15l-.4.2s-.09-.05-.13-.07v-.38c.06-.03.13-.06.19-.08h0ZM28.97,26.34l.33.03c0,.08,0,.16,0,.24,0,0,.01,0,.02,0l-.34.34c-.07,0-.15-.01-.22-.02,0-.13,0-.26,0-.39.07-.07.14-.13.21-.2h0ZM12.58,26.38c.06.05.13.1.19.15,0,.12,0,.24,0,.37-.08.02-.16.03-.24.05l-.3-.24c0-.08,0-.16,0-.24l.35-.09ZM27.67,26.39c.06,0,.11.01.18.02,0,.13,0,.27,0,.4-.06.05-.12.11-.18.17l-.35-.06v-.2l.35-.32h0ZM24.75,26.43l.35.09c0,.09,0,.18,0,.26l-.29.24h0c-.08-.03-.16-.05-.24-.07,0-.13,0-.26,0-.38.06-.04.12-.09.18-.14h0ZM15.04,26.47h0c.08.07.16.12.24.17,0,.13,0,.25,0,.37-.04.01-.07.02-.11.04l-.42-.29c0-.06,0-.12,0-.18,0,0,0,0,0,0l.3-.11h0ZM12.96,26.5l.39.31s0,.09,0,.14l-.36.1c-.05-.04-.1-.08-.16-.12,0-.13,0-.26,0-.39.04,0,.08-.02.12-.03ZM24.27,26.53c.07.02.14.04.22.06,0,.13,0,.25,0,.38-.07.05-.13.1-.2.15l-.33-.1c0-.07,0-.15,0-.22-.01,0-.02,0-.03,0l.33-.26h0ZM22.26,26.53l.32.12c0,.07,0,.14,0,.2l-.36.25c-.05-.02-.11-.04-.16-.06,0-.13,0-.25,0-.38.07-.04.14-.08.21-.13h0ZM28.46,26.54c.08.01.15.02.23.03,0,.14,0,.27,0,.4-.05.05-.09.09-.14.14l-.38-.06c0-.08,0-.15,0-.22l.3-.29h0ZM15.58,26.55l.29.2h0c0,.09,0,.18,0,.26l-.35.14c-.06-.04-.12-.08-.18-.12,0-.13,0-.25,0-.38.08-.02.16-.05.23-.07,0,0,0-.01,0-.02h0ZM11.7,26.59c.07.06.14.12.22.18,0,.12,0,.25,0,.37-.07.01-.13.03-.2.04l-.35-.3c0-.07,0-.15.01-.23l.32-.07ZM21.77,26.59c.07.03.14.06.21.08v.38c-.05.03-.1.06-.15.09l-.38-.15c0-.06,0-.13,0-.2l.32-.21ZM29.4,26.62s.09.01.14.02c0,.13,0,.27.01.4-.06.06-.11.11-.17.17l-.36-.04c0-.05,0-.1,0-.16l.38-.39h0ZM25.62,26.65l.31.08v.24s0,0,0,0l-.34.29c-.07-.01-.13-.03-.19-.04,0-.13,0-.25,0-.38.07-.06.15-.12.22-.17h0ZM20.6,26.72l.31.13c0,.08,0,.15,0,.23l-.35.22c-.06-.02-.12-.05-.18-.08,0-.13,0-.25,0-.38.08-.04.15-.08.23-.13h0ZM16.74,26.72c.07.04.14.08.21.12,0,.12,0,.25,0,.37-.05.02-.09.04-.14.06l-.4-.25c0-.06,0-.11,0-.17l.32-.14ZM17.26,26.73l.29.17c0,.06,0,.12,0,.18l-.43.2s-.07-.04-.1-.06c0-.12,0-.25,0-.38.08-.03.16-.06.23-.09,0,0,0-.02,0-.02h0ZM18.39,26.74s0,.03,0,.05c.07.05.15.09.23.13v.37s-.09.04-.13.06l-.4-.22c0-.07,0-.14,0-.21-.01,0-.03-.01-.04-.02l.33-.16h0ZM12.18,26.74l.33.27c0,.05,0,.11,0,.16l-.39.1s-.09-.07-.13-.11c0-.13,0-.26,0-.39.06-.01.12-.03.18-.04h0ZM14.22,26.75c.07.05.15.1.22.16,0,.12,0,.24,0,.37-.08.02-.16.05-.25.07,0,0,0,.01,0,.02l-.3-.22c0-.09,0-.18,0-.26,0,0-.01,0-.02-.02l.34-.11h0ZM20.08,26.75c.08.03.15.07.23.1v.37c-.05.03-.1.06-.16.09l-.38-.18c0-.07,0-.14,0-.21l.3-.18h0ZM10.88,26.76c.06.05.13.11.19.16,0,.12,0,.25,0,.37-.07.01-.14.02-.2.04l-.34-.3c0-.07,0-.14,0-.21l.35-.07h0ZM18.93,26.8l.3.15c0,.07,0,.14,0,.22l-.37.2c-.05-.03-.11-.05-.16-.08,0-.12,0-.25,0-.37.08-.04.15-.08.23-.12h0ZM25.16,26.8c.06.01.11.03.17.04,0,.13,0,.26,0,.39-.05.04-.1.08-.16.12l-.37-.1v-.17l.35-.29h0ZM23.06,26.81l.36.12c0,.06,0,.12,0,.18l-.36.26c-.06-.02-.11-.04-.17-.06,0-.13,0-.25,0-.38.06-.04.11-.08.18-.12h0ZM26.44,26.82l.34.06v.24l-.32.28c-.07-.01-.15-.03-.22-.04,0-.13,0-.25,0-.38.06-.05.13-.11.19-.16h0ZM14.74,26.83l.35.24s-.04.01-.06.02c0,.08,0,.16,0,.23l-.33.12c-.07-.05-.13-.09-.2-.14,0-.13,0-.26,0-.39.08-.02.15-.04.22-.06,0,0,0-.01,0-.02ZM22.62,26.89c.06.02.13.04.2.06,0,.13,0,.25,0,.38-.06.04-.12.08-.18.12l-.36-.13c0-.06,0-.13,0-.19l.33-.24h0ZM11.3,26.91l.37.31c0,.06,0,.11,0,.17l-.36.08c-.05-.05-.11-.09-.16-.14,0-.13,0-.26,0-.39.05,0,.1-.02.15-.03h0ZM10.01,26.92c.07.06.14.13.22.2,0,.13,0,.25,0,.37-.09.01-.17.02-.26.03,0,0,0,.01,0,.02l-.34-.31s.04,0,.06,0c0-.08,0-.16,0-.24l.32-.06h0ZM26.01,26.98c.05.01.11.03.17.04,0,.13,0,.26,0,.39-.06.05-.12.11-.19.16l-.34-.08c0-.06,0-.13,0-.19l.36-.3h0ZM27.32,26.99l.31.05c0,.07,0,.14,0,.21l-.38.35c-.05,0-.1-.02-.15-.03,0-.13,0-.26,0-.39.08-.07.15-.13.23-.2h0ZM13.35,27.02s0,0,0,.01c.08.06.16.12.24.18,0,.12,0,.25,0,.37-.07.02-.13.03-.19.05l-.35-.27c0-.09,0-.17,0-.26l.29-.08h0ZM21.41,27.06l.35.13s0,0-.01,0c0,.07,0,.14,0,.22l-.33.22c-.06-.02-.13-.05-.19-.07,0-.13,0-.25,0-.38.07-.04.13-.08.2-.12h0ZM15.93,27.06c.06.04.13.08.19.12,0,.12,0,.24,0,.36-.05.02-.1.04-.15.06l-.39-.26s0-.09,0-.14l.35-.14h0ZM16.4,27.09l.34.21s-.02,0-.04.01c0,.05,0,.1,0,.15l-.39.17s-.09-.05-.13-.08c0-.13,0-.25,0-.38.07-.03.14-.06.22-.08h0ZM23.95,27.09l.32.09c0,.08,0,.16,0,.24,0,0,.02,0,.03,0l-.34.26c-.07-.02-.15-.04-.22-.06,0-.12,0-.25,0-.38.07-.05.15-.11.22-.16h0ZM10.52,27.1l.3.26c0,.07,0,.13,0,.2l-.39.08s-.09-.08-.13-.12c0-.13,0-.26,0-.39.08,0,.15-.02.23-.03ZM20.96,27.12c.06.03.12.05.18.08v.37c-.06.04-.12.07-.18.11l-.35-.15c0-.06,0-.13,0-.19l.35-.21h0ZM28.14,27.12l.34.05s0,0,0,0c0,.1,0,.19,0,.28l-.29.27s0,0,0,0c-.08-.01-.16-.02-.24-.03,0-.13,0-.26,0-.39.07-.06.13-.12.2-.18h0ZM17.55,27.15s0,.01,0,.02c.08.04.16.09.24.13,0,.12,0,.24,0,.37-.06.02-.11.05-.16.07l-.37-.21c0-.06,0-.11,0-.17-.02-.01-.05-.03-.07-.04l.36-.17h0ZM13.83,27.17l.36.26c0,.06,0,.12,0,.18l-.35.11c-.06-.04-.12-.08-.18-.13,0-.13,0-.26,0-.39.05-.01.11-.03.16-.04ZM26.82,27.18c.06.01.13.02.19.04,0,.13,0,.26.01.4-.05.04-.1.08-.15.13l-.37-.07c0-.06,0-.13,0-.19l.33-.29h0ZM23.42,27.18s0,0,0,.01c.08.02.15.05.24.08,0,.13,0,.26,0,.39-.05.03-.09.06-.14.09l-.39-.13v-.22l.29-.21h0ZM19.74,27.2l.34.16s0,0-.01,0v.22l-.33.19c-.07-.03-.13-.06-.2-.09v-.38c.07-.03.14-.07.2-.1ZM18.08,27.2l.34.18s-.02.01-.03.02v.21l-.34.17c-.06-.03-.13-.07-.19-.1,0-.13,0-.25,0-.38.07-.03.14-.06.22-.1h0ZM19.27,27.22c.06.03.13.06.2.09,0,.12,0,.25,0,.37-.05.03-.11.06-.16.09l-.37-.19c0-.06,0-.12,0-.18,0,0,0,0,0,0l.34-.18ZM9.55,27.23l.41.38s0,.08,0,.11l-.36.06c-.05-.05-.1-.09-.16-.14,0-.13,0-.27.01-.4.03,0,.06,0,.1-.01h0ZM29.02,27.24l.3.03s0,.1,0,.14l-.45.45s-.05,0-.08,0c0-.13,0-.26,0-.39.08-.08.16-.15.24-.23,0,0,0,0,0,0h0ZM12.53,27.24c.07.06.14.11.22.17,0,.13,0,.25,0,.37-.08.02-.15.03-.23.05l-.31-.25c0-.08,0-.15,0-.23-.01,0-.02-.01-.03-.02l.35-.09h0ZM27.66,27.3c.06.01.13.02.2.03,0,.13,0,.27,0,.4-.06.05-.11.1-.17.16l-.36-.06c0-.07,0-.13,0-.2,0,0-.01,0-.02,0l.34-.31h0ZM24.77,27.32l.34.09s0,0,0,0c0,.08,0,.16,0,.24l-.32.26c-.07-.02-.15-.04-.22-.06,0-.13,0-.25,0-.38.07-.05.13-.1.2-.14h0ZM15.06,27.38c.07.05.14.09.21.14,0,.13,0,.25,0,.37-.08.02-.15.05-.22.07l-.33-.23s0,0,.01,0c0-.08,0-.15,0-.23l.33-.12h0ZM12.98,27.39l.37.29c0,.07,0,.14,0,.21l-.32.09c-.07-.05-.13-.1-.2-.15,0-.13,0-.26,0-.4.05-.01.1-.02.15-.03ZM22.28,27.39l.3.11c0,.07,0,.14,0,.21l-.39.27s-.09-.03-.14-.05v-.38c.08-.05.15-.1.23-.15,0,0,0,0,0-.01h0ZM15.57,27.41l.32.22s-.02,0-.02,0c0,.06,0,.12,0,.18l-.43.16s-.06-.04-.09-.06c0-.12,0-.25,0-.38.08-.03.16-.05.24-.08,0-.01,0-.03,0-.04h0ZM24.36,27.45s.09.02.13.04c0,.13,0,.26,0,.38-.06.04-.11.08-.17.12l-.37-.11s0-.08,0-.13l.39-.31h0ZM11.66,27.46s0,0,0,0c.08.07.16.14.24.2,0,.12,0,.25,0,.37-.06,0-.11.02-.17.03l-.37-.31c0-.08,0-.15,0-.23l.3-.06h0ZM28.54,27.47c.05,0,.11.01.16.02,0,.13,0,.27,0,.4-.05.04-.09.09-.14.13l-.39-.06s0-.1,0-.15l.35-.34h0ZM21.76,27.48c.07.03.14.06.22.08,0,.13,0,.25,0,.38-.05.03-.09.06-.14.09l-.4-.16c0-.06,0-.12,0-.19l.31-.21h0ZM29.32,27.5s0,.03,0,.04c.08.01.16.02.24.03,0,.13,0,.27.01.4-.05.05-.11.11-.16.16l-.37-.04c0-.07,0-.13,0-.2-.03,0-.06,0-.09,0l.38-.37ZM16.71,27.53s0,.03,0,.05c.08.04.16.09.24.14,0,.12,0,.25,0,.37-.03.01-.07.03-.1.04l-.43-.26c0-.06,0-.12,0-.19,0,0-.02-.01-.03-.02l.33-.14h0ZM25.64,27.54l.31.07c0,.08,0,.16,0,.24l-.34.29c-.06-.01-.12-.03-.19-.04,0-.13,0-.25,0-.38.07-.06.15-.12.23-.18h0ZM20.61,27.59l.3.13c0,.08,0,.16,0,.23l-.36.22c-.06-.02-.11-.05-.17-.07,0-.12,0-.25,0-.37.08-.05.16-.09.24-.14h0s0,0,0,0ZM17.25,27.6l.3.18s0,0,0,0c0,.08,0,.16,0,.24l-.37.18c-.05-.03-.1-.06-.16-.09,0-.13,0-.25,0-.38.08-.03.15-.06.23-.09,0-.01,0-.02,0-.03h0ZM10.83,27.63c.07.06.15.13.22.19,0,.12,0,.25,0,.37-.08.01-.17.03-.26.04,0,.01,0,.02,0,.03l-.31-.27s.01,0,.02,0c0-.09,0-.18.01-.27,0,0-.02-.02-.03-.02l.34-.07h0ZM12.17,27.63l.33.26c0,.07,0,.15,0,.22l-.35.09c-.06-.05-.12-.09-.18-.14,0-.13,0-.26,0-.39.06-.01.13-.03.2-.04h0ZM20.09,27.64c.07.03.14.06.22.09,0,.13,0,.26,0,.38-.04.02-.08.04-.12.07l-.41-.19c0-.05,0-.11,0-.16l.31-.19h0ZM18.93,27.65l.3.15c0,.09,0,.18,0,.26l-.36.2c-.06-.03-.11-.06-.17-.08v-.38c.08-.04.16-.08.24-.12,0,0,0-.02,0-.02h0ZM14.25,27.67c.06.04.12.08.18.12,0,.12,0,.25,0,.37-.08.02-.15.05-.23.07l-.31-.23c0-.07,0-.15.01-.22l.35-.12h0ZM18.4,27.68c.07.04.15.08.23.12,0,.13,0,.25,0,.37-.04.02-.08.04-.12.06l-.42-.22c0-.06,0-.12,0-.17l.31-.16h0ZM23.1,27.68l.35.12s-.01,0-.02.01c0,.09,0,.19,0,.28l-.29.21s0-.01,0-.02c-.08-.02-.16-.05-.23-.08,0-.13,0-.25,0-.38.07-.05.14-.1.21-.14h0ZM25.14,27.7c.06.02.13.03.2.04,0,.13,0,.26,0,.39-.04.03-.08.07-.13.1l-.4-.1c0-.05,0-.11,0-.16l.33-.27h0ZM26.46,27.73l.34.07s0,0,0,0c0,.07,0,.14,0,.21l-.35.3c-.07-.01-.13-.02-.19-.03,0-.13,0-.26,0-.39.07-.05.13-.11.2-.17ZM14.64,27.76l.38.26s0,.07,0,.11l-.4.14s-.08-.06-.12-.09c0-.13,0-.26,0-.39.05-.01.09-.03.14-.04h0ZM22.6,27.77c.07.03.15.05.22.08v.38c-.06.04-.11.08-.17.11l-.37-.13c0-.06,0-.12,0-.18-.01,0-.02,0-.03-.01l.34-.24h0ZM11.32,27.8l.33.29s0,0,0,0c0,.08,0,.16,0,.24l-.32.07c-.07-.06-.13-.11-.2-.17,0-.13,0-.27,0-.4.06-.01.13-.02.19-.03ZM9.96,27.8c.08.07.16.15.24.22,0,.13,0,.25,0,.38-.08.01-.15.02-.23.03l-.33-.3s.01,0,.02,0c0-.09,0-.18,0-.27l.3-.05ZM15.86,27.88s0,.01,0,.02c.08.05.16.1.24.15,0,.13,0,.25,0,.37-.08.03-.17.06-.24.08,0,0,0,0,0,0l-.3-.2c0-.08,0-.17,0-.26-.02-.01-.04-.03-.06-.04l.35-.14h0ZM26.01,27.88c.06.01.12.03.18.04,0,.13,0,.25,0,.38-.05.04-.1.09-.16.13l-.38-.09c0-.05,0-.11,0-.16l.35-.29h0ZM27.34,27.9l.3.05c0,.09,0,.18,0,.27,0,0,.02,0,.02,0l-.34.31c-.07-.01-.15-.03-.22-.04,0-.13,0-.26,0-.39.08-.07.16-.13.24-.2,0,0,0,0,0,0h0ZM21.42,27.94l.35.14s-.01,0-.02.01c0,.06,0,.12,0,.18l-.36.24c-.06-.02-.11-.04-.17-.07v-.38c.07-.04.14-.09.21-.13h0ZM9.14,27.94c.07.07.14.14.22.21,0,.12,0,.25-.01.37-.08,0-.16.02-.25.02l-.29-.27c0-.09,0-.18,0-.27,0,0-.02-.01-.02-.02l.35-.04h0ZM13.37,27.94c.07.05.14.1.21.16,0,.12,0,.25,0,.37-.06.02-.13.04-.19.05l-.35-.27c0-.07,0-.14,0-.21l.33-.1h0ZM16.41,27.94l.37.22s-.05.02-.07.03c0,.07,0,.14,0,.21l-.34.15c-.06-.04-.12-.07-.19-.11,0-.13,0-.26,0-.38.08-.03.15-.06.23-.09,0,0,0-.02,0-.02h0ZM23.97,27.95l.3.09c0,.09,0,.18,0,.27l-.33.26c-.07-.02-.13-.03-.2-.05,0-.13,0-.25,0-.38.08-.06.16-.12.24-.18,0,0,0-.01,0-.02h0ZM20.95,28c.06.03.13.06.19.08v.37c-.05.03-.1.06-.15.09l-.38-.17c0-.05,0-.11,0-.16,0,0,0,0,0,0l.34-.21h0ZM10.42,28.02l.38.33c0,.05,0,.11,0,.16l-.35.07c-.06-.05-.11-.1-.17-.15,0-.13,0-.27,0-.4.05,0,.09-.01.14-.02ZM28.16,28.04l.35.05s-.01.01-.02.02c0,.04,0,.09,0,.13l-.42.39s-.07,0-.11-.01c0-.13,0-.26,0-.39.07-.06.14-.13.21-.19ZM13.84,28.05l.33.24s0,.09,0,.14l-.43.14s-.07-.05-.1-.07c0-.13,0-.26,0-.39.06-.02.13-.04.19-.06h0ZM19.76,28.06l.34.16s-.03.02-.04.02v.22l-.34.19c-.06-.03-.13-.06-.19-.09,0-.13,0-.26,0-.39.07-.04.15-.07.22-.12ZM18.08,28.08l.35.19s-.03.01-.04.02c0,.08,0,.15,0,.23l-.32.16c-.07-.04-.14-.08-.21-.12v-.37c.08-.04.16-.07.23-.11,0,0,0,0,0,0h0ZM17.59,28.08c.06.03.12.07.19.11v.37s-.09.04-.13.06l-.4-.23s0-.09,0-.14c0,0,0,0,0,0l.34-.16h0ZM26.8,28.08c.07.02.15.03.23.04,0,.13,0,.27.01.4-.04.03-.08.06-.12.1l-.41-.08v-.2l.29-.26h0ZM19.28,28.1c.06.03.12.06.18.09,0,.13,0,.25,0,.37-.05.03-.1.05-.15.08l-.38-.19c0-.05,0-.1,0-.15l.35-.19h0ZM23.49,28.11c.05.02.11.04.16.05,0,.13,0,.26,0,.39-.04.03-.08.06-.13.08l-.4-.14s0-.08,0-.12l.36-.26h0ZM9.56,28.14l.39.35c0,.06,0,.12,0,.19l-.32.06c-.07-.06-.13-.12-.2-.18,0-.14,0-.27,0-.41.04,0,.08,0,.12-.02h0ZM29.03,28.16l.31.04c0,.09,0,.18,0,.27l-.34.34c-.07,0-.13-.01-.19-.02,0-.13,0-.26,0-.38.08-.08.16-.15.24-.23,0,0,0,0,0-.01h0ZM12.56,28.17c.06.05.12.09.18.14,0,.12,0,.24,0,.36-.07.02-.13.03-.2.05l-.35-.27c0-.06,0-.12,0-.18l.37-.1h0ZM24.81,28.2l.33.09s-.02.02-.03.02c0,.08,0,.16,0,.24l-.32.26c-.07-.02-.14-.04-.22-.06,0-.13,0-.25,0-.38.08-.05.16-.11.24-.17h0ZM15.02,28.2s0,.03,0,.05c.08.05.16.11.24.16,0,.12,0,.25,0,.37-.06.02-.12.04-.18.06l-.35-.25c0-.08,0-.17,0-.25-.01,0-.02-.02-.03-.03l.33-.12h0ZM27.73,28.23s.1.02.15.02c0,.13,0,.26,0,.39-.04.04-.09.08-.14.12l-.39-.07s0-.08,0-.12l.38-.35h0ZM22.28,28.27l.3.11h0c0,.1,0,.19,0,.27.01,0,.02,0,.03.01l-.34.24c-.07-.03-.15-.06-.22-.08,0-.13,0-.25,0-.38.08-.05.16-.1.23-.15,0,0,0-.01,0-.02h0ZM12.98,28.28l.35.27s0,.09,0,.14l-.4.11s-.08-.06-.12-.1c0-.13,0-.26,0-.39.06-.01.11-.03.17-.04h0ZM28.49,28.31s0,.05,0,.08c.07.01.16.03.23.04,0,.13,0,.27.01.4-.03.03-.07.06-.1.09l-.43-.07c0-.07,0-.13,0-.2-.02,0-.04,0-.06,0l.35-.33h0ZM24.34,28.34c.05.02.11.03.16.04,0,.13,0,.25,0,.38-.05.04-.1.08-.16.12l-.38-.11s0-.1,0-.15l.37-.28h0ZM21.74,28.34h0c.07.04.15.07.24.1v.38s-.07.04-.11.07l-.43-.17c0-.06,0-.12,0-.18l.3-.2ZM15.5,28.35l.35.24c0,.06,0,.11,0,.17l-.36.14c-.06-.04-.11-.07-.17-.11,0-.13,0-.25,0-.38.06-.02.12-.04.18-.06h0ZM11.68,28.39c.07.06.14.11.21.17,0,.12,0,.25,0,.37-.08.02-.16.03-.25.05,0,0,0,0,0,0l-.34-.29s.03,0,.05-.01c0-.07,0-.15,0-.22l.34-.08h0ZM25.66,28.41l.31.08s0,0,0,0c0,.08,0,.16,0,.24l-.37.31c-.05-.01-.1-.03-.16-.04,0-.13,0-.25,0-.38.08-.06.16-.12.23-.19,0,0,0-.02,0-.03h0ZM20.61,28.44l.31.14s0,0-.01,0c0,.08,0,.15,0,.22l-.39.24s-.09-.04-.14-.06v-.38c.08-.05.16-.09.24-.13,0-.01,0-.03,0-.04h0ZM17.25,28.45l.33.19s-.03.01-.04.02c0,.09,0,.17,0,.25l-.36.17c-.06-.03-.11-.07-.17-.1,0-.13,0-.25,0-.38.08-.03.15-.06.23-.09,0-.02,0-.04,0-.06h0ZM16.72,28.47c.07.04.14.09.22.13,0,.13,0,.25,0,.37-.07.03-.13.05-.2.08l-.34-.2s0,0,.01,0c0-.08,0-.16,0-.24l.32-.14h0ZM29.4,28.48c.06,0,.11.02.17.02,0,.13,0,.27,0,.4-.04.04-.09.08-.13.12l-.4-.05s0-.1,0-.15l.35-.35h0ZM14.17,28.5s0,0,0,0c.08.06.17.11.25.17,0,.12,0,.25,0,.37-.07.02-.14.04-.21.06l-.33-.24c0-.07,0-.15.01-.22-.02-.01-.04-.03-.06-.04l.35-.11h0ZM12.18,28.52l.3.23c0,.06,0,.11,0,.17l-.43.11s-.06-.05-.09-.07c0-.13,0-.26,0-.39.08-.02.15-.03.22-.05h0ZM20.08,28.52c.07.03.15.07.22.1,0,.13,0,.25,0,.37-.04.02-.08.04-.11.06l-.43-.2c0-.05,0-.1,0-.15l.31-.18h0ZM18.92,28.52l.31.15s0,0-.01,0c0,.08,0,.17,0,.25l-.31.17-.22-.11v-.32c.08-.04.16-.08.23-.12,0,0,0-.02,0-.03h0ZM18.41,28.57c.07.04.14.08.22.11v.33l-.13.07-.42-.22s0-.08,0-.12l.32-.16h0ZM23.12,28.57l.34.11s-.02.01-.03.02v.25l-.31.22c-.07-.02-.14-.05-.22-.08,0-.13,0-.25,0-.38.07-.05.14-.1.22-.15h0ZM10.85,28.57c.06.05.12.1.18.15,0,.12,0,.25,0,.37-.09.01-.17.03-.25.05,0,0,0,0,0,0l-.29-.25c0-.08,0-.17,0-.25l.36-.07ZM25.14,28.6c.07.02.14.03.21.05,0,.13,0,.26,0,.39-.04.03-.08.06-.12.09l-.41-.12c0-.05,0-.1,0-.16l.32-.26h0ZM26.51,28.61l.34.07s-.02.02-.04.03c0,.1,0,.19,0,.28,0,0,0,0,0,0l-.29.25h0c-.08-.03-.16-.04-.24-.06,0-.13,0-.25,0-.38.08-.07.16-.13.24-.2h0ZM14.66,28.63l.35.24v.21l-.34.12c-.06-.04-.12-.08-.18-.12,0-.13,0-.26,0-.39.06-.02.11-.03.17-.05h0ZM22.69,28.69s.09.03.14.05c0,.13,0,.25,0,.38-.05.03-.09.06-.14.09l-.4-.14s0-.07,0-.1l.39-.27h0ZM11.21,28.71l.41.35s0,.06,0,.08l-.39.09s-.09-.07-.13-.1c0-.13,0-.26.01-.4.03,0,.07-.01.1-.02ZM9.98,28.75c.07.06.13.12.2.18,0,.13,0,.25,0,.38-.07.01-.15.02-.22.03l-.34-.3s.01,0,.02,0c0-.07,0-.15,0-.22l.34-.06h0ZM13.32,28.76s0,.03,0,.05c.08.06.16.11.24.17,0,.13,0,.25,0,.38-.05.01-.1.03-.15.04l-.39-.29c0-.07,0-.15,0-.23-.01,0-.02-.02-.03-.02l.33-.1h0ZM25.99,28.78c.07.02.14.03.21.05,0,.13,0,.26,0,.38-.05.04-.1.08-.14.12l-.4-.1v-.17s0,0-.01,0l.34-.28h0ZM27.36,28.78l.31.06s0,.01-.02.02v.16l-.45.41s-.05-.01-.08-.02c0-.13,0-.25,0-.38.08-.07.16-.13.24-.2,0-.01,0-.03,0-.04h0ZM21.45,28.8l.35.14s-.03.02-.05.03v.27l-.3.2s0-.01,0-.02c-.08-.03-.16-.06-.23-.09v-.38c.08-.04.15-.09.23-.14,0,0,0,0,0,0h0ZM15.9,28.81c.06.04.13.08.2.12,0,.12,0,.25,0,.37-.07.03-.14.05-.21.08l-.33-.22c0-.07,0-.15,0-.22,0,0,0,0,0,0l.34-.13h0ZM23.98,28.84l.31.09s0,0,0,0c0,.09,0,.18,0,.27l-.35.27c-.06-.02-.13-.04-.19-.06,0-.13,0-.25,0-.38.08-.06.16-.11.24-.17,0,0,0-.02,0-.03h0ZM20.92,28.87c.07.03.14.07.22.1,0,.12,0,.25,0,.37-.05.03-.09.06-.14.08l-.4-.18c0-.05,0-.1,0-.16,0,0-.02,0-.03-.01l.34-.21h0ZM16.32,28.88l.37.23v.19l-.33.14c-.07-.04-.14-.08-.2-.12,0-.13,0-.25,0-.38.05-.02.1-.04.15-.06h0ZM9.16,28.89c.06.05.12.11.18.16,0,.13-.01.25-.01.38-.08,0-.15.02-.23.02l-.31-.3c0-.07,0-.14,0-.21l.36-.05ZM10.42,28.92l.35.31s0,.07,0,.11l-.43.09s-.07-.05-.1-.08c0-.13,0-.27,0-.4.06,0,.11-.01.17-.02h0ZM18.08,28.92l.35.19h-.03v.26l-.36.18c-.06-.03-.12-.07-.18-.1v-.38c.07-.03.15-.07.22-.1,0-.01,0-.02,0-.03ZM28.21,28.93l.35.06s-.04.03-.05.05c0,.08,0,.16,0,.24l-.32.3c-.07-.01-.14-.02-.21-.03,0-.13,0-.26,0-.39.08-.07.15-.14.24-.21h0s0,0,0,0ZM19.76,28.93l.35.17s-.04.02-.05.03c0,.06,0,.13,0,.19l-.37.21c-.06-.03-.11-.05-.17-.08v-.38c.08-.04.16-.08.24-.12h0s0-.01,0-.01ZM13.84,28.93l.32.23c0,.07,0,.14,0,.2l-.37.12c-.05-.04-.11-.08-.16-.12,0-.13,0-.25.01-.38.07-.02.13-.04.2-.06h0ZM17.59,28.96c.06.03.12.07.19.1v.36c-.08.04-.16.07-.24.11l-.31-.17c0-.08,0-.16,0-.24l.35-.16h0ZM19.27,28.98c.06.03.13.06.19.09v.38s-.08.04-.12.06l-.39-.2v-.16l.32-.17ZM23.47,28.99c.06.02.13.04.19.06,0,.13,0,.26,0,.39-.03.02-.06.04-.1.06l-.44-.14v-.12l.34-.24h0ZM12.47,29s0,0,0,0c.08.07.17.13.25.2,0,.12,0,.25,0,.37-.09.02-.17.04-.25.06,0,0,0,.02,0,.03l-.3-.24s0,0,.01,0c0-.09,0-.18,0-.27-.02-.02-.04-.03-.06-.05l.36-.1h0ZM26.87,29.01c.05.01.11.02.17.03,0,.13,0,.26.01.39-.03.03-.07.06-.1.09l-.43-.09s0-.07,0-.11l.36-.31ZM9.55,29.04l.38.34s0,.08,0,.12l-.4.08s-.08-.07-.12-.11c0-.13,0-.27.01-.4.04,0,.09-.01.13-.02h0ZM29.05,29.06l.33.04s-.02.01-.02.02c0,.07,0,.14,0,.2l-.42.41s-.08-.01-.12-.02c0-.13,0-.26,0-.39.08-.07.16-.15.24-.22,0-.01,0-.03,0-.04h0ZM24.83,29.09l.34.09s-.03.02-.05.04c0,.07,0,.14,0,.2l-.35.28c-.06-.02-.12-.04-.18-.06,0-.13,0-.25,0-.38.08-.06.16-.11.24-.17h0ZM27.65,29.09v.05c.08.01.16.03.24.04,0,.13,0,.27,0,.4-.04.04-.08.07-.12.11l-.4-.08c0-.05,0-.1,0-.15-.03,0-.06-.01-.1-.02l.38-.35h0ZM22.29,29.12l.33.12s-.02.01-.03.02c0,.09,0,.18,0,.27l-.34.24c-.06-.02-.13-.05-.19-.07,0-.13,0-.25,0-.38.08-.05.16-.1.23-.15,0-.02,0-.04,0-.05h0ZM15.02,29.14c.07.05.15.1.22.15,0,.12,0,.24,0,.37-.06.02-.12.04-.18.06l-.37-.25c0-.07,0-.14,0-.22l.31-.11h0ZM12.99,29.16l.34.26s-.02,0-.03,0c0,.07,0,.14,0,.21l-.34.1c-.06-.05-.12-.09-.18-.14,0-.13,0-.27,0-.4.07-.02.13-.03.2-.05ZM29.91,29.16l.36.04s-.04.04-.06.06c0,.1,0,.19,0,.28l-.29.29c-.08-.01-.16-.02-.24-.04,0-.13,0-.26,0-.39.08-.07.16-.15.24-.22,0,0,0-.02,0-.02h0ZM8.75,29.2l.32.31s0,.1,0,.14l-.43.06s-.07-.06-.1-.1c0-.13,0-.27.01-.4.06,0,.13-.01.2-.02h0ZM11.62,29.22s0,.03,0,.04c.08.07.16.13.24.2,0,.12,0,.25,0,.37-.07.01-.15.03-.22.04l-.34-.28s0,0,0,0c0-.09,0-.19.01-.28,0,0-.02-.02-.03-.02l.33-.07h0ZM15.53,29.22l.32.22c0,.07,0,.15,0,.22l-.35.13c-.06-.04-.12-.08-.18-.12,0-.13,0-.25,0-.38.07-.02.14-.05.21-.07h0ZM24.34,29.23c.06.02.12.04.18.05,0,.13,0,.25,0,.38-.04.03-.09.06-.13.1l-.41-.12v-.13l.36-.27h0ZM21.82,29.27c.05.02.11.04.17.06v.39s-.06.04-.1.06l-.44-.17s0-.06,0-.09l.37-.24h0ZM25.67,29.31l.32.08s-.01,0-.02.01c0,.09,0,.19,0,.28,0,0,.02,0,.02,0l-.34.28c-.07-.02-.14-.04-.22-.05,0-.13,0-.25-.01-.38.08-.06.16-.12.24-.19v-.04ZM20.61,29.32l.32.14s-.02,0-.02.01c0,.09,0,.18,0,.27.01,0,.02.01.03.02l-.34.21c-.08-.03-.15-.07-.22-.1v-.38c.08-.04.16-.09.24-.13,0-.01,0-.03,0-.04h0ZM28.54,29.32c.07.01.13.03.2.03,0,.14,0,.27,0,.4-.03.03-.06.05-.09.08l-.44-.08s0-.09,0-.14l.33-.3h0ZM16.72,29.36c.07.04.14.08.21.12,0,.13,0,.25,0,.38-.06.02-.12.05-.18.07l-.37-.22c0-.06,0-.13,0-.2l.33-.14h0ZM18.95,29.38l.32.16s-.03.02-.05.02c0,.08,0,.15,0,.22l-.39.21s-.09-.04-.13-.07v-.39l.25-.13v-.02h0ZM20.07,29.38s0,0,0,.01c.07.03.15.07.24.11v.38s-.05.03-.08.04l-.46-.21c0-.05,0-.11,0-.16l.3-.17h0ZM29.36,29.4s0,0,0,0c.07.01.15.02.23.03,0,.13,0,.27,0,.4-.04.04-.08.08-.12.11l-.41-.06s0-.1,0-.15c-.02,0-.04,0-.06,0l.35-.34h0ZM10.77,29.41s0,0,0,.01c.08.07.17.13.25.2,0,.12,0,.25-.01.37-.08.01-.16.03-.24.04l-.3-.26c0-.08,0-.17,0-.24-.02-.02-.04-.04-.06-.05l.35-.07h0ZM17.2,29.41l.34.19c0,.06,0,.13,0,.2l-.36.16c-.06-.03-.11-.07-.16-.1,0-.12,0-.25,0-.37.06-.03.13-.05.19-.08ZM18.43,29.42l.19.1v.4c-.07.03-.14.07-.21.1l-.34-.19h0c0-.08,0-.16,0-.23l.35-.18h0ZM14.21,29.43c.06.05.13.1.19.14,0,.12,0,.24,0,.36-.06.02-.12.04-.18.06l-.36-.26c0-.06,0-.13,0-.19l.35-.11h0ZM23.14,29.43l.36.12s-.04.03-.06.04c0,.08,0,.16,0,.24l-.31.22c-.07-.02-.14-.05-.22-.07,0-.13,0-.25,0-.38.08-.05.15-.1.23-.16v-.02h0ZM12.09,29.44l.37.29c0,.05,0,.1,0,.16l-.36.1c-.05-.04-.1-.08-.16-.12,0-.13,0-.26,0-.39.05,0,.1-.02.15-.03h0ZM25.13,29.49c.08.02.15.04.23.06,0,.13,0,.26,0,.39-.03.02-.06.04-.08.06l-.45-.12c0-.05,0-.1,0-.15l.3-.24h0ZM26.52,29.51l.35.07s-.03.03-.05.04c0,.04,0,.09,0,.13l-.42.36s-.07-.01-.11-.02c0-.13,0-.26,0-.38.08-.06.16-.13.24-.2,0,0,0,0,0,0h0ZM14.66,29.51l.34.24c0,.08,0,.15,0,.23l-.32.12c-.07-.05-.14-.09-.2-.14,0-.13,0-.26,0-.39.06-.02.12-.04.18-.06h0ZM22.66,29.56c.05.02.11.04.16.06,0,.13,0,.25,0,.38-.04.03-.08.05-.12.08l-.41-.15s0-.08,0-.12l.36-.25h0ZM9.92,29.57s0,.03,0,.04c.08.07.16.14.25.21,0,.13,0,.25-.01.38-.06,0-.13.02-.19.03l-.35-.31c0-.09,0-.17,0-.26,0,0-.02-.02-.02-.02l.32-.06h0ZM11.23,29.61l.38.32c0,.06,0,.12,0,.18l-.33.08c-.06-.05-.12-.1-.19-.15,0-.13,0-.26,0-.4.05,0,.09-.02.14-.02h0ZM21.45,29.68l.37.15s-.04.02-.06.04c0,.08,0,.17,0,.25l-.31.2c-.08-.03-.15-.06-.22-.09,0-.13,0-.25,0-.38.08-.05.15-.1.23-.14,0,0,0-.01,0-.02h0ZM27.37,29.69l.33.06s-.02.02-.03.02c0,.09,0,.18,0,.27l-.35.31c-.06-.01-.12-.03-.18-.04,0-.13,0-.26,0-.39.08-.07.16-.13.24-.2,0-.02,0-.03,0-.05h0ZM15.9,29.7c.06.04.13.08.19.11,0,.13,0,.25,0,.37-.07.03-.13.05-.2.07l-.34-.22c0-.07,0-.13,0-.2l.35-.14h0ZM26.07,29.7s.09.02.14.03c0,.13,0,.26,0,.39-.04.03-.07.06-.11.09l-.43-.11s0-.05,0-.08l.39-.32h0ZM23.98,29.71l.33.1s-.02.02-.03.02c0,.08,0,.17,0,.25l-.37.28c-.05-.02-.11-.03-.16-.05,0-.12,0-.25,0-.37.08-.06.16-.12.24-.17v-.06ZM13.32,29.71c.07.05.15.1.23.16,0,.12,0,.25,0,.37-.08.02-.16.05-.24.07l-.34-.26s.03,0,.04,0c0-.08,0-.16,0-.24l.31-.09h0ZM16.34,29.75l.34.21v.22l-.33.14c-.07-.04-.14-.07-.2-.11,0-.13,0-.26,0-.39.06-.02.12-.04.18-.07h0ZM19.76,29.78l.39.18s-.06.03-.1.05v.27l-.29.16s0,0,0,0c-.08-.04-.16-.07-.24-.11v-.38c.08-.04.15-.08.24-.12,0-.02,0-.03,0-.05h0ZM21,29.79s.09.04.14.06c0,.13,0,.25,0,.37-.03.02-.07.04-.1.06l-.43-.19s0-.04,0-.06l.39-.24h0ZM13.85,29.8l.3.21c0,.09,0,.17,0,.26l-.35.12c-.06-.04-.12-.08-.18-.12,0-.13,0-.26,0-.38.08-.02.15-.04.23-.07,0,0,0,0,0-.01h0ZM10.42,29.82l.34.29c0,.06,0,.13,0,.19l-.37.07c-.05-.05-.11-.09-.16-.14,0-.13,0-.26.01-.39.06,0,.12-.02.18-.03ZM26.82,29.83s0,.05,0,.08c.08.01.15.03.23.04,0,.13,0,.27,0,.4-.02.02-.05.04-.08.06l-.46-.1c0-.06,0-.11,0-.17-.02,0-.04,0-.06-.01l.35-.31h0ZM17.58,29.84c.06.04.13.07.2.1,0,.12,0,.25,0,.37-.07.03-.14.06-.2.09l-.34-.2c0-.07,0-.13,0-.2,0,0,0,0,0,0l.35-.16h0ZM28.22,29.84l.36.06s-.04.04-.06.05c0,.06,0,.12,0,.18l-.38.35s-.1-.01-.15-.02c0-.13,0-.26,0-.4.08-.07.15-.14.24-.21,0,0,0-.01,0-.02h0ZM19.24,29.85c.07.04.14.07.22.11v.37c-.07.04-.15.08-.22.11l-.32-.16c0-.08,0-.16,0-.24,0,0-.02,0-.03-.01l.34-.19h0ZM18,29.87l.37.2v.17l-.36.18c-.06-.03-.11-.06-.16-.09,0-.13,0-.26,0-.39.05-.02.1-.05.16-.07h0ZM23.47,29.88c.07.02.13.04.2.06,0,.13,0,.26,0,.38-.03.02-.06.04-.08.06l-.45-.15v-.12l.33-.24h0ZM9.55,29.94l.35.31c0,.07,0,.14,0,.22l-.34.06c-.06-.05-.12-.11-.18-.16,0-.13,0-.27.01-.41.05,0,.11-.02.16-.02ZM12.51,29.95c.06.05.13.1.2.15,0,.12,0,.24,0,.37-.09.02-.17.04-.26.06l-.29-.23c0-.08,0-.17,0-.25l.35-.1h0ZM24.83,29.95l.38.1s-.05.04-.08.06c0,.09,0,.18,0,.27l-.29.23c-.09-.03-.16-.05-.24-.07,0-.13,0-.25,0-.38.08-.06.16-.11.24-.17,0-.01,0-.03,0-.04h0ZM29.07,29.98l.34.04s-.02.02-.04.03c0,.1,0,.2,0,.29,0,0,.01,0,.02,0l-.34.33c-.07,0-.15-.02-.22-.03,0-.13,0-.26,0-.39.08-.07.16-.14.24-.22,0-.02,0-.04,0-.06h0ZM22.29,30.01l.34.12s-.02.01-.04.02c0,.09,0,.18,0,.27l-.35.24c-.06-.02-.12-.05-.18-.07,0-.12,0-.25,0-.38.08-.05.16-.09.23-.14,0-.02,0-.04,0-.06h0ZM15.02,30.04c.07.05.15.09.22.14,0,.12,0,.25,0,.37-.05.02-.1.03-.14.05l-.4-.27c0-.06,0-.11,0-.17l.33-.12h0ZM27.72,30.06c.06.01.12.02.18.03,0,.13,0,.27,0,.4-.03.03-.06.06-.1.08l-.44-.08v-.12l.35-.31h0ZM12.89,30.07l.41.31c0,.05,0,.11,0,.16l-.33.1c-.07-.05-.14-.1-.2-.16,0-.13,0-.26,0-.39.04,0,.08-.02.12-.03ZM15.53,30.1l.31.2c0,.07,0,.15,0,.22l-.36.14c-.06-.04-.12-.07-.17-.11,0-.13,0-.25,0-.38.08-.02.15-.05.23-.07h0ZM24.32,30.12c.07.02.13.04.2.06,0,.13,0,.26,0,.38-.04.03-.08.06-.12.08l-.42-.13s0-.09,0-.13c0,0,0,0,0,0l.34-.26h0ZM21.79,30.15c.06.03.13.05.19.07,0,.13,0,.26,0,.38-.02.01-.05.03-.07.04l-.47-.18s0-.06,0-.09l.34-.22h0ZM20.61,30.17l.36.16s-.04.02-.06.03c0,.09,0,.18,0,.27,0,0,0,0,0,0l-.34.21c-.07-.03-.14-.06-.21-.09v-.36c.08-.05.16-.09.25-.14,0-.03,0-.05,0-.08h0ZM11.63,30.17c.07.06.14.12.22.18,0,.12,0,.25,0,.37-.07.01-.14.03-.21.04l-.34-.28s0,0,0,0c0-.08,0-.16.01-.24l.32-.08h0ZM25.68,30.18l.36.09s-.04.02-.05.04c0,.05,0,.11,0,.16l-.45.37s-.06-.01-.08-.02v-.38c.08-.06.16-.12.24-.18,0-.02,0-.05,0-.07h0ZM28.52,30.21s0,.02,0,.03c.08.01.16.03.24.04,0,.14,0,.27,0,.41-.02.02-.04.03-.05.05l-.47-.08c0-.05,0-.1,0-.16,0,0-.02,0-.02,0l.31-.29h0ZM16.7,30.24c.07.04.15.09.22.13,0,.12,0,.25,0,.37-.05.02-.11.04-.16.07l-.37-.23c0-.07,0-.14,0-.2l.31-.14h0ZM17.22,30.28l.31.18c0,.06,0,.13,0,.19l-.39.18s-.09-.05-.14-.08c0-.13,0-.25,0-.38.08-.03.15-.06.23-.09h0ZM18.37,30.3h0c.08.05.16.09.24.13,0,.12,0,.24,0,.37-.06.03-.11.05-.16.08l-.38-.21c0-.08,0-.15,0-.23l.29-.15h0ZM23.14,30.31l.38.13s-.05.03-.08.05c0,.07,0,.13,0,.2l-.35.25c-.06-.02-.12-.04-.18-.06,0-.13,0-.25,0-.38.08-.05.16-.1.23-.16v-.03h0ZM20.14,30.31c.05.02.1.05.16.07v.38c-.06.03-.12.06-.18.1l-.35-.16c0-.06,0-.12,0-.17l.37-.21h0ZM12.1,30.32l.34.27c0,.06,0,.13,0,.19l-.36.1c-.06-.04-.12-.09-.17-.14,0-.13,0-.26.01-.39.06-.01.12-.02.18-.04h0ZM14.2,30.33c.06.04.12.08.19.13,0,.12,0,.24,0,.37-.08.03-.17.05-.25.08,0,0,0,.01,0,.02l-.3-.21c0-.09,0-.17,0-.26l.35-.12h0ZM18.88,30.33l.33.17c0,.07,0,.15,0,.22.01,0,.03.01.04.02l-.34.18c-.08-.04-.15-.07-.22-.11,0-.12,0-.25,0-.37.07-.03.13-.07.2-.1h0ZM10.8,30.36c.07.05.13.11.2.16,0,.12,0,.25,0,.37-.07.01-.14.03-.21.04l-.33-.28c0-.07,0-.14.01-.22,0,0,0,0,0,0l.34-.08h0ZM26.53,30.38l.38.09s-.06.05-.09.07v.24l-.32.27c-.07-.01-.14-.03-.21-.04,0-.13,0-.26,0-.39.08-.06.16-.13.24-.19,0-.01,0-.03,0-.04h0ZM14.68,30.39l.34.23s-.02,0-.03,0c0,.07,0,.15,0,.22l-.34.12c-.06-.04-.12-.09-.18-.13,0-.13,0-.26,0-.39.07-.02.14-.04.21-.07ZM25.2,30.41c.05.01.11.03.17.04,0,.13,0,.26,0,.39-.02.02-.05.04-.07.06l-.46-.13s0-.05,0-.07l.36-.29h0ZM22.66,30.45c.06.02.11.04.17.06,0,.13,0,.25,0,.38-.03.02-.06.04-.1.06l-.44-.16s0-.06,0-.09l.36-.24h0ZM11.22,30.5l.37.31c0,.07,0,.13,0,.2l-.33.08c-.06-.05-.13-.11-.2-.16,0-.13,0-.27,0-.4.05,0,.1-.02.14-.03h0ZM21.45,30.52l.4.16s-.06.04-.1.06c0,.08,0,.16,0,.24l-.32.21c-.07-.03-.14-.06-.21-.09v-.39c.07-.04.15-.09.22-.13,0-.02,0-.04,0-.06h0ZM25.98,30.55s0,.03,0,.04c.08.02.16.04.24.06,0,.13,0,.26,0,.38-.04.03-.07.05-.11.08l-.43-.11s0-.08,0-.13c-.03,0-.06-.01-.09-.02l.38-.31h0ZM27.38,30.57l.36.07s-.04.03-.06.05c0,.07,0,.13,0,.2l-.42.37s-.08-.02-.12-.03c0-.13,0-.26,0-.39.08-.06.16-.12.24-.19v-.09ZM15.89,30.58c.06.04.13.08.19.12,0,.12,0,.24,0,.36-.06.02-.11.05-.17.07l-.37-.24c0-.06,0-.11,0-.17l.35-.14h0ZM23.99,30.59l.34.1s-.03.02-.04.03c0,.09,0,.19,0,.28.01,0,.02,0,.03,0l-.34.26c-.08-.02-.15-.04-.23-.07v-.38c.08-.06.16-.11.24-.17,0-.02,0-.04,0-.07ZM13.32,30.61c.07.05.14.1.21.15,0,.13,0,.25,0,.38-.06.02-.13.04-.2.06l-.34-.26c0-.08,0-.15,0-.23l.33-.1h0ZM16.34,30.63l.35.21s0,0-.01,0c0,.06,0,.12,0,.19l-.36.16c-.06-.03-.11-.07-.17-.1,0-.13,0-.25,0-.38.06-.02.13-.05.2-.07h0ZM20.98,30.66c.06.03.12.05.18.07v.36c-.07.05-.15.09-.22.13l-.33-.14v-.2l.37-.23h0ZM17.54,30.71c.07.04.15.08.23.12,0,.12,0,.24,0,.37-.06.03-.12.06-.19.09l-.35-.2c0-.07,0-.13,0-.2-.01,0-.02-.01-.03-.02l.35-.16h0ZM13.77,30.72l.37.26c0,.05,0,.11,0,.16l-.37.12c-.05-.04-.11-.07-.16-.11,0-.13,0-.26,0-.39.05-.01.11-.03.16-.04h0ZM18.04,30.73l.34.18s0,0,0,0c0,.09,0,.18,0,.27,0,0,0,0,0,0l-.3.15s0-.01,0-.02c-.08-.04-.16-.08-.24-.12,0-.13,0-.26,0-.38.07-.03.13-.06.2-.08h0ZM19.71,30.74l.35.17c0,.08,0,.16,0,.23l-.31.18c-.08-.03-.15-.07-.22-.1,0-.13,0-.25,0-.38.06-.03.11-.06.17-.09h0ZM23.45,30.76c.07.03.15.06.23.08,0,.13,0,.25,0,.38-.02.01-.03.02-.05.04l-.48-.16v-.12l.3-.22h0ZM19.32,30.77s.09.04.14.07c0,.12,0,.25,0,.37-.07.03-.13.06-.19.09l-.35-.18s0-.09,0-.14l.39-.21h0ZM26.86,30.83c.07.01.14.03.2.04,0,.14,0,.27,0,.4-.02.02-.04.03-.06.05l-.47-.1s0-.07,0-.11l.32-.28h0ZM12.51,30.84c.06.05.12.09.18.14,0,.12,0,.25,0,.37-.08.02-.16.03-.24.05l-.3-.24c0-.07,0-.15,0-.23l.37-.1ZM24.84,30.85l.38.11s-.05.04-.08.06v.12l-.43.33s-.07-.02-.11-.03c0-.13,0-.26,0-.39.08-.06.15-.11.24-.17,0-.01,0-.03,0-.04ZM22.3,30.86l.37.14s-.05.03-.07.05c0,.08,0,.16,0,.24l-.38.26c-.05-.02-.1-.04-.15-.06v-.39c.08-.05.16-.09.24-.14,0-.03,0-.06,0-.09h0ZM15.01,30.91c.07.05.14.1.21.14,0,.12,0,.25,0,.37-.08.02-.15.05-.22.08l-.34-.23s.02,0,.02,0c0-.08,0-.16,0-.24l.33-.12h0ZM12.9,30.95l.38.28c0,.06,0,.13,0,.19l-.33.1c-.06-.05-.13-.09-.19-.14,0-.13,0-.27,0-.4.05-.01.1-.02.14-.03ZM15.53,30.96l.3.2c0,.08,0,.15,0,.22l-.39.15s-.09-.06-.14-.09c0-.13,0-.25,0-.38.08-.03.16-.05.23-.08,0,0,0-.02,0-.02h0ZM21.79,31.03c.07.03.13.05.2.08v.38c-.06.03-.12.07-.17.1l-.37-.15c0-.06,0-.13,0-.2l.34-.22h0ZM24.39,31.03s.09.03.14.04c0,.13,0,.26,0,.38-.03.02-.06.04-.09.06l-.45-.14s0-.04,0-.06l.39-.29h0ZM11.62,31.08c.07.06.14.11.21.17,0,.12,0,.25,0,.37-.06.01-.12.03-.18.04l-.37-.3c0-.07,0-.13,0-.2l.34-.08ZM25.69,31.08l.35.09s-.03.03-.05.04v.27l-.35.28c-.06-.02-.13-.03-.19-.05,0-.13,0-.25,0-.38.08-.06.16-.12.24-.18,0-.02,0-.05,0-.08h0ZM16.67,31.1s0,0,0,0c.08.04.16.09.24.14,0,.13,0,.25,0,.37-.04.02-.09.04-.13.05l-.41-.25c0-.06,0-.13,0-.19l.29-.13h0ZM20.58,31.14l.32.14c0,.07,0,.15,0,.22l-.35.21c-.06-.03-.12-.06-.19-.08,0-.13,0-.25,0-.38.07-.04.14-.08.21-.12h0ZM17.22,31.15l.3.18c0,.08,0,.16,0,.24.01,0,.03.02.04.02l-.35.16c-.08-.04-.15-.09-.22-.13,0-.13,0-.25,0-.38.08-.03.16-.06.24-.09,0,0,0,0,0,0h0ZM23.15,31.16l.41.14s-.07.05-.11.07c0,.09,0,.18,0,.27h0s-.3.21-.3.21c0,0,0-.01,0-.02-.08-.03-.17-.06-.25-.08v-.37c.08-.05.16-.11.25-.17v-.06h0ZM20.11,31.18c.06.03.13.06.19.09,0,.13,0,.25,0,.38-.05.03-.1.05-.15.08l-.39-.18c0-.05,0-.11,0-.16l.35-.2h0ZM18.91,31.2l.31.15c0,.08,0,.16,0,.25,0,0,0,0,0,0l-.34.18c-.06-.03-.13-.06-.19-.1,0-.12,0-.25,0-.37.08-.04.16-.08.23-.12h0ZM14.19,31.21c.06.04.13.09.19.13,0,.12,0,.24,0,.37-.08.02-.16.05-.24.07l-.31-.22c0-.08,0-.16,0-.24l.35-.12h0ZM12.09,31.22l.34.26c0,.07,0,.13,0,.2l-.36.1c-.06-.04-.11-.09-.17-.13,0-.13,0-.26.01-.39.06-.01.12-.02.19-.04h0ZM25.14,31.22v.08c.08.02.16.04.24.06,0,.13,0,.26,0,.39-.01.01-.03.02-.04.03l-.5-.14s0-.08,0-.12c-.02,0-.04-.01-.06-.02l.36-.28h0ZM18.44,31.23c.06.03.11.06.17.09,0,.12,0,.25,0,.37-.05.02-.09.05-.14.07l-.39-.21s0-.09,0-.14l.37-.19h0ZM26.55,31.29l.39.09s-.06.05-.1.08v.17l-.39.33s-.1-.02-.15-.04c0-.13,0-.26,0-.39.08-.06.16-.12.24-.19,0-.02,0-.03,0-.05h0ZM14.58,31.3l.39.27s0,.09,0,.14l-.36.13c-.05-.04-.11-.07-.16-.11,0-.13,0-.26,0-.39.04-.01.09-.03.13-.04h0ZM22.63,31.33c.06.02.13.05.2.07v.39c-.06.04-.12.08-.18.12l-.34-.13c0-.07,0-.14,0-.21,0,0,0,0-.01,0l.34-.23h0ZM15.85,31.44c.07.05.15.1.22.14,0,.12,0,.24,0,.36-.08.03-.17.07-.25.09,0,0,0,0,0,.01l-.3-.19c0-.09,0-.18,0-.26,0,0-.02-.01-.03-.02l.35-.14h0ZM24,31.46l.38.12s-.05.04-.08.06c0,.05,0,.11,0,.16l-.45.34s-.04-.01-.07-.02v-.4c.07-.05.15-.1.22-.15,0-.03,0-.07,0-.1h0ZM13.29,31.49c.07.05.15.1.22.16,0,.13,0,.25,0,.38-.07.02-.13.03-.19.05l-.34-.26c0-.08,0-.15,0-.23l.31-.09h0ZM16.37,31.49l.34.21s-.03.01-.04.02c0,.09,0,.18,0,.27,0,0,0,0,0,0l-.3.13s0-.01,0-.02c-.08-.05-.15-.09-.23-.14,0-.13,0-.26,0-.39.08-.03.15-.06.23-.09h0ZM21.4,31.5l.36.14c0,.07,0,.14,0,.2l-.35.22c-.06-.02-.12-.05-.19-.08,0-.13,0-.25,0-.38.06-.04.12-.07.18-.11h0ZM26.05,31.51c.06.01.12.03.18.04,0,.13,0,.26,0,.39-.02.02-.05.04-.07.06l-.47-.12s0-.05,0-.08l.35-.29h0ZM20.98,31.55c.06.03.11.05.17.07,0,.12,0,.25,0,.37-.06.04-.12.07-.18.11l-.36-.16c0-.06,0-.11,0-.17l.37-.22h0ZM13.78,31.6l.34.24c0,.05,0,.11,0,.16l-.39.13s-.09-.07-.14-.1c0-.13,0-.26,0-.39.06-.02.13-.03.19-.05h0ZM19.73,31.61l.34.16s-.01,0-.02,0v.24l-.32.18c-.07-.03-.14-.07-.21-.1,0-.13,0-.26,0-.38.07-.03.14-.07.2-.1h0ZM18.04,31.61l.34.18s-.01,0-.02,0v.25l-.31.15c-.07-.04-.15-.08-.22-.12,0-.13,0-.25,0-.38.07-.03.13-.06.2-.09h0ZM17.62,31.63s.09.05.14.08c0,.12,0,.25,0,.37-.05.02-.11.05-.16.07l-.38-.22s0-.07,0-.11l.4-.19h0ZM19.29,31.64c.06.03.11.06.17.08,0,.12,0,.24,0,.37-.06.03-.12.06-.18.09l-.36-.18c0-.05,0-.11,0-.16l.37-.2h0ZM23.51,31.67c.06.02.12.04.19.06v.37c-.06.04-.12.08-.18.12l-.37-.13c0-.05,0-.11,0-.16l.36-.26h0ZM24.85,31.71l.43.12s-.08.06-.12.09c0,.07,0,.15,0,.22l-.33.26c-.07-.02-.14-.04-.21-.06v-.38c.08-.06.16-.11.24-.17,0-.03,0-.05,0-.08h0ZM14.97,31.79c.08.05.17.11.25.16,0,.12,0,.25,0,.37-.07.02-.13.04-.2.06l-.35-.23c0-.08,0-.17,0-.26l.29-.1h0ZM22.29,31.85l.31.12c0,.08,0,.16,0,.24.01,0,.02,0,.03.01l-.35.23c-.07-.03-.15-.06-.22-.09v-.38c.08-.05.15-.09.23-.14ZM24.3,31.86s0,.03,0,.04c.08.02.15.05.24.07v.39c-.06.04-.12.09-.18.13l-.35-.11c0-.07,0-.14,0-.21-.03,0-.06-.02-.09-.03l.38-.28h0ZM15.46,31.89l.36.23c0,.06,0,.13,0,.19.01,0,.03.01.04.02l-.34.14c-.08-.05-.15-.09-.23-.14,0-.13,0-.25,0-.38.06-.02.11-.04.17-.06h0ZM21.76,31.91c.08.03.15.06.23.09,0,.13,0,.25,0,.38-.05.03-.1.06-.14.08l-.4-.16c0-.06,0-.13,0-.2l.31-.2h0ZM17.21,32l.31.18s0,0-.01,0c0,.09,0,.18,0,.27,0,0,0,0,0,0l-.35.16c-.06-.04-.13-.07-.19-.11,0-.13,0-.25,0-.38.08-.03.16-.06.24-.09,0-.01,0-.02,0-.04h0ZM20.6,32.01l.3.13c0,.08,0,.15,0,.23l-.37.22c-.05-.02-.11-.05-.16-.07v-.37c.08-.04.15-.09.23-.13h0ZM16.74,32.03c.05.03.11.06.16.1,0,.12,0,.25,0,.37-.07.03-.14.06-.21.09l-.35-.21s.01,0,.02,0c0-.06,0-.12,0-.18l.38-.16h0ZM20.1,32.07c.07.03.13.06.2.09v.38s-.09.05-.14.07l-.4-.18v-.16l.33-.19h0ZM18.91,32.07l.3.15c0,.09,0,.18,0,.26l-.35.18c-.06-.03-.13-.06-.19-.1,0-.12,0-.25,0-.37.08-.04.16-.08.24-.12h0s0,0,0,0ZM18.41,32.1c.07.03.13.07.19.1,0,.12,0,.25,0,.37-.04.02-.08.04-.11.05l-.43-.23s0-.08,0-.13l.35-.18h0ZM23.11,32.15l.35.12s0,.09,0,.13l-.43.29s-.07-.02-.11-.04c0-.13,0-.26,0-.39.06-.04.13-.08.2-.12h0ZM14.6,32.18l.36.24c0,.08,0,.17,0,.25,0,0,0,0,.01,0l-.31.11s0-.01,0-.02c-.08-.05-.15-.1-.23-.16,0-.13,0-.26,0-.39.05-.02.11-.03.16-.05h0ZM22.7,32.24s.09.04.14.05v.38c-.06.04-.11.07-.17.1l-.37-.14s0-.08,0-.13l.39-.27h0ZM21.44,32.36l.35.14s-.02.01-.03.02c0,.09,0,.18,0,.27,0,0,0,0,0,0l-.3.19s0,0,0-.01c-.08-.03-.16-.06-.24-.1v-.38c.07-.04.15-.08.22-.13h0ZM15.92,32.38s.09.05.14.08c0,.12,0,.25,0,.37-.08.03-.15.06-.22.08l-.32-.21c0-.06,0-.11,0-.17l.41-.16h0ZM16.27,32.41l.39.24c0,.07,0,.13,0,.2l-.3.13c-.07-.04-.15-.09-.22-.13,0-.13,0-.26,0-.39.04-.02.09-.03.13-.05ZM20.95,32.42c.07.03.13.06.2.08v.38c-.05.03-.11.06-.16.09l-.38-.16c0-.06,0-.12,0-.18,0,0,0,0,0,0l.34-.21h0ZM18.06,32.47l.36.19s-.04.01-.05.02c0,.08,0,.16,0,.24l-.32.16c-.07-.04-.14-.08-.21-.12,0-.13,0-.25,0-.38l.23-.1h0s0,0,0,0ZM19.75,32.48l.34.16s-.02.01-.03.02c0,.07,0,.14,0,.21l-.34.19c-.06-.03-.12-.06-.18-.08v-.39c.07-.04.15-.07.22-.11ZM17.59,32.5c.05.03.11.06.16.09,0,.12,0,.25,0,.37-.08.04-.16.07-.24.11l-.31-.18c0-.07,0-.14,0-.22l.37-.18h0ZM19.28,32.52c.06.03.12.06.18.09,0,.12,0,.24,0,.37-.05.02-.1.05-.15.07l-.4-.2s0-.09,0-.14l.37-.2h0Z"/>
      <path class="cls-12" d="M23.45,6.16c-1.06.36-2.52.58-4.12.58s-3.01-.21-4.07-.56l-2.38,7.86c1.6.84,3.94,1.37,6.55,1.37s4.86-.51,6.46-1.32l-2.43-7.93h0Z"/>
      <path class="cls-5" d="M15.26,6.16l-.02.04.1.09c0,.05,0,.11,0,.16h-.18s-.02.07-.02.07h.22c.07.05.14.11.22.16,0,.1,0,.2,0,.3-.05,0-.11,0-.16,0l-.32-.27-.02.05.26.22c0,.06,0,.12,0,.18h-.31s-.03-.02-.05-.03l-.09.28c.05,0,.1,0,.15,0l.32.28h-.03c0,.06,0,.11,0,.17h-.33c-.06-.04-.12-.09-.18-.14,0-.03,0-.05,0-.08l-.12.41s.03.03.04.04c0,.1-.01.19-.01.28-.04,0-.08,0-.13,0l-.07.24c.06.05.13.11.19.17,0,.09,0,.19,0,.29-.07,0-.14,0-.21-.01l-.09-.08-.02.05.07.06c0,.06,0,.12,0,.18.01.01.03.02.04.04h-.19s-.02.05-.02.05h.27c.04.05.08.09.13.13,0,.1,0,.2,0,.29-.06,0-.12-.01-.18-.02l-.26-.24v.05s.21.2.21.2c0,.07-.01.14-.01.2,0,0,0,0,0,0l-.33-.02s0,0,0,0l-.07.24s.04,0,.06,0l.33.31c0,.05,0,.1,0,.15,0,0,0,0,0,0l-.35-.03s-.1-.09-.14-.14l-.11.37c0,.08,0,.16,0,.24,0,0,0,0,.01,0-.03,0-.05,0-.08-.01l-.08.27s.09.09.14.13c0,.1,0,.19-.01.29.01,0,.02,0,.03.01-.06,0-.11-.02-.16-.03l-.09-.09-.02.05.04.04s-.02,0-.03,0c0,.07,0,.14,0,.21,0,0,0,0,0,0h-.07s-.02.04-.02.04l.16.03c.05.05.1.1.16.16,0,.06-.01.18-.02.29-.04,0-.08-.01-.13-.02l-.24-.25v.04s.17.19.17.19c-.01,0-.03,0-.04,0v.1s-.21-.04-.21-.04l-.02.06.22.04v.05c.07.08.14.16.22.24,0,.06-.01.18-.02.29-.06-.01-.13-.03-.19-.04l-.31-.33v.04s.27.3.27.3v.17s-.32-.06-.32-.06c-.02-.02-.04-.04-.06-.06l-.08.26s.05.01.07.02l.35.37s0,.08,0,.12l-.38-.08s-.09-.09-.13-.14l-.1.33s.07.03.11.05c.05.01.1.03.15.04l.04.04s.06.03.09.04l-.1-.1c0-.06,0-.12.01-.18,0,0,0,0,0-.01l.31.07s0,.01,0,.02c.08.08.15.17.23.25,0,.03,0,.09,0,.13.03,0,.05.02.08.03,0-.04,0-.1,0-.13.07.02.14.03.21.04l.26.25s.05.02.08.02l-.33-.32c0-.06.01-.11.02-.17-.02-.02-.03-.03-.05-.05l.34.04c.08.08.16.15.24.22,0,.1,0,.19-.01.29-.07,0-.14-.02-.21-.03.11.03.22.07.33.1-.01-.01-.03-.02-.04-.04,0-.1,0-.2.01-.31.05,0,.11.01.16.02l.36.32v.15c.18.05.36.09.55.13,0,0,0-.01,0-.02l.4-.03s.09.07.14.11v.05s.05,0,.07.01v-.05c.08,0,.15-.01.23-.02h0s.24.15.24.15c.04,0,.08.01.12.02l-.35-.24s0-.05,0-.08l.37-.06c.06.04.12.07.17.11v.29s.05,0,.07.01v-.28c.08-.02.16-.03.24-.05,0-.01,0-.02,0-.04l.33.19s-.02,0-.03,0c0,.07,0,.14,0,.21,0,0,.02.01.03.02.17.02.34.03.51.04,0,0,0,0,0,0h.01c.05,0,.1.01.15.02l-.16-.08s0-.05,0-.08l.37-.14c.06.03.12.06.18.08,0,.08,0,.15,0,.22.02,0,.05,0,.07,0,0-.07,0-.15,0-.23.08-.03.16-.06.24-.09v-.02l.3.12s0,0,0,0c0,.07,0,.15,0,.22,0,0,.01,0,.02,0,.01,0,.02,0,.04,0,.14,0,.29,0,.43,0,.02,0,.04-.02.06-.03l.08.02c.05,0,.11,0,.16,0l-.24-.08s0-.07,0-.1l.35-.19c.06.02.12.04.19.06v.29s.05,0,.07,0c0-.11,0-.2,0-.31.08-.05.16-.09.24-.13,0,0,0-.01,0-.02l.3.07c0,.07,0,.14,0,.21l-.24.15s.07,0,.11,0l.2-.12c.06.02.12.03.18.04,0,.01,0,.03,0,.04.02,0,.05,0,.07,0,0-.02,0-.04,0-.06.08-.05.15-.09.22-.14l.35.06s-.03.02-.04.03c0,.02,0,.03,0,.05.18-.03.37-.05.55-.09,0-.02,0-.04,0-.06l.41-.31s.08,0,.12,0c0,.09,0,.17,0,.26.03,0,.05,0,.08-.02,0-.09,0-.19,0-.28.06-.05.13-.1.19-.15h.35s0,.01-.01.02c0,.07,0,.15,0,.22l-.13.11s.07-.02.1-.03l.09-.08c.06,0,.11,0,.17,0,0,0,0,0,0,0,.02,0,.05-.01.07-.02,0,0,0-.01,0-.02.08-.07.15-.14.23-.2,0,0,0,0,0,0l.3-.02s0,.07,0,.1c.23-.07.45-.15.67-.23l-.12.02s0-.08,0-.12l.33-.34c.06-.01.12-.02.18-.04,0,.11.01.21.02.31,0,0-.01.01-.02.02.09-.04.18-.07.26-.11-.06.01-.11.02-.17.04,0-.1,0-.19-.01-.31.06-.06.12-.13.18-.19l-.08-.25s-.09.02-.13.03c0-.1,0-.19-.02-.3.02-.02.03-.04.05-.05l-.16-.51c0,.07,0,.13.01.2-.04.04-.07.07-.1.11l-.42.06s0-.04,0-.06l.36-.38s.08-.02.12-.02l-.09-.31s0,0,0,0l-.41.06v-.12s.3-.31.3-.31l-.03-.08s0,.03,0,.05l-.31.32c-.07,0-.14.01-.2.02,0-.1,0-.2,0-.3.06-.06.13-.12.19-.18l.29-.04-.02-.06-.24.03s0-.09,0-.14l.16-.16-.02-.05-.15.15c-.08.01-.15.02-.22.03,0-.1,0-.2,0-.31.08-.07.15-.14.23-.22v-.04h.04s-.02-.06-.02-.06h-.02s0-.03,0-.05l-.02-.07c-.08,0-.14.02-.21.02,0-.1,0-.21,0-.31.03-.03.07-.06.1-.09l-.1-.31s0,0,0,0c0,0,0,0,0,0l-.08-.26c0,.1,0,.2,0,.3-.05.04-.09.08-.13.12l-.39.03s0-.09,0-.13c-.02,0-.03,0-.05,0l.34-.31c.08,0,.15,0,.23-.01l-.1-.32s-.04.03-.06.05l-.37.02s0-.08,0-.13l.32-.29-.04-.12s0,.06,0,.08l-.34.31c-.06,0-.13,0-.18,0,0-.1,0-.2,0-.3.08-.07.16-.13.24-.2h.25s-.02-.06-.02-.06h-.23s0-.1,0-.16c-.03,0-.06,0-.09,0l.22-.2v-.05s-.28.25-.28.25c-.03,0-.05,0-.08,0,0-.1,0-.2,0-.3.08-.07.15-.14.23-.2v-.08h.02s-.02-.06-.02-.06h0s-.02-.08-.02-.08c-.07,0-.15,0-.22,0,0-.1,0-.2,0-.31.03-.03.07-.05.1-.08l-.17-.55c0,.09,0,.18,0,.26-.03.02-.05.04-.08.07l-.43-.02v-.1l.32-.27c.06,0,.12.01.18.01l-.1-.34h-.4s0-.08,0-.11l.3-.25-.02-.05-.29.25c-.07,0-.14,0-.21,0,0-.06,0-.13,0-.19-.03,0-.05.02-.08.02v.19s-.08.07-.13.1l-.39-.03v-.08l.1-.08c-.22.05-.44.1-.66.14h.09s-.04.04-.05.05v.22h0l-.29.21h0c-.08-.02-.15-.03-.23-.05,0-.1,0-.2,0-.31.03-.02.06-.04.08-.06-.1.02-.2.03-.31.04.05.01.1.02.16.04v.29s-.09.06-.14.09l-.38-.09s0-.08,0-.13c0,0-.02,0-.03,0l.29-.18s-.07,0-.11.01l-.25.15s-.09-.02-.13-.03c0-.03,0-.06,0-.08-.02,0-.05,0-.07,0v.1s-.07.04-.1.06l-.38-.12c-.19,0-.37.02-.56.02,0,.02,0,.04,0,.06l-.35.17c-.06-.02-.11-.04-.17-.06,0-.06,0-.11,0-.17-.02,0-.04,0-.07,0,0,.06,0,.11,0,.17-.03,0-.05.02-.08.03l-.44-.21s0-.01,0-.02c-.17-.01-.35-.02-.52-.04,0,.02,0,.05,0,.07l-.35.1c-.05-.03-.11-.06-.16-.1,0-.05,0-.09,0-.14-.03,0-.05,0-.08-.01,0,.04,0,.09,0,.13-.06.01-.13.03-.19.04l-.33-.22s0,0,.01,0c0-.01,0-.03,0-.04-.2-.04-.39-.08-.58-.12l-.3.03c-.06-.04-.11-.08-.16-.12,0,0,0-.02,0-.02-.02,0-.05-.01-.07-.02,0,0,0,.01,0,.02-.06,0-.12,0-.18,0l-.15-.12s0,0,0,0h0ZM16.22,6.43c.06.05.13.1.19.14,0,.1,0,.2,0,.29-.07,0-.14.02-.21.02l-.31-.24c0-.06,0-.12,0-.18l.33-.04h0ZM16.63,6.56l.35.23c0,.05,0,.1,0,.16l-.32.07c-.06-.05-.12-.09-.18-.13,0-.1,0-.21,0-.31.05,0,.1-.01.15-.02h0ZM22.4,6.58l.32.03s-.02.02-.03.03c0,.07,0,.14,0,.21l-.33.26c-.06,0-.12-.01-.18-.02,0-.1,0-.2,0-.31.07-.05.15-.11.23-.16v-.04h0ZM23.21,6.64h.35s-.03.04-.06.06c0,.07,0,.13,0,.19l-.31.26c-.07,0-.14,0-.2,0,0-.1,0-.2,0-.3.07-.06.15-.12.22-.18h0s0-.01,0-.01ZM15.85,6.69l.31.24c0,.06-.01.12-.01.18l-.34.03c-.06-.04-.11-.08-.17-.12,0-.1,0-.2,0-.31.06,0,.13,0,.2-.01ZM19.95,6.77l.35.11s-.04.03-.06.04c0,.05,0,.09,0,.14l-.36.2c-.05-.02-.1-.03-.15-.05,0-.1,0-.21,0-.31.07-.03.14-.07.22-.11v-.02h0ZM17.84,6.79c.06.03.12.07.19.1,0,.1,0,.19,0,.29-.08.03-.15.05-.22.07l-.31-.17c0-.06,0-.13,0-.19,0,0,0,0,0,0l.33-.1h0ZM18.32,6.79l.36.18s-.05.02-.08.02c0,.06,0,.12,0,.18l-.32.12c-.06-.03-.13-.06-.18-.09,0-.1,0-.21,0-.31.07-.02.14-.04.22-.07v-.03h0ZM21.94,6.79c.05,0,.11.01.16.02,0,.11,0,.21,0,.31-.03.02-.06.05-.09.07l-.43-.06s0-.04,0-.07l.36-.27h0ZM19.47,6.83c.06.03.12.05.18.07,0,.1,0,.2,0,.31-.04.02-.08.03-.12.05l-.4-.16s0-.07,0-.11l.33-.16h0ZM22.75,6.86c.05,0,.1,0,.16,0,0,.1,0,.2,0,.3-.04.03-.07.06-.11.09l-.4-.03v-.1l.35-.27h0ZM20.77,7.01l.31.08s-.01,0-.02.01c0,.08-.01.15-.01.22.01,0,.03,0,.04,0l-.33.21c-.07-.02-.15-.03-.22-.05,0-.1,0-.21,0-.31.08-.05.16-.09.23-.13,0-.01,0-.02,0-.04h0ZM17.01,7.01c.06.04.13.09.2.13,0,.1,0,.2,0,.3-.05.01-.11.02-.17.03l-.35-.24c0-.05,0-.1,0-.16l.32-.07ZM17.47,7.11l.32.19s0,.1,0,.15l-.35.1c-.05-.03-.11-.07-.16-.1,0-.1.01-.2.01-.3.06-.01.13-.03.19-.04ZM20.24,7.11v.02c.07.02.15.04.23.06,0,.1,0,.21,0,.31-.02.01-.05.02-.07.04l-.45-.14s0-.08,0-.12l.29-.17h0ZM16.21,7.15c.06.05.12.09.18.13,0,.1,0,.2,0,.3-.06,0-.13,0-.2.01l-.32-.25c0-.05,0-.11,0-.16l.34-.04h0ZM19.14,7.16l.33.13s-.03.02-.05.02c0,.06,0,.12,0,.18l-.38.18s-.09-.03-.13-.05c0-.1,0-.2,0-.3.08-.04.15-.07.23-.11,0-.02,0-.04,0-.06h0ZM21.57,7.19l.36.05s-.04.03-.06.04c0,.07,0,.13,0,.2l-.29.22c-.07,0-.15-.02-.22-.04,0-.1,0-.2,0-.31.07-.05.15-.1.22-.15,0,0,0,0,0-.01h0ZM18.62,7.21c.07.04.14.07.22.11,0,.1,0,.2,0,.3-.07.02-.13.05-.2.07l-.33-.17c0-.07,0-.13.01-.19l.3-.12h0ZM15.35,7.22c.07.06.14.11.22.17,0,.1,0,.2,0,.3-.04,0-.09,0-.13,0l-.39-.32s0-.08,0-.13l.31-.02h0ZM16.64,7.27l.33.22c0,.06,0,.12,0,.17l-.32.07c-.06-.04-.12-.08-.18-.12,0-.1,0-.21,0-.31.06,0,.12-.02.18-.03h0ZM22.4,7.29l.33.03s-.03.02-.04.03c0,.07,0,.14,0,.21l-.34.27c-.06,0-.12-.01-.17-.02,0-.1,0-.21,0-.31.08-.05.15-.1.23-.16,0-.02,0-.04,0-.05h0ZM21.15,7.34s.09.02.14.03v.3s-.07.04-.1.06l-.41-.1s0-.03,0-.05l.38-.25h0ZM23.22,7.35h.36s-.05.05-.07.07c0,.06,0,.11,0,.16l-.35.29c-.06,0-.11,0-.17,0,0-.1,0-.21,0-.31.08-.06.15-.12.23-.18v-.02h0ZM15.85,7.4l.29.22c0,.06,0,.12,0,.18l-.35.03c-.05-.04-.11-.08-.16-.12,0-.1,0-.2,0-.3.07,0,.14,0,.22-.01h0ZM19.94,7.46l.39.12s-.07.04-.1.05c0,.07,0,.14,0,.21l-.29.16h0c-.07-.03-.15-.06-.22-.08,0-.1,0-.2,0-.31.07-.03.14-.07.22-.11v-.05h0ZM17.82,7.5c.06.04.13.07.2.11,0,.1,0,.2,0,.3-.06.02-.13.04-.19.06l-.33-.2c0-.05,0-.1,0-.16,0,0-.01,0-.01,0l.34-.1h0ZM21.91,7.5c.06,0,.12.01.18.02,0,.11,0,.21,0,.31-.02.01-.04.03-.06.04l-.46-.06s0-.05,0-.08l.33-.24h0ZM19.43,7.54c.07.03.14.05.22.08,0,.1,0,.2,0,.3-.07.04-.14.07-.21.1l-.31-.12c0-.06,0-.13,0-.19,0,0-.02,0-.03,0l.33-.16h0ZM18.24,7.55l.35.18v.13l-.35.13c-.05-.03-.11-.05-.16-.08,0-.1,0-.2,0-.31.05-.02.1-.03.15-.05h0ZM22.74,7.58c.06,0,.11,0,.17.01,0,.1,0,.2,0,.31-.03.02-.06.04-.09.07l-.43-.04s0-.05,0-.07l.34-.27h0ZM23.51,7.64c.08,0,.15,0,.22,0v.31s-.03.03-.05.04h-.47v-.11l.29-.25ZM20.77,7.69l.35.09s-.04.02-.06.04c0,.07,0,.15,0,.22,0,0,0,0,0,0l-.33.21c-.06-.02-.13-.03-.19-.05,0-.1,0-.2,0-.3.08-.05.15-.09.23-.14,0-.02,0-.05,0-.07h0ZM16.98,7.72c.07.05.14.09.21.14,0,.1,0,.2,0,.29-.05.01-.1.02-.16.03l-.36-.24c0-.05,0-.1.01-.16l.3-.06ZM17.49,7.82l.28.17c0,.05,0,.1,0,.16l-.38.1s-.09-.05-.13-.08c0-.1,0-.2,0-.3.08-.02.15-.03.23-.05h0ZM16.19,7.85c.06.05.12.09.18.14,0,.1,0,.19,0,.29-.06,0-.11.01-.17.02l-.35-.27s0-.09,0-.13l.34-.04ZM20.29,7.86c.06.02.12.03.18.05,0,.1,0,.2,0,.3-.06.03-.12.07-.18.1l-.36-.11s0-.09,0-.14l.35-.2h0ZM21.57,7.87l.39.06s-.06.04-.1.06c0,.07,0,.13,0,.19l-.31.23c-.07,0-.14-.02-.2-.04,0-.1,0-.2,0-.31.08-.05.15-.1.23-.15v-.05h0ZM15.33,7.92c.07.06.14.12.21.17,0,.1,0,.2,0,.29-.07,0-.14,0-.21,0l-.33-.28s.01,0,.01,0c0-.07,0-.13.01-.19h.3s0,0,0,0ZM18.6,7.92c.08.04.15.08.23.12,0,.1,0,.2,0,.3-.05.02-.1.04-.16.06l-.37-.18c0-.06,0-.12,0-.18l.29-.11h0ZM19.1,7.94l.31.13c0,.06,0,.12,0,.18.01,0,.02,0,.04.01l-.33.16c-.07-.03-.14-.06-.22-.09,0-.1,0-.2,0-.3.06-.03.13-.06.2-.09h0ZM16.64,7.98l.33.22s-.01,0-.02,0c0,.05,0,.1,0,.15l-.35.07c-.05-.04-.11-.07-.16-.11,0-.1,0-.21,0-.31.06,0,.13,0,.19-.02h0ZM22.4,7.99l.36.03s-.05.04-.07.06c0,.06,0,.12,0,.19l-.37.29s-.1-.01-.14-.02c0-.1,0-.2,0-.31.07-.05.15-.1.23-.16v-.07h0ZM23.22,8.04l.4.02s-.07.05-.1.08c0,.07,0,.14,0,.22l-.29.24h0c-.08,0-.15,0-.23,0,0-.11,0-.21,0-.31.08-.06.15-.12.23-.18v-.05h0ZM21.12,8.05c.06.01.11.02.17.04v.3c-.07.04-.14.09-.21.13l-.32-.08v-.16l.36-.22h0ZM15.84,8.08l.29.23c0,.06,0,.12,0,.18l-.38.03s-.09-.07-.13-.1c0-.1,0-.2,0-.31.08,0,.15,0,.22-.01,0,0,0-.01,0-.02h0ZM14.8,8.11s.09,0,.13,0l.37.32s0,.07,0,.1h-.36c-.05-.04-.1-.08-.15-.12,0-.1,0-.21,0-.31ZM17.79,8.2c.07.04.15.08.22.12,0,.1,0,.2,0,.3-.06.02-.11.04-.17.05l-.35-.2c0-.05,0-.1,0-.15,0,0-.02-.01-.03-.02l.34-.09h0ZM21.9,8.22c.06.01.13.01.19.02,0,.11,0,.21,0,.31-.06.04-.11.08-.16.12l-.36-.05c0-.05,0-.11,0-.16l.33-.24h0ZM19.89,8.24l.34.11c0,.06,0,.12,0,.18l-.32.18c-.07-.02-.14-.05-.2-.08v-.31c.06-.03.12-.05.18-.08h0ZM18.27,8.25l.33.16s0,0,0,0c0,.08,0,.15,0,.22,0,0,0,0,0,0l-.29.11h0c-.08-.05-.15-.09-.23-.12,0-.1,0-.21,0-.31.06-.02.13-.04.19-.06h0ZM19.51,8.29s.08.03.13.05v.3c-.06.03-.12.06-.18.08l-.33-.13s0-.08,0-.12l.38-.18h0ZM22.71,8.29c.07,0,.13.01.2.02,0,.1,0,.2,0,.3-.06.05-.12.09-.18.14l-.34-.03c0-.06,0-.11,0-.16,0,0-.02,0-.02,0l.33-.26h0ZM23.57,8.36h.17c0,.11,0,.21,0,.31-.05.04-.1.08-.16.12h-.36c0-.05,0-.1,0-.14l.34-.29h0ZM16.94,8.41h0c.08.05.15.1.23.15,0,.1,0,.21,0,.3-.04,0-.08.02-.12.02l-.4-.26c0-.05,0-.11,0-.16l.28-.06h0ZM20.73,8.49l.31.08c0,.06,0,.12,0,.18l-.33.21c-.06-.02-.13-.03-.19-.04,0-.1,0-.2,0-.31.07-.04.13-.09.2-.12h0ZM17.48,8.52l.29.17c0,.07,0,.14-.01.21,0,0,.02,0,.03.02l-.33.1c-.07-.04-.14-.09-.21-.13,0-.1,0-.21,0-.31.08-.02.16-.03.23-.04h0s0,0,0,0ZM16.15,8.54c.07.05.14.11.21.16,0,.1,0,.2,0,.29-.08,0-.16.01-.24.01,0,0,0,0,0,0l-.29-.22c0-.07,0-.14,0-.21,0,0-.02-.01-.03-.02l.34-.03h0ZM20.27,8.58c.06.02.13.03.2.05,0,.1,0,.21,0,.31-.05.03-.09.05-.14.08l-.38-.12s0-.08,0-.13l.33-.19h0ZM15.29,8.6h0c.08.07.16.13.24.19,0,.1,0,.2,0,.3-.06,0-.12,0-.18,0l-.35-.29c0-.07,0-.13.01-.2h.28ZM19.11,8.65l.29.11c0,.07,0,.13,0,.2l-.33.16c-.06-.03-.12-.05-.19-.08,0-.1,0-.2,0-.3.08-.03.15-.06.23-.1h0ZM21.52,8.67l.34.05c0,.06,0,.11,0,.16l-.34.24c-.06,0-.12-.02-.18-.03,0-.1,0-.21,0-.31.06-.04.12-.08.18-.12h0ZM18.66,8.67c.05.03.11.05.16.08,0,.1,0,.2,0,.3-.05.02-.09.03-.14.05l-.38-.18s0-.08,0-.11l.36-.14h0ZM16.65,8.68l.33.22s-.03,0-.04,0c0,.07,0,.15-.01.22,0,0,0,0,0,0l-.29.06v-.02c-.08-.05-.15-.1-.22-.15,0-.1,0-.21,0-.31.08,0,.15-.02.23-.03h0ZM21.11,8.77c.06.01.11.03.17.04v.3c-.06.04-.12.08-.18.11l-.34-.08s0-.1,0-.14l.35-.22h0ZM22.4,8.78l.29.03c0,.07,0,.14,0,.2,0,0,.01,0,.02,0l-.33.26c-.07,0-.14-.01-.21-.02v-.31c.08-.05.15-.11.23-.16h0ZM14.78,8.8c.05,0,.1,0,.15,0l.35.3c0,.07,0,.13,0,.2,0,0,0,0,0,0h-.29s0,0,0,0c-.08-.06-.15-.13-.22-.2,0-.1,0-.2,0-.3h0ZM15.77,8.81l.34.27c0,.05,0,.1,0,.15.01.01.03.02.04.03l-.33.03c-.08-.06-.15-.12-.22-.17,0-.1,0-.2,0-.3.06,0,.11,0,.17,0h0ZM23.18,8.85h.33s0,.08,0,.12l-.41.34s-.08,0-.11,0c0-.1,0-.2,0-.31.06-.05.12-.1.19-.15h0ZM21.87,8.93c.07,0,.15.02.22.03,0,.1,0,.2,0,.31-.05.03-.09.06-.14.09l-.39-.05c0-.05,0-.11,0-.16l.29-.22h0ZM19.91,8.94l.33.11s-.02,0-.02.01v.19l-.31.17c-.06-.03-.13-.05-.2-.08,0-.1,0-.21,0-.31.07-.03.13-.07.2-.1h0ZM17.86,8.95s.1.05.14.07c0,.1,0,.2,0,.3-.05.01-.1.03-.15.04l-.37-.21s0-.06,0-.09l.39-.11h0ZM18.27,8.96l.33.16s-.01,0-.02,0c0,.07,0,.13,0,.2l-.3.11c-.07-.04-.14-.07-.21-.1,0-.1,0-.21,0-.31.06-.02.13-.04.2-.06h0ZM19.47,8.99c.06.02.11.04.17.06,0,.1,0,.19,0,.29-.06.03-.12.06-.18.08l-.35-.14s0-.09,0-.13l.35-.17ZM22.77,9.02s.1,0,.15,0c0,.1,0,.2,0,.31-.05.04-.1.08-.16.12l-.36-.04s0-.07,0-.1l.37-.29h0ZM23.51,9.02v.06c.08,0,.15,0,.23,0v.31s-.08.07-.12.1h-.4s0-.18,0-.18c-.02,0-.04,0-.06,0l.35-.29h0ZM17.01,9.17c.05.04.11.07.16.11,0,.1,0,.2,0,.3-.07.01-.14.02-.21.04l-.33-.22s0,0,.01,0c0-.04,0-.09,0-.14l.37-.08h0ZM20.75,9.19l.29.07c0,.06,0,.12,0,.19l-.36.23c-.05-.01-.1-.03-.16-.04v-.3c.08-.05.15-.09.23-.13h0ZM17.47,9.21l.31.18s-.02,0-.02,0c0,.07,0,.15,0,.22l-.34.09c-.06-.04-.12-.08-.18-.11,0-.1,0-.21,0-.31.08-.01.15-.03.22-.04,0-.01,0-.02,0-.03h0ZM20.25,9.29c.06.02.13.03.2.05v.31s-.09.04-.13.07l-.39-.12v-.13l.32-.18h0ZM16.21,9.31s.09.07.14.1c0,.1,0,.19,0,.29-.07,0-.14.02-.21.02l-.31-.24s0-.09,0-.14l.39-.04h0ZM19.11,9.35l.28.11c0,.07,0,.14,0,.22h0s-.34.16-.34.16c-.06-.03-.12-.05-.18-.08,0-.1,0-.2,0-.3.08-.03.16-.07.23-.11h0s0,0,0,0ZM21.56,9.36l.33.05s-.02.01-.02.02c0,.07,0,.15,0,.22,0,0,0,0,0,0l-.29.21h0c-.08-.02-.16-.03-.23-.04v-.31c.07-.04.14-.09.22-.14h0ZM15.35,9.36c.05.05.11.09.16.13,0,.1,0,.2,0,.3-.06,0-.12,0-.17,0l-.35-.29s0-.08,0-.13h.36s0-.01,0-.01ZM18.62,9.37c.06.03.12.06.19.09,0,.1,0,.2,0,.3-.04.01-.07.03-.11.04l-.41-.2s0-.07,0-.1l.33-.13h0ZM16.55,9.4l.37.25c0,.06,0,.11,0,.16l-.3.06c-.07-.05-.14-.1-.21-.14,0-.1,0-.21,0-.31.05,0,.09,0,.13-.01h0ZM22.4,9.48l.29.03s0,0,0,0c0,.04,0,.08,0,.12l-.44.34s-.05,0-.08-.01c0-.1,0-.2,0-.31.08-.06.15-.11.23-.16,0,0,0-.01,0-.02h0ZM21.08,9.48c.06.02.13.03.19.04,0,.1,0,.2,0,.3-.05.03-.1.07-.16.1l-.37-.08s0-.1,0-.15l.33-.21h0ZM14.76,9.5c.06,0,.11,0,.17.01l.34.29c0,.06,0,.13,0,.19h-.3c-.07-.06-.14-.12-.21-.18,0-.1,0-.2,0-.31h0ZM15.79,9.51l.31.25c0,.06,0,.11,0,.17,0,0,0,.01.02.02l-.33.02c-.07-.05-.13-.1-.2-.14,0-.1,0-.2,0-.31.06,0,.13,0,.2,0h0ZM24.35,9.52s0,0,0,0c0,.06,0,.11,0,.16l-.4.37s-.08,0-.12,0v-.31c.08-.07.15-.13.23-.2v-.03h.3s0-.01,0-.01ZM23.21,9.54h.34s-.02.02-.03.03c0,.07,0,.13,0,.2l-.31.26c-.07,0-.14,0-.2,0,0-.1,0-.2,0-.31.07-.06.15-.12.22-.17h0ZM17.82,9.65c.06.03.12.06.17.09,0,.1,0,.2,0,.3-.08.02-.15.04-.23.06l-.3-.18c0-.06,0-.12,0-.18l.36-.1ZM19.92,9.65l.33.11s-.02.02-.03.02c0,.06,0,.11,0,.16l-.33.18c-.06-.02-.12-.04-.18-.06,0-.1,0-.21,0-.31.07-.03.14-.06.21-.1h0ZM21.94,9.66c.05,0,.1.02.16.03,0,.1,0,.2,0,.3-.04.03-.08.06-.12.09l-.4-.06s0-.06,0-.09l.37-.27h0ZM18.29,9.66l.34.17s-.03.01-.05.02c0,.06,0,.13,0,.19l-.31.11c-.07-.03-.13-.07-.2-.1,0-.1,0-.21,0-.31.08-.02.15-.05.22-.07h0s0,0,0,0ZM22.69,9.69s0,.02,0,.03c.08.01.15.02.23.02,0,.1,0,.21,0,.31-.04.04-.09.07-.13.1l-.39-.03s0-.08,0-.13c-.03,0-.06,0-.09-.01l.37-.29h0ZM19.46,9.7c.06.02.12.04.18.06,0,.1,0,.2,0,.3-.05.02-.1.05-.15.07l-.38-.15s0-.07,0-.11l.35-.17h0ZM23.55,9.79c.06,0,.13,0,.2,0v.31s-.07.06-.11.09h-.41v-.13l.32-.27h0ZM16.97,9.86c.06.04.13.08.19.12,0,.1,0,.2,0,.3-.06.01-.12.02-.18.03l-.35-.24c0-.05,0-.1.01-.15l.33-.07h0ZM20.75,9.9l.3.07c0,.08,0,.15,0,.22,0,0,.02,0,.03,0l-.33.21c-.07-.02-.15-.03-.22-.05v-.31c.08-.04.15-.09.22-.13v-.02h0ZM17.42,9.96l.33.2c0,.06,0,.11,0,.16l-.33.09c-.06-.04-.12-.07-.18-.11,0-.1,0-.2,0-.31.06-.01.13-.02.18-.03h0ZM16.18,9.99c.05.04.1.08.16.12,0,.1,0,.2,0,.3-.07,0-.14,0-.2.01l-.32-.25s0-.1,0-.15l.37-.03h0ZM20.22,9.99c.08.03.15.05.23.07v.31s-.06.03-.09.05l-.43-.13s0-.09,0-.13l.29-.16h0ZM14.15,10.01l.37.03c.05.05.11.09.16.14,0,.1,0,.2,0,.29-.08,0-.16-.01-.24-.02l-.29-.27c0-.06,0-.11,0-.17h0ZM19.1,10.04l.31.12s-.02.01-.02.02c0,.07,0,.13,0,.19l-.37.17c-.05-.02-.1-.04-.16-.06,0-.1,0-.2,0-.3.08-.03.16-.06.23-.1v-.03h0ZM15.31,10.05c.06.05.13.11.19.16,0,.1,0,.2,0,.29-.05,0-.09,0-.14,0l-.39-.32s0-.08,0-.12h.34ZM21.57,10.08l.33.05s-.02.01-.03.02c0,.03,0,.07,0,.1l-.41.29s-.07-.01-.11-.02v-.31c.07-.05.14-.1.22-.14h0ZM18.61,10.08c.06.03.13.06.19.09,0,.1,0,.2,0,.3-.06.03-.13.05-.2.07l-.33-.16s.01,0,.01,0c0-.06,0-.11,0-.17l.33-.12h0ZM16.57,10.1l.35.23c0,.07,0,.12,0,.19l-.3.05c-.07-.05-.14-.09-.21-.14,0-.1,0-.21,0-.31.06,0,.12-.01.17-.02h0ZM22.4,10.19l.31.03s-.01,0-.02.01c0,.07,0,.14,0,.21l-.34.27c-.06,0-.12-.01-.18-.02v-.31c.08-.05.15-.11.23-.16v-.03h0ZM14.75,10.2c.07,0,.13,0,.2.01l.33.29s-.02,0-.03,0c0,.06,0,.13,0,.19h-.31c-.07-.06-.14-.12-.2-.18,0-.1,0-.21,0-.31h0ZM15.78,10.21l.31.25c0,.06,0,.12,0,.18l-.34.02c-.06-.05-.12-.09-.18-.14,0-.1,0-.2,0-.3.07,0,.13,0,.2,0h0ZM21.14,10.21s.09.02.14.03c0,.1,0,.2,0,.3-.05.03-.09.06-.14.08l-.39-.1s0-.05,0-.07l.39-.24h0ZM24.37,10.23s-.01.01-.02.02c0,.08,0,.15,0,.22h.03l-.33.31c-.07,0-.14.01-.22.01,0-.1,0-.2,0-.3.08-.07.15-.14.23-.2v-.04l.31-.02h0ZM23.23,10.25h.33s-.03.03-.04.04c0,.05,0,.09,0,.14l-.38.31s-.1,0-.14,0c0-.1,0-.2,0-.3.07-.06.15-.13.23-.19h0ZM21.86,10.31v.06c.08,0,.15.02.23.02v.31s-.06.03-.08.05l-.44-.06s0-.09,0-.14c-.02,0-.04,0-.06-.01l.34-.25h0ZM19.93,10.34l.36.11s-.05.03-.07.04c0,.07,0,.14,0,.21l-.29.16s0,0,0,0c-.08-.03-.16-.05-.23-.08,0-.1,0-.21,0-.31.07-.04.15-.07.22-.11v-.02h0ZM17.81,10.36c.06.03.11.06.17.1,0,.1,0,.2,0,.3-.07.02-.14.03-.2.05l-.33-.19c0-.05,0-.1,0-.15l.35-.1h0ZM18.2,10.41l.37.18s0,.1,0,.14l-.33.12c-.06-.03-.12-.06-.18-.09v-.31s.1-.03.14-.05h0ZM19.43,10.41c.06.03.13.05.2.08,0,.1,0,.2,0,.3-.08.04-.15.07-.22.1l-.31-.12c0-.07,0-.13,0-.19,0,0,0,0,0,0l.34-.16h0ZM24.58,10.45c0,.1,0,.21,0,.31-.04.03-.07.07-.11.1l-.42.03s0-.04,0-.06l.39-.36s.09,0,.13-.01h0ZM22.75,10.45c.06,0,.12,0,.18,0,0,.1,0,.2,0,.3-.04.03-.07.06-.11.09l-.41-.04s0-.06,0-.1l.35-.27ZM23.52,10.48v.02c.07,0,.15,0,.23,0,0,.1,0,.21,0,.31-.03.02-.05.04-.08.06h-.44c0-.05,0-.1,0-.14,0,0,0,0-.02,0l.31-.26h0ZM16.96,10.57c.06.04.13.08.19.12,0,.1,0,.2,0,.3-.06,0-.11.02-.16.02l-.36-.24s0-.1,0-.15l.33-.06h0ZM20.75,10.59l.33.08s-.02.01-.03.02c0,.04,0,.09,0,.13l-.44.27s-.05-.01-.08-.02c0-.1,0-.2,0-.3.08-.05.15-.09.23-.14v-.04h0ZM17.43,10.67l.31.18c0,.06,0,.11,0,.16l-.37.09s-.1-.06-.14-.09c0-.1,0-.21,0-.31.07-.01.14-.02.21-.04ZM16.16,10.7c.05.04.11.08.16.12,0,.1,0,.2,0,.3-.06,0-.12,0-.17.01l-.35-.27s0-.09,0-.14l.36-.03h0ZM14.13,10.7l.36.03c.05.05.11.1.16.15,0,.1,0,.19,0,.29-.06,0-.13,0-.2-.01l-.32-.3s0-.1,0-.15h0ZM20.28,10.73c.06.02.11.03.17.05,0,.1,0,.2,0,.31-.06.03-.12.07-.18.1l-.34-.11s0-.1,0-.15l.36-.19h0ZM14.96,10.74h.33c.06.06.13.11.2.16,0,.1,0,.2,0,.3-.07,0-.14,0-.21,0l-.32-.28c0-.06,0-.12,0-.17h0ZM21.57,10.76l.37.06s-.05.03-.07.05c0,.06,0,.13,0,.19l-.31.23c-.07-.01-.14-.02-.2-.04v-.31c.08-.05.15-.09.23-.15v-.03h0ZM18.58,10.79c.07.04.14.07.21.1,0,.1,0,.21,0,.31-.05.02-.11.04-.16.06l-.36-.17c0-.06,0-.11,0-.17l.31-.11h0ZM19.06,10.8l.33.13c0,.06,0,.12,0,.18,0,0,.02,0,.03.01l-.34.16c-.07-.03-.15-.06-.22-.09,0-.1,0-.2,0-.3.06-.02.13-.05.19-.08h0ZM16.57,10.81l.34.23c0,.06,0,.11,0,.17l-.34.06c-.06-.04-.12-.08-.18-.12v-.31c.06,0,.12-.01.18-.02ZM13.9,10.85c.07.01.14.02.21.04l.3.28c0,.05,0,.11,0,.16l-.36-.04c-.05-.05-.11-.11-.16-.16,0,0,.01,0,.02,0,0-.1,0-.2,0-.29h0ZM22.4,10.88l.34.04s-.04.02-.05.04c0,.05,0,.11,0,.16l-.41.31s-.07,0-.11-.01c0-.11,0-.21,0-.31.08-.05.15-.1.23-.16,0-.02,0-.04,0-.06h0ZM21.05,10.88v.03c.08.02.15.03.23.05,0,.1,0,.2,0,.3-.07.05-.14.09-.22.13l-.31-.08c0-.06,0-.13,0-.19-.03,0-.05-.01-.08-.02l.37-.23h0ZM14.74,10.9s.09,0,.14.01l.37.32s0,.09,0,.14h-.33c-.06-.06-.12-.11-.18-.16,0-.1,0-.2.01-.3h0ZM15.79,10.91l.29.23c0,.06,0,.13,0,.19l-.37.03c-.05-.04-.1-.08-.15-.12,0-.1,0-.2,0-.31.08,0,.15,0,.23,0h0s0,0,0,0ZM24.4,10.92s-.03.03-.05.04c0,.08,0,.15,0,.22,0,0,.02,0,.03,0l-.34.31c-.07,0-.14,0-.21,0,0-.1,0-.2,0-.3.08-.07.15-.13.23-.2,0-.02,0-.04,0-.06l.35-.02h0ZM23.23,10.94h.37s-.05.05-.08.07c0,.07,0,.15,0,.22l-.29.25h0c-.08-.01-.15-.01-.23-.02v-.3c.07-.06.15-.12.23-.18v-.03h0ZM17.77,11.06c.07.04.14.07.21.11,0,.1,0,.2,0,.29-.07.02-.13.03-.2.05l-.34-.2c0-.05,0-.11,0-.16,0,0,0,0-.01,0l.34-.09ZM21.9,11.09c.06.01.13.02.2.02,0,.1,0,.21,0,.31-.06.04-.11.08-.17.12l-.35-.05c0-.06,0-.11,0-.17l.32-.23h0ZM18.23,11.11l.33.17v.21s0,0,0,0l-.3.11s0-.01,0-.02c-.08-.04-.15-.07-.22-.11v-.31c.06-.02.12-.04.18-.06h0ZM19.86,11.11l.36.12s0,.05,0,.08l-.42.22s-.06-.03-.1-.04c0-.1,0-.21,0-.31.05-.02.1-.05.16-.07h0ZM19.49,11.15s.09.03.13.05c0,.1,0,.2,0,.3-.06.03-.12.05-.19.08l-.34-.12v-.12l.4-.19h0ZM22.69,11.16h0c.08.01.16.01.24.02,0,.1,0,.2,0,.31-.06.05-.13.1-.19.15l-.34-.03c0-.06,0-.12,0-.18-.02,0-.04,0-.06,0l.34-.26h0ZM24.58,11.16c0,.1,0,.2,0,.31-.06.06-.13.11-.19.17l-.34.02s0-.09,0-.13l.38-.36s.09,0,.14-.01h0ZM23.59,11.23c.05,0,.1,0,.16,0,0,.1,0,.2,0,.3,0,0,.02,0,.02,0-.06.05-.12.1-.18.15h-.36s0-.14,0-.14l.36-.31h0ZM16.92,11.26c.08.05.15.1.22.14,0,.1,0,.2,0,.3-.04,0-.09.01-.13.02l-.4-.26s0-.09.01-.14l.3-.06h0ZM14.11,11.36l.35.03c.07.06.13.12.2.18,0,.1,0,.2,0,.29-.07,0-.14-.02-.2-.02l-.33-.31c0-.05,0-.11,0-.16,0,0,0,0-.02-.01h0ZM20.71,11.37l.33.08c0,.06,0,.12,0,.17l-.35.21c-.06-.02-.12-.03-.18-.04v-.31c.06-.04.13-.08.19-.12h0ZM20.22,11.37s0,.04,0,.06c.08.02.16.05.24.06v.31s-.1.05-.14.08l-.39-.12c0-.06,0-.12,0-.19-.02,0-.04,0-.06-.02l.35-.19h0ZM17.43,11.38l.3.17c0,.07,0,.14,0,.2.01,0,.02.01.03.02l-.33.09c-.07-.04-.14-.09-.21-.13,0-.1,0-.21,0-.31.08-.01.15-.03.22-.04h0ZM16.12,11.38c.06.05.13.1.2.15,0,.1,0,.2,0,.3-.08,0-.15,0-.23.01l-.3-.23c0-.06,0-.13.01-.2l.33-.03h0ZM14.95,11.42h.3c.07.06.15.12.23.18,0,.1,0,.19,0,.3-.06,0-.12,0-.18,0l-.36-.31c0-.06,0-.12,0-.17ZM19.09,11.51l.3.12s0,.07,0,.11l-.45.2s-.05-.02-.08-.03c0-.1,0-.2,0-.3.08-.03.15-.06.22-.09h0ZM16.6,11.52h0l.33.23s-.03,0-.04,0c0,.07,0,.15,0,.22l-.29.05h0c-.08-.07-.16-.12-.23-.17,0-.1,0-.21,0-.31.08,0,.15-.01.22-.02h0ZM18.63,11.52c.05.03.11.05.16.08,0,.1,0,.2,0,.3-.05.02-.11.04-.16.06l-.37-.18s0-.08,0-.11l.36-.14h0ZM13.9,11.54c.07.02.15.03.22.04l.29.28c0,.06-.01.13-.01.19.01.01.02.02.03.03l-.34-.03c-.08-.08-.16-.16-.23-.23,0,0,.02,0,.03.01,0-.1,0-.19,0-.29h0ZM21.53,11.54l.34.05s0,.09,0,.13l-.38.27s-.09-.02-.14-.03c0-.1,0-.21,0-.31.06-.04.12-.07.18-.11h0ZM14.73,11.59c.06,0,.11,0,.17.01l.34.29c0,.07,0,.14,0,.22h0s-.29,0-.29,0h0c-.07-.07-.15-.14-.22-.21,0-.1,0-.21,0-.31h0ZM15.73,11.62l.34.26c0,.05,0,.11,0,.16.01.01.03.02.04.03l-.34.03c-.07-.06-.15-.12-.22-.18,0-.11,0-.2,0-.3.06,0,.12,0,.18,0ZM21.1,11.64c.06.02.12.03.18.04,0,.1,0,.2,0,.3-.06.04-.12.07-.18.11l-.35-.09s0-.1,0-.15l.35-.22h0ZM22.39,11.66l.31.03c0,.07,0,.13,0,.19,0,0,.01,0,.02,0l-.34.26-.22-.02s0,0,0,0c0-.1,0-.21,0-.31.08-.05.15-.09.22-.15h0ZM24.36,11.7c0,.07,0,.13,0,.2,0,0,.01,0,.02,0l-.33.3c-.08,0-.15.01-.22.01,0,0,.01,0,.02,0,0-.1,0-.2,0-.3.07-.06.15-.13.22-.19l.3-.02h0ZM23.19,11.72h.34c0,.08,0,.15,0,.22l-.28.24h0c-.07-.01-.15-.01-.23-.02,0-.1,0-.2,0-.31.06-.05.12-.1.18-.15h0ZM21.87,11.78v.03c.07,0,.15.02.23.03,0,.1,0,.2,0,.3,0,0,0,0,.02,0-.05.04-.1.07-.15.11l-.39-.06c0-.06,0-.11,0-.18,0,0-.01,0-.02,0l.31-.22h0ZM19.38,11.79v.03c.08.03.16.06.24.09,0,.1,0,.2,0,.3-.06.03-.12.05-.17.08l-.35-.14c0-.05,0-.11,0-.16-.03-.01-.06-.02-.09-.03l.37-.17h0ZM17.83,11.8s.09.05.14.08c0,.1,0,.2,0,.3-.05.02-.11.03-.16.04l-.37-.22v-.09l.39-.11h0ZM19.9,11.81l.33.11s-.01,0-.02,0c0,.06,0,.12,0,.19l-.31.17c-.07-.02-.13-.04-.2-.07,0-.1,0-.21,0-.31.07-.03.13-.06.2-.09h0ZM18.22,11.82l.33.17v.11l-.41.15s-.07-.03-.1-.05c0-.1,0-.2,0-.31.06-.02.12-.04.18-.06h0ZM24.6,11.88c0,.1,0,.2,0,.3-.05.05-.1.1-.15.14l-.37.02s0-.08,0-.11l.36-.34c.05,0,.1,0,.15-.01h0ZM22.79,11.89s.09,0,.14,0c0,.1,0,.21,0,.31-.05.04-.11.08-.16.12l-.37-.03s0-.07,0-.11l.38-.3h0ZM23.6,11.94c.05,0,.1,0,.16,0,0,.1,0,.2,0,.3.01,0,.03-.01.04-.02-.05.04-.11.09-.16.13h-.4s0-.11,0-.11l.35-.3h0ZM16.97,12.01c.05.04.11.07.16.1,0,.1,0,.2,0,.3,0,0,0,0,.01,0-.07.01-.14.03-.2.04l-.33-.22h0c0-.06,0-.1,0-.15l.36-.07h0ZM17.43,12.06l.3.18s0,0,0,0c0,.04,0,.09,0,.13l-.45.11s-.06-.04-.09-.05h0c0-.1,0-.2.01-.3.08-.01.15-.03.23-.04v-.03s0,0,0,0ZM20.75,12.07l.3.07c0,.05,0,.1,0,.14l-.41.26s-.09-.02-.13-.03c0,0,0,0,.02,0v-.3c.07-.04.15-.08.23-.13h0ZM14.11,12.11l.4.04s.09.08.13.12c0,.1,0,.2-.02.29-.05,0-.11,0-.16-.01l-.35-.34s0-.06,0-.1h0ZM16.17,12.13s.09.07.13.1c0,.1,0,.2,0,.3-.07,0-.13.01-.2.02l-.33-.26s0-.08,0-.12l.4-.03h0ZM20.24,12.15c.07.02.14.04.21.06v.3s.02,0,.03,0c-.06.03-.11.06-.17.09l-.38-.12s0-.1,0-.14l.32-.17h0ZM18.55,12.16v.04c.07.04.15.07.24.11,0,.1,0,.2,0,.3h.02s-.09.03-.14.05l-.41-.2c0-.05,0-.11,0-.16-.02,0-.03-.02-.05-.02l.34-.12h0ZM14.93,12.17h.37c.05.05.11.1.16.14,0,.1,0,.19,0,.29-.06,0-.12,0-.18,0l-.36-.33s0-.07,0-.11h0ZM19.09,12.21l.29.12c0,.07,0,.13,0,.2l-.35.16c-.06-.03-.13-.05-.19-.08h.02c0-.1,0-.2,0-.3.08-.03.15-.06.23-.1h0s0,0,0,0ZM13.87,12.23c.08.01.15.03.23.04,0,0,0-.01,0-.02l.28.28s0,.08,0,.12l-.44-.05s-.05-.05-.08-.07c0-.12.01-.24.01-.3h0ZM16.53,12.23l.35.24v.08l-.41.07s-.07-.05-.11-.07c0-.1,0-.21.01-.31.05,0,.1,0,.16-.01h0ZM21.55,12.24l.34.05s-.02,0-.02,0c0,.07,0,.15,0,.22l-.29.2h0c-.08-.02-.16-.03-.23-.05v-.31c.06-.04.13-.09.2-.13h0ZM14.71,12.29c.06,0,.12.01.18.02l.33.3s0,.07,0,.1l-.42-.02s-.07-.06-.1-.09c0-.1.01-.21.02-.31h0ZM25.25,12.29s-.03.03-.04.04c0,.08,0,.15,0,.23,0,0,.01,0,.02,0l-.3.31s0-.02,0-.02c-.08,0-.16.02-.24.02,0-.1,0-.21-.01-.31.08-.07.15-.14.23-.22l.34-.05h0ZM15.75,12.33l.31.24s0,.07,0,.11l-.44.02s-.06-.04-.08-.06c0-.11,0-.2,0-.31.07,0,.14,0,.21,0h0ZM21.05,12.34c.08.02.16.04.24.06v.3c-.05.04-.11.07-.17.1l-.36-.08c0-.05,0-.1,0-.15-.02,0-.03,0-.05-.01l.34-.21h0ZM22.41,12.36l.3.02c0,.08,0,.15,0,.22h.02l-.33.26c-.07,0-.14-.01-.21-.02,0-.11,0-.2,0-.31.08-.05.16-.11.23-.17h0s0,0,0,0ZM24.38,12.39s0,0,0,0c0,.07,0,.14,0,.21l-.33.33c-.06,0-.13,0-.19,0,0-.11,0-.19,0-.3.08-.07.16-.14.24-.2v-.02l.3-.02h0ZM23.23,12.42h.34s-.01.02-.02.02c0,.08,0,.14,0,.21l-.29.25h0c-.08,0-.16,0-.23,0,0-.1,0-.21,0-.31.07-.06.13-.11.2-.17h0ZM17.72,12.43s0,.02,0,.03c.08.04.16.09.24.14,0,.1,0,.2,0,.3-.07.02-.15.04-.21.06l-.32-.19c0-.06,0-.12,0-.18-.03-.02-.06-.04-.09-.06l.37-.1h0ZM18.26,12.52l.33.16s-.03.01-.04.02v.19l-.31.12c-.08-.04-.15-.07-.21-.11,0-.1,0-.21,0-.31.08-.02.15-.05.24-.07h0ZM19.9,12.52l.33.11s-.02,0-.02.01c0,.04,0,.09,0,.14l-.37.2s-.1-.03-.15-.05c0-.1,0-.2,0-.31.07-.03.14-.06.21-.1h0ZM21.94,12.54c.05,0,.11.02.17.02,0,.11,0,.2,0,.31-.04.03-.08.05-.12.08l-.41-.06s0-.07,0-.1l.35-.25h0ZM19.45,12.56c.06.02.11.04.17.06,0,.1,0,.2,0,.31-.05.02-.1.05-.15.07l-.38-.15s0-.08,0-.12l.35-.17ZM24.62,12.59c0,.1.01.2.01.31-.05.05-.09.09-.14.14l-.38.03s0-.09,0-.13l.33-.32c.06,0,.12-.01.18-.02h0ZM22.8,12.61s.1,0,.14,0c0,.1,0,.21,0,.31-.05.04-.1.08-.15.12l-.38-.03s0-.07,0-.1l.38-.3h0ZM16.89,12.62v.06c.07.05.15.1.23.15,0,.11,0,.19,0,.3-.05,0-.1.02-.16.03l-.37-.26c0-.06,0-.12.01-.18-.02-.01-.04-.03-.06-.04l.35-.06h0ZM23.61,12.66c.06,0,.11,0,.17,0,0,.11.01.2.01.31-.04.03-.08.06-.12.1h-.4s0-.08,0-.11l.34-.29h0ZM13.99,12.67l.37.04s0,.02,0,.02c.08.08.16.15.24.22v.29c-.06,0-.11-.01-.16-.02l-.37-.36s0-.09,0-.13c-.03-.03-.05-.05-.08-.08h0ZM16.04,12.74s0,.01,0,.02c.08.06.16.13.25.19,0,.1,0,.19-.01.29-.07,0-.13.01-.19.01l-.33-.26c0-.06,0-.11,0-.16-.03-.02-.05-.04-.08-.06l.37-.02h0ZM14.86,12.75l.35.02s0,.03,0,.05c.07.06.15.13.23.2,0,.1-.01.19-.02.3-.04,0-.08,0-.12,0l-.4-.35c0-.05,0-.1,0-.16-.01-.01-.03-.03-.04-.04h0ZM20.75,12.77l.3.07c0,.07,0,.14,0,.22.01,0,.02,0,.03.01l-.33.2c-.07-.02-.15-.04-.22-.05,0-.11,0-.2,0-.3.08-.04.16-.09.23-.14h0s0,0,0,0ZM17.4,12.8l.32.19c0,.06,0,.12,0,.18l-.35.08c-.06-.03-.12-.07-.17-.11v-.31c.07-.01.14-.02.21-.04h0ZM20.21,12.84v.03c.08.02.16.04.24.07,0,.11,0,.2,0,.31-.03.02-.07.03-.1.05h0l-.43-.13s0-.1,0-.15c0,0-.01,0-.02-.01l.31-.16h0ZM19.09,12.9l.31.12s-.01,0-.02,0c0,.05,0,.1,0,.16l-.41.19s-.09-.04-.13-.06c0,0,.01,0,.02,0v-.29c.08-.03.15-.06.23-.1,0,0,0-.02,0-.03ZM13.83,12.92c.08.02.15.03.23.05v-.04l.3.29s-.01,0-.02,0c0,.06-.01.13-.02.21l-.34-.04c-.06-.06-.12-.12-.17-.18,0-.11.01-.24.02-.3h0ZM16.55,12.94l.33.23h-.01c0,.06,0,.12,0,.19l-.33.05c-.06-.05-.13-.1-.2-.15,0-.1,0-.2.01-.31.06,0,.13-.01.19-.02h0ZM18.58,12.94c.07.03.13.06.2.09v.29s.02,0,.03,0c-.08.03-.15.05-.22.08l-.34-.17c0-.06,0-.11,0-.17l.33-.12ZM21.58,12.95l.34.06s-.02.01-.03.02c0,.07,0,.14,0,.21l-.29.21c-.08-.01-.15-.03-.23-.04,0-.11,0-.21,0-.31.07-.05.15-.09.22-.14h0ZM14.68,12.99c.07,0,.15.02.22.02h0l.33.29s-.03,0-.04,0v.19s-.32-.02-.32-.02c-.07-.06-.13-.12-.2-.18v-.31s.01,0,.01,0ZM25.3,13s-.04.04-.06.06c0,.07,0,.14.01.21l-.28.29c-.08,0-.16.02-.24.02,0-.1,0-.2-.01-.3.08-.07.15-.14.23-.22v-.02l.36-.05h0ZM15.51,13.04c.07,0,.15,0,.22,0l.29.24c0,.06-.01.13-.01.19,0,0,0,0,0,0l-.35.02c-.06-.05-.12-.1-.18-.15,0-.11,0-.2.02-.31h0ZM22.42,13.07l.32.03s-.01.01-.02.02c0,.07,0,.15,0,.22,0,0,0,0,.02,0l-.33.26c-.07,0-.14-.01-.21-.02,0-.11,0-.2,0-.31.08-.05.16-.1.23-.16,0,0,0-.02,0-.02h0ZM21.14,13.08s.1.02.15.03c0,.1,0,.2,0,.3-.05.03-.09.05-.14.08l-.39-.09s0-.06,0-.08l.37-.24h0ZM24.42,13.1s0,0-.02.01c0,.07,0,.15,0,.22.02,0,.03,0,.05,0l-.32.31c-.09,0-.17.01-.25.02,0-.11,0-.2-.01-.31.08-.07.15-.13.24-.2,0,0,0-.02,0-.03l.31-.02h0ZM23.26,13.12h.34s-.03.03-.04.04c0,.07,0,.12,0,.18l-.31.28c-.07,0-.15,0-.21,0,0-.1,0-.21,0-.31.07-.06.15-.12.22-.18h0ZM17.77,13.21c.06.03.12.07.18.1,0,.1,0,.2,0,.3-.06.02-.13.03-.19.05l-.35-.21s0-.1.01-.15l.35-.09h0ZM19.92,13.21l.36.11s-.04.02-.06.03c0,.07,0,.14,0,.21l-.3.16s0,0,0,0c-.08-.02-.16-.05-.23-.08,0-.1,0-.21,0-.31.08-.04.15-.07.23-.1,0,0,0,0,0-.01h0ZM25.48,13.23c0,.11.02.2.02.31-.02.03-.04.05-.07.07l-.46.07s0-.04,0-.06l.34-.36c.06-.01.11-.02.17-.03h0ZM19.38,13.25h0c.08.04.16.06.24.09,0,.1,0,.2,0,.3-.07.03-.13.06-.2.09l-.33-.13c0-.06,0-.12,0-.18-.02,0-.03-.01-.05-.02l.34-.15h0ZM18.19,13.25l.35.17v.12l-.39.14s-.09-.04-.13-.07c0-.1,0-.21,0-.31.06-.02.11-.03.17-.05h0ZM21.95,13.25c.05,0,.11.01.16.02,0,.11,0,.21,0,.31-.03.02-.06.05-.08.07l-.45-.06s0-.05,0-.08l.35-.26h0ZM13.19,13.31l.33.07c.06.07.12.14.19.2l-.02.29c-.06-.01-.12-.02-.19-.04l-.33-.36c0-.05,0-.11.01-.16h0ZM24.65,13.32c0,.1,0,.2.01.3-.04.04-.08.07-.11.11l-.41.03s0-.03,0-.05l.39-.38s.08,0,.12-.01h0ZM22.81,13.33s.1,0,.15,0c0,.1,0,.21,0,.31-.04.03-.08.06-.12.1l-.41-.04s0-.06,0-.09l.36-.29h0ZM23.61,13.38c.06,0,.13,0,.2,0,0,.11,0,.2.01.31-.03.02-.06.05-.08.07h-.45s0-.07,0-.1l.32-.28h0ZM16.9,13.41c.07.04.13.09.2.13,0,.11,0,.2,0,.3-.05,0-.1.02-.15.02l-.39-.26s0-.09,0-.14l.33-.05h0ZM14.04,13.46l.36.04c.06.05.11.1.17.16,0,.1-.01.2-.02.3-.08,0-.15-.02-.22-.03l-.3-.3c0-.06,0-.11.01-.16ZM20.77,13.47l.32.08s-.02,0-.02.01c0,.07,0,.14,0,.22,0,0,.02,0,.03,0l-.33.21c-.07-.02-.15-.04-.22-.06,0-.11,0-.2,0-.31.08-.04.15-.08.24-.13,0-.01,0-.02,0-.03h0ZM17.41,13.51l.29.18s0,.1,0,.14l-.42.1s-.08-.04-.11-.07c0-.11,0-.2,0-.31.08-.01.16-.03.23-.04h0s0,0,0,0ZM16.09,13.52c.06.04.11.09.16.13v.3c-.06,0-.11,0-.17,0l-.37-.29s0-.08,0-.11l.37-.03h0ZM14.88,13.54h.34c.06.07.13.12.2.18,0,.11,0,.19-.01.29-.04,0-.08,0-.12,0l-.41-.36s0-.07,0-.11h0ZM20.28,13.6c.06.02.12.03.18.05v.3c-.06.03-.11.06-.17.09l-.37-.12s0-.09,0-.13l.36-.19h0ZM18.54,13.61v.02c.08.04.16.07.24.11,0,.11,0,.2,0,.31-.05.02-.1.03-.16.05l-.38-.18c0-.06,0-.12.01-.18,0,0-.01,0-.02,0l.31-.11h0ZM13.79,13.62c.07.01.14.02.2.04l.31.31s0,.08-.01.12l-.41-.05s-.07-.07-.1-.11c0-.11,0-.24.01-.3h0ZM16.54,13.64l.34.23s-.01,0-.02,0v.13s-.39.06-.39.06c-.05-.03-.1-.07-.14-.1v-.31c.08,0,.15-.01.22-.02h0ZM21.6,13.64l.37.05s-.04.03-.06.05c0,.07,0,.14,0,.21l-.3.21c-.08-.02-.16-.03-.23-.04,0-.1,0-.2,0-.31.08-.05.15-.09.23-.14v-.02h0ZM19.06,13.66l.31.12c0,.07,0,.13,0,.19,0,0,.02,0,.02,0l-.34.15c-.07-.03-.14-.06-.21-.09,0-.11,0-.2,0-.3.07-.03.14-.06.21-.09h0ZM25.36,13.68s-.05.06-.08.09c0,.07,0,.14,0,.21l-.28.29s0,0,0,0c-.08.01-.17.02-.24.03,0-.1,0-.2-.01-.31.08-.07.15-.15.23-.22,0-.01,0-.02,0-.04l.38-.06h0ZM14.64,13.69c.08,0,.15.01.23.02l.33.3s-.03,0-.04,0c0,.05,0,.09,0,.14l-.38-.02s-.09-.08-.14-.12c0-.1,0-.21,0-.31h0ZM15.72,13.72l.3.24s0,0,0,0c0,.05,0,.1,0,.16l-.41.02s-.08-.06-.12-.1c0-.11,0-.2.01-.3.08,0,.15,0,.23,0,0,0,0-.02,0-.03h0ZM22.45,13.76l.33.03s-.03.02-.04.03c0,.07,0,.14,0,.21l-.35.27c-.06,0-.12-.01-.17-.02,0-.1,0-.21,0-.31.07-.05.15-.1.23-.16v-.04h0ZM24.48,13.79s-.03.03-.05.04c0,.08,0,.15,0,.22.01,0,.02,0,.03,0l-.34.32c-.07,0-.15,0-.22.01,0-.1,0-.19,0-.3.08-.07.15-.14.23-.21,0-.02,0-.04,0-.06l.34-.02h0ZM21.15,13.8s.1.02.15.03c0,.1,0,.2,0,.3-.07.04-.13.08-.2.11l-.33-.08s0-.09,0-.13l.38-.24h0ZM23.29,13.82h.37s-.05.04-.07.06c0,.07,0,.15,0,.22h.03l-.32.27s0-.02,0-.04c-.08,0-.16,0-.24-.01,0-.1,0-.2,0-.31.07-.06.15-.12.22-.18,0,0,0-.02,0-.02h0ZM17.69,13.89h0c.08.04.16.09.24.14,0,.1,0,.2,0,.3-.06.02-.12.03-.18.04l-.36-.21c0-.05,0-.1,0-.15-.02-.01-.03-.02-.05-.03l.34-.09h0ZM18.22,13.96l.33.16s0,0-.01,0c0,.08,0,.15,0,.22l-.29.11h0c-.08-.05-.15-.08-.23-.12,0-.1,0-.21,0-.31.07-.02.14-.04.2-.06h0ZM19.87,13.96l.35.11v.22s-.29.15-.29.15h0c-.08-.03-.16-.06-.24-.09,0-.1,0-.21,0-.31.06-.03.12-.06.18-.08h0ZM21.96,13.97c.06.01.12.02.18.03,0,.1,0,.21,0,.31-.05.04-.11.07-.16.11l-.38-.06s0-.08,0-.13l.35-.25h0ZM19.47,14.01s.09.03.14.05c0,.1,0,.2,0,.3-.06.03-.12.05-.17.07l-.36-.14s0-.08,0-.11l.39-.18ZM24.68,14.03c0,.1,0,.2.01.3-.06.06-.12.11-.18.16l-.35.02s0-.08,0-.12l.38-.36s.09,0,.14-.01h0ZM22.8,14.05c.06,0,.12,0,.19,0,0,.1,0,.21,0,.31-.06.05-.12.09-.18.14l-.35-.03c0-.05,0-.1,0-.16,0,0,0,0,0,0l.34-.26h0ZM25.89,14.06l-.09.1s.07-.03.1-.04h0s-.02-.06-.02-.06h0ZM16.85,14.07v.03c.08.05.16.1.24.16,0,.1,0,.19,0,.3-.04,0-.08.01-.11.02l-.42-.29c0-.05,0-.1,0-.15,0,0-.01-.01-.02-.02l.32-.05h0ZM23.83,14.1c0,.11,0,.21.01.31-.05.04-.1.08-.14.12h-.39s0-.06,0-.09l.38-.33s.09,0,.14,0h0ZM16,14.18c.07.06.15.12.23.18v.29s-.16,0-.16,0l-.38-.3s0-.09,0-.13c-.02-.01-.03-.03-.05-.04l.35-.02h0ZM14.83,14.19h.31s0,.03,0,.04c.07.07.15.13.23.2v.3c-.07,0-.13,0-.2-.01l-.35-.31c0-.06,0-.13.01-.2,0,0,0,0-.01-.01h0ZM17.39,14.21l.3.18c0,.07,0,.14-.01.21.01,0,.02.01.03.02l-.35.09c-.07-.05-.14-.09-.21-.14,0-.11,0-.2,0-.31.08-.02.16-.03.24-.04v-.02h0ZM20.75,14.23l.31.07c0,.06,0,.13,0,.19,0,0,.02,0,.02,0l-.34.21c-.07-.02-.15-.04-.21-.05,0-.11,0-.19,0-.3.07-.04.14-.08.22-.12h0ZM20.29,14.31c.06.02.12.03.17.05,0,.11,0,.2,0,.3-.05.03-.09.05-.14.07l-.41-.13s0-.07,0-.1l.37-.19h0ZM16.54,14.34l.34.24s-.04,0-.06,0c0,.07,0,.14,0,.22l-.3.05h0c-.08-.06-.15-.12-.23-.18v-.3c.09,0,.17-.02.24-.02h0s0,0,0,0ZM19.08,14.35l.3.12c0,.07,0,.14,0,.22,0,0,.02,0,.03.01l-.34.15c-.07-.03-.14-.06-.21-.09,0-.11,0-.2,0-.3.08-.03.16-.06.23-.09h0s0-.01,0-.01ZM18.6,14.38c.06.03.11.05.17.08,0,.11,0,.2,0,.3-.05.02-.09.03-.14.05l-.4-.19s0-.07,0-.1l.37-.14h0ZM21.57,14.41l.35.05s0,0,0,0c0,.06,0,.12,0,.18l-.33.23c-.07-.01-.13-.02-.2-.04v-.31c.06-.04.12-.08.18-.12h0ZM15.69,14.42l.31.24h-.02c0,.07,0,.15,0,.22.01,0,.03.02.04.03h-.35c-.07-.04-.14-.1-.22-.16v-.3c.09,0,.16,0,.25,0,0-.01,0-.02,0-.03h0ZM21.16,14.51s.1.02.15.04v.3s-.1.07-.16.1l-.37-.09s0-.07,0-.11l.38-.24h0ZM22.46,14.53h0l.3.03c0,.07,0,.14,0,.21.02,0,.04,0,.06,0l-.34.26s0,0,0,0c-.08,0-.16-.02-.24-.03,0-.11,0-.2,0-.31.08-.05.15-.1.23-.16h0ZM17.78,14.65s.1.06.15.08c0,.1,0,.2,0,.3-.05.01-.1.02-.15.04l-.4-.24s0-.05,0-.08l.4-.1h0ZM19.9,14.67l.35.11s-.02,0-.02.01v.21s-.29.16-.29.16h0c-.08-.03-.16-.06-.23-.08,0-.1,0-.21,0-.31.07-.03.14-.06.21-.1h0ZM18.21,14.67l.34.16s-.01,0-.02,0c0,.07,0,.15,0,.22l-.3.11s0,0,0-.01c-.08-.04-.15-.07-.23-.11v-.31c.07-.02.14-.04.21-.06h0ZM21.95,14.69c.07,0,.14.02.21.02,0,.11,0,.21,0,.31-.04.03-.08.06-.12.08l-.42-.06s0-.09,0-.13l.33-.23h0ZM19.47,14.72s.1.04.15.05v.3c-.06.02-.11.05-.16.07l-.38-.15s0-.07,0-.11l.39-.17h0Z"/>
      <path class="cls-11" d="M18.03,1.31c.31.06.57.46.54.77-1.14,11.05-2.47,23.07-3.53,33.74,0,0-.12.74-.4.91-1.2.71-2.92.25-4.17-.37-.85-.42-1.64-1.21-1.92-2.12-.29-.94.19-1.97.44-2.93,2.49-9.75,5.77-20.49,8.17-29.42.09-.34.53-.65.87-.59h0Z"/>
      <path class="cls-4" d="M21.1.32c0,.15-.78.27-1.73.27s-1.73-.12-1.73-.27.78-.27,1.73-.27,1.73.12,1.73.27Z"/>
      <path class="cls-1" d="M.14,42.08s.12.3.4.43c.23.11,1.11.07,1.11.07,0,0,24.35,0,36.26,0,.2,0,.4,0,.58-.08.19-.09.23-.3.23-.3,0,0,.09.37-.12.6-.15.16-.42.16-.64.16-12.01,0-24.55,0-36.71,0-.31,0-.71.03-.92-.21-.29-.32-.18-.68-.18-.68h0Z"/>
      <path class="cls-7" d="M30.82,38.12c-.62,1.79-.54,2.93-1.75,3.5-2.84,1.34-5.94,1.03-8.98,1.08-3.1.05-6.26.03-9.28-.64-.8-.18-1.42-1.01-1.68-1.78-.17-.51-.57-.93-.5-1.68.02-.19.22-.31.41-.34.17-.03.44-.03.64.14.43.38.71.92,1.08.99,3.02.63,6.17.91,9.49.93,2.47.01,4.25-.01,6.63-.67.4-.11,1.51-.31,1.85-.54.2-.13.35-.33.54-.47.35-.26.67-.67,1.11-.71.17-.01.53.04.47.2h0Z"/>
      <path class="cls-10" d="M6.61,32.48s-.66.48-.75,1.08c-.15,1.02,1,2.44,1.64,3.25.68.88,2.08,1.49,3.1,1.92,1.6.67,3.36.91,5.08,1.11,1.65.19,3.67.12,5.33,0,1.71-.12,3.96-.28,4.76-.43,1.81-.34,3.21-.87,4.54-1.76.56-.38,1.32-1.14,1.69-1.71.28-.44.79-1.34.82-1.86.01-.29-.75-.89-.75-.89,0,0-.4,2.71-4.13,4.31-2.14.92-4.5,1.19-6.83,1.32-2.25.13-5.05.04-7.26-.41-1.64-.34-2.99-.95-4.47-1.71-1.56-.8-2.35-2.89-2.67-3.72-.24-.62-.09-.5-.09-.5Z"/>
    </g>
  </g>
</svg>